Ortica Linear-Bold.ufo
<glyph name="exclam" format="2">
  <advance width="320"/>
  <unicode hex="0021"/>
  <guideline x="144" y="184" angle="0"/>
  <outline>
    <contour>
      <point x="124" y="184" type="line"/>
      <point x="77" y="705" type="line"/>
      <point x="211" y="705" type="line"/>
      <point x="164" y="184" type="line"/>
    </contour>
    <component base="period" xOffset="4"/>
  </outline>
</glyph>
<glyph name="numbersign" format="2">
  <advance width="788"/>
  <unicode hex="0023"/>
  <outline>
    <contour>
      <point x="334" y="705" type="line"/>
      <point x="140" y="0" type="line"/>
      <point x="205" y="0" type="line"/>
      <point x="399" y="705" type="line"/>
    </contour>
    <contour>
      <point x="82" y="448" type="line"/>
      <point x="724" y="448" type="line"/>
      <point x="738" y="505" type="line"/>
      <point x="96" y="505" type="line"/>
    </contour>
    <contour>
      <point x="49" y="188" type="line"/>
      <point x="684" y="189" type="line"/>
      <point x="699" y="247" type="line"/>
      <point x="63" y="246" type="line"/>
    </contour>
    <contour>
      <point x="593" y="705" type="line"/>
      <point x="406" y="0" type="line"/>
      <point x="471" y="0" type="line"/>
      <point x="658" y="705" type="line"/>
    </contour>
  </outline>
</glyph>
<glyph name="dollar" format="2">
  <advance width="584"/>
  <unicode hex="0024"/>
  <outline>
    <contour>
      <point x="259" y="760" type="line"/>
      <point x="259" y="-74" type="line"/>
      <point x="319" y="-74" type="line"/>
      <point x="319" y="760" type="line"/>
    </contour>
    <contour>
      <point x="509" y="643" type="line"/>
      <point x="496" y="654"/>
      <point x="390" y="705"/>
      <point x="290" y="705" type="curve" smooth="yes"/>
      <point x="167" y="705"/>
      <point x="42" y="650"/>
      <point x="42" y="518" type="curve" smooth="yes"/>
      <point x="42" y="442"/>
      <point x="78" y="373"/>
      <point x="181" y="330" type="curve" smooth="yes"/>
      <point x="338" y="264" type="line" smooth="yes"/>
      <point x="396" y="240"/>
      <point x="426" y="204"/>
      <point x="426" y="159" type="curve" smooth="yes"/>
      <point x="426" y="108"/>
      <point x="388" y="46"/>
      <point x="296" y="44" type="curve" smooth="yes"/>
      <point x="169" y="41"/>
      <point x="98" y="115"/>
      <point x="105" y="273" type="curve"/>
      <point x="79" y="273" type="line"/>
      <point x="50" y="86" type="line"/>
      <point x="81" y="63"/>
      <point x="162" y="0"/>
      <point x="274" y="0" type="curve" smooth="yes"/>
      <point x="452" y="0"/>
      <point x="542" y="105"/>
      <point x="542" y="217" type="curve" smooth="yes"/>
      <point x="542" y="294"/>
      <point x="505" y="341"/>
      <point x="418" y="377" type="curve" smooth="yes"/>
      <point x="270" y="438" type="line" smooth="yes"/>
      <point x="200" y="467"/>
      <point x="170" y="501"/>
      <point x="170" y="566" type="curve" smooth="yes"/>
      <point x="170" y="625"/>
      <point x="208" y="664"/>
      <point x="286" y="664" type="curve" smooth="yes"/>
      <point x="392" y="664"/>
      <point x="458" y="582"/>
      <point x="456" y="454" type="curve"/>
      <point x="481" y="454" type="line"/>
    </contour>
  </outline>
</glyph>
<glyph name="percent" format="2">
  <advance width="766"/>
  <unicode hex="0025"/>
  <outline>
    <contour>
      <point x="86" y="0" type="line"/>
      <point x="157" y="0" type="line"/>
      <point x="689" y="705" type="line"/>
      <point x="619" y="705" type="line"/>
    </contour>
    <contour>
      <point x="344" y="548" type="curve" smooth="yes"/>
      <point x="344" y="468"/>
      <point x="280" y="382"/>
      <point x="193" y="382" type="curve" smooth="yes"/>
      <point x="106" y="382"/>
      <point x="40" y="468"/>
      <point x="40" y="548" type="curve" smooth="yes"/>
      <point x="40" y="624"/>
      <point x="106" y="715"/>
      <point x="193" y="715" type="curve" smooth="yes"/>
      <point x="280" y="715"/>
      <point x="344" y="624"/>
    </contour>
    <contour>
      <point x="193" y="674" type="curve" smooth="yes"/>
      <point x="149" y="674"/>
      <point x="118" y="628"/>
      <point x="118" y="548" type="curve" smooth="yes"/>
      <point x="118" y="468"/>
      <point x="149" y="422"/>
      <point x="193" y="422" type="curve" smooth="yes"/>
      <point x="237" y="422"/>
      <point x="271" y="468"/>
      <point x="271" y="548" type="curve" smooth="yes"/>
      <point x="271" y="628"/>
      <point x="237" y="674"/>
    </contour>
    <contour>
      <point x="726" y="154" type="curve" smooth="yes"/>
      <point x="726" y="75"/>
      <point x="662" y="-11"/>
      <point x="575" y="-11" type="curve" smooth="yes"/>
      <point x="488" y="-11"/>
      <point x="422" y="75"/>
      <point x="422" y="154" type="curve" smooth="yes"/>
      <point x="422" y="231"/>
      <point x="488" y="322"/>
      <point x="575" y="322" type="curve" smooth="yes"/>
      <point x="662" y="322"/>
      <point x="726" y="231"/>
    </contour>
    <contour>
      <point x="575" y="281" type="curve" smooth="yes"/>
      <point x="531" y="281"/>
      <point x="500" y="235"/>
      <point x="500" y="154" type="curve" smooth="yes"/>
      <point x="500" y="75"/>
      <point x="531" y="29"/>
      <point x="575" y="29" type="curve" smooth="yes"/>
      <point x="619" y="29"/>
      <point x="653" y="75"/>
      <point x="653" y="154" type="curve" smooth="yes"/>
      <point x="653" y="235"/>
      <point x="619" y="281"/>
    </contour>
  </outline>
</glyph>
<glyph name="ampersand" format="2">
  <advance width="720"/>
  <unicode hex="0026"/>
  <outline>
    <contour>
      <point x="722" y="0" type="line"/>
      <point x="722" y="26" type="line"/>
      <point x="690" y="27" type="line" smooth="yes"/>
      <point x="653" y="28"/>
      <point x="637" y="38"/>
      <point x="616" y="59" type="curve" smooth="yes"/>
      <point x="381" y="294" type="line" smooth="yes"/>
      <point x="248" y="427"/>
      <point x="195" y="479"/>
      <point x="195" y="561" type="curve" smooth="yes"/>
      <point x="195" y="615"/>
      <point x="228" y="671"/>
      <point x="310" y="671" type="curve" smooth="yes"/>
      <point x="380" y="671"/>
      <point x="444" y="627"/>
      <point x="448" y="487" type="curve"/>
      <point x="476" y="487" type="line"/>
      <point x="529" y="633" type="line"/>
      <point x="484" y="671"/>
      <point x="389" y="713"/>
      <point x="306" y="713" type="curve" smooth="yes"/>
      <point x="198" y="713"/>
      <point x="78" y="664"/>
      <point x="78" y="533" type="curve" smooth="yes"/>
      <point x="78" y="455"/>
      <point x="129" y="395"/>
      <point x="258" y="264" type="curve" smooth="yes"/>
      <point x="516" y="0" type="line"/>
    </contour>
    <contour>
      <point x="208" y="397" type="line"/>
      <point x="131" y="351"/>
      <point x="35" y="290"/>
      <point x="35" y="177" type="curve" smooth="yes"/>
      <point x="35" y="78"/>
      <point x="119" y="-8"/>
      <point x="240" y="-8" type="curve" smooth="yes"/>
      <point x="366" y="-8"/>
      <point x="440" y="83"/>
      <point x="485" y="148" type="curve" smooth="yes"/>
      <point x="585" y="291"/>
      <point x="609" y="370"/>
      <point x="678" y="370" type="curve" smooth="yes"/>
      <point x="708" y="370" type="line"/>
      <point x="708" y="403" type="line"/>
      <point x="449" y="403" type="line"/>
      <point x="449" y="370" type="line"/>
      <point x="505" y="370" type="line" smooth="yes"/>
      <point x="523" y="370"/>
      <point x="533" y="361"/>
      <point x="533" y="343" type="curve" smooth="yes"/>
      <point x="533" y="314"/>
      <point x="508" y="262"/>
      <point x="448" y="185" type="curve" smooth="yes"/>
      <point x="386" y="105"/>
      <point x="347" y="79"/>
      <point x="286" y="79" type="curve" smooth="yes"/>
      <point x="218" y="79"/>
      <point x="145" y="125"/>
      <point x="145" y="219" type="curve" smooth="yes"/>
      <point x="145" y="283"/>
      <point x="174" y="332"/>
      <point x="237" y="372" type="curve"/>
    </contour>
  </outline>
</glyph>
<glyph name="quotesingle" format="2">
  <advance width="175"/>
  <unicode hex="0027"/>
  <outline>
    <contour>
      <point x="68" y="517" type="line"/>
      <point x="40" y="723" type="line" smooth="yes"/>
      <point x="32" y="786"/>
      <point x="143" y="786"/>
      <point x="135" y="723" type="curve" smooth="yes"/>
      <point x="107" y="517" type="line"/>
    </contour>
  </outline>
</glyph>
<glyph name="parenleft" format="2">
  <advance width="394"/>
  <unicode hex="0028"/>
  <outline>
    <contour>
      <point x="339" y="716" type="line"/>
      <point x="216" y="576"/>
      <point x="90" y="426"/>
      <point x="90" y="251" type="curve" smooth="yes"/>
      <point x="90" y="76"/>
      <point x="216" y="-84"/>
      <point x="339" y="-214" type="curve"/>
      <point x="364" y="-199" type="line"/>
      <point x="262" y="-48"/>
      <point x="227" y="110"/>
      <point x="227" y="251" type="curve" smooth="yes"/>
      <point x="227" y="392"/>
      <point x="262" y="550"/>
      <point x="364" y="701" type="curve"/>
    </contour>
  </outline>
</glyph>
<glyph name="asterisk" format="2">
  <advance width="445"/>
  <unicode hex="002A"/>
  <outline>
    <contour>
      <point x="255" y="500" type="line"/>
      <point x="365" y="388" type="line"/>
      <point x="272" y="334" type="line"/>
      <point x="225" y="488" type="line"/>
      <point x="219" y="488" type="line"/>
      <point x="170" y="334" type="line"/>
      <point x="86" y="388" type="line"/>
      <point x="190" y="500" type="line"/>
      <point x="188" y="505" type="line"/>
      <point x="40" y="480" type="line"/>
      <point x="40" y="569" type="line"/>
      <point x="188" y="541" type="line"/>
      <point x="190" y="546" type="line"/>
      <point x="86" y="659" type="line"/>
      <point x="170" y="712" type="line"/>
      <point x="219" y="558" type="line"/>
      <point x="225" y="558" type="line"/>
      <point x="272" y="712" type="line"/>
      <point x="365" y="659" type="line"/>
      <point x="255" y="546" type="line"/>
      <point x="257" y="541" type="line"/>
      <point x="405" y="569" type="line"/>
      <point x="405" y="480" type="line"/>
      <point x="257" y="505" type="line"/>
    </contour>
  </outline>
</glyph>
<glyph name="comma" format="2">
  <advance width="276"/>
  <unicode hex="002C"/>
  <outline>
    <contour>
      <point x="77" y="-151" type="line"/>
      <point x="131" y="-115"/>
      <point x="169" y="-54"/>
      <point x="175" y="10" type="curve"/>
      <point x="165" y="-1"/>
      <point x="153" y="-11"/>
      <point x="128" y="-11" type="curve" smooth="yes"/>
      <point x="91" y="-11"/>
      <point x="60" y="22"/>
      <point x="60" y="63" type="curve" smooth="yes"/>
      <point x="60" y="103"/>
      <point x="91" y="137"/>
      <point x="136" y="137" type="curve" smooth="yes"/>
      <point x="181" y="137"/>
      <point x="216" y="102"/>
      <point x="216" y="37" type="curve" smooth="yes"/>
      <point x="216" y="-45"/>
      <point x="167" y="-125"/>
      <point x="91" y="-169" type="curve"/>
    </contour>
  </outline>
</glyph>
<glyph name="hyphen" format="2">
  <advance width="458"/>
  <unicode hex="002D"/>
  <outline>
    <contour>
      <point x="50" y="283" type="line"/>
      <point x="50" y="217" type="line"/>
      <point x="408" y="217" type="line"/>
      <point x="408" y="283" type="line"/>
    </contour>
  </outline>
</glyph>
<glyph name="period" format="2">
  <advance width="282"/>
  <unicode hex="002E"/>
  <outline>
    <contour>
      <point x="141" y="-11" type="curve" smooth="yes"/>
      <point x="102" y="-11"/>
      <point x="66" y="19"/>
      <point x="66" y="62" type="curve" smooth="yes"/>
      <point x="66" y="105"/>
      <point x="102" y="135"/>
      <point x="141" y="135" type="curve" smooth="yes"/>
      <point x="180" y="135"/>
      <point x="216" y="105"/>
      <point x="216" y="62" type="curve" smooth="yes"/>
      <point x="216" y="19"/>
      <point x="180" y="-11"/>
    </contour>
  </outline>
</glyph>
<glyph name="slash" format="2">
  <advance width="427"/>
  <unicode hex="002F"/>
  <outline>
    <contour>
      <point x="16" y="-146" type="line"/>
      <point x="93" y="-146" type="line"/>
      <point x="443" y="759" type="line"/>
      <point x="367" y="760" type="line"/>
    </contour>
  </outline>
</glyph>
<glyph name="zero" format="2">
  <advance width="704"/>
  <unicode hex="0030"/>
  <outline>
    <contour>
      <point x="352" y="720" type="curve" smooth="yes"/>
      <point x="504" y="720"/>
      <point x="639" y="591"/>
      <point x="639" y="355" type="curve" smooth="yes"/>
      <point x="639" y="118"/>
      <point x="504" y="-11"/>
      <point x="352" y="-11" type="curve" smooth="yes"/>
      <point x="200" y="-11"/>
      <point x="65" y="118"/>
      <point x="65" y="355" type="curve" smooth="yes"/>
      <point x="65" y="591"/>
      <point x="200" y="720"/>
    </contour>
    <contour>
      <point x="352" y="35" type="curve" smooth="yes"/>
      <point x="461" y="35"/>
      <point x="492" y="188"/>
      <point x="492" y="355" type="curve" smooth="yes"/>
      <point x="492" y="521"/>
      <point x="461" y="674"/>
      <point x="352" y="674" type="curve" smooth="yes"/>
      <point x="243" y="674"/>
      <point x="212" y="521"/>
      <point x="212" y="355" type="curve" smooth="yes"/>
      <point x="212" y="188"/>
      <point x="243" y="35"/>
    </contour>
  </outline>
</glyph>
<glyph name="one" format="2">
  <advance width="502"/>
  <unicode hex="0031"/>
  <outline>
    <contour>
      <point x="55" y="612" type="line"/>
      <point x="55" y="640" type="line"/>
      <point x="314" y="719" type="line"/>
      <point x="323" y="719" type="line"/>
      <point x="323" y="77" type="line" smooth="yes"/>
      <point x="323" y="29"/>
      <point x="363" y="29"/>
      <point x="460" y="27" type="curve"/>
      <point x="460" y="0" type="line"/>
      <point x="50" y="0" type="line"/>
      <point x="50" y="27" type="line"/>
      <point x="135" y="29"/>
      <point x="187" y="29"/>
      <point x="187" y="77" type="curve" smooth="yes"/>
      <point x="187" y="649" type="line"/>
      <point x="55" y="611" type="line"/>
    </contour>
  </outline>
</glyph>
<glyph name="two" format="2">
  <advance width="610"/>
  <unicode hex="0032"/>
  <outline>
    <contour>
      <point x="77" y="491" type="curve"/>
      <point x="46" y="496" type="line"/>
      <point x="84" y="653"/>
      <point x="188" y="720"/>
      <point x="308" y="720" type="curve" smooth="yes"/>
      <point x="442" y="720"/>
      <point x="537" y="636"/>
      <point x="537" y="515" type="curve" smooth="yes"/>
      <point x="537" y="391"/>
      <point x="438" y="309"/>
      <point x="311" y="215" type="curve" smooth="yes"/>
      <point x="141" y="89" type="line"/>
      <point x="425" y="89" type="line" smooth="yes"/>
      <point x="503" y="89"/>
      <point x="515" y="130"/>
      <point x="540" y="200" type="curve"/>
      <point x="566" y="200" type="line"/>
      <point x="523" y="0" type="line"/>
      <point x="40" y="0" type="line"/>
      <point x="40" y="48" type="line"/>
      <point x="239" y="238" type="line" smooth="yes"/>
      <point x="333" y="327"/>
      <point x="395" y="400"/>
      <point x="395" y="496" type="curve" smooth="yes"/>
      <point x="395" y="587"/>
      <point x="336" y="640"/>
      <point x="257" y="640" type="curve" smooth="yes"/>
      <point x="187" y="640"/>
      <point x="112" y="601"/>
    </contour>
  </outline>
</glyph>
<glyph name="three" format="2">
  <advance width="600"/>
  <unicode hex="0033"/>
  <outline>
    <contour>
      <point x="78" y="568" type="curve"/>
      <point x="53" y="584" type="line"/>
      <point x="94" y="654"/>
      <point x="168" y="720"/>
      <point x="285" y="720" type="curve" smooth="yes"/>
      <point x="388" y="720"/>
      <point x="484" y="666"/>
      <point x="484" y="559" type="curve" smooth="yes"/>
      <point x="484" y="420"/>
      <point x="279" y="377"/>
      <point x="223" y="381" type="curve"/>
      <point x="223" y="393" type="line"/>
      <point x="383" y="404"/>
      <point x="535" y="342"/>
      <point x="535" y="194" type="curve" smooth="yes"/>
      <point x="535" y="73"/>
      <point x="394" y="-11"/>
      <point x="262" y="-11" type="curve" smooth="yes"/>
      <point x="159" y="-11"/>
      <point x="84" y="21"/>
      <point x="43" y="51" type="curve"/>
      <point x="80" y="230" type="line"/>
      <point x="104" y="230" type="line"/>
      <point x="91" y="109"/>
      <point x="142" y="31"/>
      <point x="244" y="31" type="curve" smooth="yes"/>
      <point x="335" y="31"/>
      <point x="389" y="93"/>
      <point x="389" y="177" type="curve" smooth="yes"/>
      <point x="389" y="287"/>
      <point x="293" y="371"/>
      <point x="131" y="352" type="curve"/>
      <point x="128" y="379" type="line"/>
      <point x="242" y="415"/>
      <point x="351" y="454"/>
      <point x="351" y="555" type="curve" smooth="yes"/>
      <point x="351" y="611"/>
      <point x="312" y="659"/>
      <point x="240" y="659" type="curve" smooth="yes"/>
      <point x="185" y="659"/>
      <point x="132" y="633"/>
    </contour>
  </outline>
</glyph>
<glyph name="four" format="2">
  <advance width="643"/>
  <unicode hex="0034"/>
  <outline>
    <contour>
      <point x="30" y="182" type="line"/>
      <point x="30" y="239" type="line"/>
      <point x="407" y="705" type="line"/>
      <point x="470" y="705" type="line"/>
      <point x="470" y="262" type="line"/>
      <point x="585" y="262" type="line"/>
      <point x="585" y="182" type="line"/>
      <point x="470" y="182" type="line"/>
      <point x="470" y="77" type="line" smooth="yes"/>
      <point x="470" y="29"/>
      <point x="502" y="28"/>
      <point x="577" y="26" type="curve"/>
      <point x="577" y="0" type="line"/>
      <point x="238" y="0" type="line"/>
      <point x="238" y="26" type="line"/>
      <point x="303" y="28"/>
      <point x="345" y="29"/>
      <point x="345" y="77" type="curve" smooth="yes"/>
      <point x="345" y="182" type="line"/>
    </contour>
    <contour>
      <point x="97" y="262" type="line"/>
      <point x="345" y="262" type="line"/>
      <point x="345" y="562" type="line"/>
    </contour>
  </outline>
</glyph>
<glyph name="five" format="2">
  <advance width="591"/>
  <unicode hex="0035"/>
  <outline>
    <contour>
      <point x="76" y="235" type="line"/>
      <point x="40" y="62" type="line"/>
      <point x="99" y="24"/>
      <point x="183" y="-11"/>
      <point x="261" y="-11" type="curve" smooth="yes"/>
      <point x="458" y="-11"/>
      <point x="551" y="113"/>
      <point x="551" y="238" type="curve" smooth="yes"/>
      <point x="551" y="362"/>
      <point x="460" y="457"/>
      <point x="313" y="457" type="curve" smooth="yes"/>
      <point x="229" y="457"/>
      <point x="150" y="422"/>
      <point x="91" y="353" type="curve"/>
      <point x="109" y="342" type="line"/>
      <point x="151" y="600" type="line"/>
      <point x="495" y="600" type="line"/>
      <point x="495" y="705" type="line"/>
      <point x="122" y="705" type="line"/>
      <point x="65" y="329" type="line"/>
      <point x="96" y="315" type="line"/>
      <point x="158" y="370"/>
      <point x="210" y="387"/>
      <point x="255" y="387" type="curve" smooth="yes"/>
      <point x="350" y="387"/>
      <point x="412" y="327"/>
      <point x="412" y="219" type="curve" smooth="yes"/>
      <point x="412" y="125"/>
      <point x="370" y="23"/>
      <point x="253" y="23" type="curve" smooth="yes"/>
      <point x="194" y="23"/>
      <point x="99" y="72"/>
      <point x="104" y="232" type="curve"/>
    </contour>
  </outline>
</glyph>
<glyph name="six" format="2">
  <advance width="602"/>
  <unicode hex="0036"/>
  <outline>
    <contour>
      <point x="494" y="679" type="curve"/>
      <point x="483" y="717" type="line"/>
      <point x="215" y="675"/>
      <point x="36" y="514"/>
      <point x="36" y="302" type="curve" smooth="yes"/>
      <point x="36" y="117"/>
      <point x="153" y="-11"/>
      <point x="306" y="-11" type="curve" smooth="yes"/>
      <point x="462" y="-11"/>
      <point x="572" y="99"/>
      <point x="572" y="236" type="curve" smooth="yes"/>
      <point x="572" y="366"/>
      <point x="466" y="452"/>
      <point x="350" y="453" type="curve" smooth="yes"/>
      <point x="280" y="453"/>
      <point x="167" y="421"/>
      <point x="125" y="311" type="curve"/>
      <point x="127" y="264" type="line"/>
      <point x="173" y="359"/>
      <point x="250" y="395"/>
      <point x="304" y="395" type="curve" smooth="yes"/>
      <point x="397" y="394"/>
      <point x="443" y="301"/>
      <point x="443" y="212" type="curve" smooth="yes"/>
      <point x="443" y="113"/>
      <point x="417" y="21"/>
      <point x="315" y="27" type="curve" smooth="yes"/>
      <point x="211" y="33"/>
      <point x="171" y="185"/>
      <point x="171" y="339" type="curve" smooth="yes"/>
      <point x="171" y="508"/>
      <point x="274" y="631"/>
    </contour>
  </outline>
</glyph>
<glyph name="seven" format="2">
  <advance width="590"/>
  <unicode hex="0037"/>
  <outline>
    <contour>
      <point x="42" y="705" type="line"/>
      <point x="42" y="597" type="line"/>
      <point x="453" y="598" type="line"/>
      <point x="463" y="637" type="line"/>
      <point x="215" y="353"/>
      <point x="174" y="173"/>
      <point x="173" y="0" type="curve"/>
      <point x="299" y="0" type="line"/>
      <point x="299" y="225"/>
      <point x="336" y="413"/>
      <point x="543" y="683" type="curve"/>
      <point x="534" y="705" type="line"/>
    </contour>
  </outline>
</glyph>
<glyph name="nine" format="2">
  <advance width="599"/>
  <unicode hex="0039"/>
  <outline>
    <contour>
      <point x="127" y="22" type="curve"/>
      <point x="138" y="-11" type="line"/>
      <point x="404" y="34"/>
      <point x="563" y="196"/>
      <point x="563" y="405" type="curve" smooth="yes"/>
      <point x="563" y="582"/>
      <point x="459" y="719"/>
      <point x="293" y="719" type="curve" smooth="yes"/>
      <point x="138" y="719"/>
      <point x="30" y="620"/>
      <point x="30" y="476" type="curve" smooth="yes"/>
      <point x="30" y="338"/>
      <point x="134" y="253"/>
      <point x="255" y="253" type="curve" smooth="yes"/>
      <point x="331" y="253"/>
      <point x="432" y="288"/>
      <point x="473" y="399" type="curve"/>
      <point x="470" y="446" type="line"/>
      <point x="425" y="340"/>
      <point x="361" y="313"/>
      <point x="307" y="313" type="curve" smooth="yes"/>
      <point x="206" y="313"/>
      <point x="154" y="416"/>
      <point x="154" y="509" type="curve" smooth="yes"/>
      <point x="154" y="610"/>
      <point x="204" y="681"/>
      <point x="278" y="681" type="curve" smooth="yes"/>
      <point x="385" y="681"/>
      <point x="427" y="573"/>
      <point x="427" y="412" type="curve" smooth="yes"/>
      <point x="427" y="207"/>
      <point x="343" y="74"/>
    </contour>
  </outline>
</glyph>
<glyph name="greater" format="2">
  <advance width="555"/>
  <unicode hex="003E"/>
  <outline>
    <contour>
      <point x="509" y="330" type="line"/>
      <point x="40" y="548" type="line"/>
      <point x="40" y="481" type="line"/>
      <point x="389" y="321" type="line"/>
      <point x="40" y="160" type="line"/>
      <point x="40" y="93" type="line"/>
      <point x="509" y="312" type="line"/>
    </contour>
  </outline>
</glyph>
<glyph name="question" format="2">
  <advance width="549"/>
  <unicode hex="003F"/>
  <outline>
    <contour>
      <point x="108" y="473" type="line"/>
      <point x="60" y="656" type="line"/>
      <point x="121" y="696"/>
      <point x="184" y="726"/>
      <point x="272" y="726" type="curve" smooth="yes"/>
      <point x="361" y="726"/>
      <point x="499" y="676"/>
      <point x="499" y="558" type="curve" smooth="yes"/>
      <point x="499" y="436"/>
      <point x="378" y="380"/>
      <point x="317" y="335" type="curve" smooth="yes"/>
      <point x="262" y="294"/>
      <point x="246" y="265"/>
      <point x="246" y="220" type="curve" smooth="yes"/>
      <point x="246" y="209"/>
      <point x="247" y="197"/>
      <point x="250" y="184" type="curve"/>
      <point x="217" y="184" type="line"/>
      <point x="206" y="217"/>
      <point x="202" y="238"/>
      <point x="202" y="259" type="curve" smooth="yes"/>
      <point x="202" y="311"/>
      <point x="221" y="347"/>
      <point x="279" y="406" type="curve" smooth="yes"/>
      <point x="344" y="473"/>
      <point x="359" y="513"/>
      <point x="359" y="571" type="curve" smooth="yes"/>
      <point x="359" y="652"/>
      <point x="321" y="689"/>
      <point x="262" y="689" type="curve" smooth="yes"/>
      <point x="171" y="689"/>
      <point x="140" y="609"/>
      <point x="132" y="473" type="curve"/>
    </contour>
    <component base="period" xOffset="100"/>
  </outline>
</glyph>
<glyph name="at" format="2">
  <advance width="815"/>
  <unicode hex="0040"/>
  <outline>
    <contour>
      <point x="470" y="237" type="line"/>
      <point x="421" y="177"/>
      <point x="393" y="144"/>
      <point x="376" y="144" type="curve" smooth="yes"/>
      <point x="350" y="144"/>
      <point x="327" y="182"/>
      <point x="327" y="243" type="curve" smooth="yes"/>
      <point x="327" y="339"/>
      <point x="367" y="387"/>
      <point x="414" y="387" type="curve" smooth="yes"/>
      <point x="440" y="387"/>
      <point x="461" y="374"/>
      <point x="482" y="352" type="curve"/>
      <point x="450" y="156" type="line" smooth="yes"/>
      <point x="442" y="105"/>
      <point x="464" y="62"/>
      <point x="538" y="62" type="curve" smooth="yes"/>
      <point x="615" y="62"/>
      <point x="765" y="116"/>
      <point x="765" y="299" type="curve" smooth="yes"/>
      <point x="765" y="465"/>
      <point x="626" y="594"/>
      <point x="425" y="593" type="curve" smooth="yes"/>
      <point x="225" y="592"/>
      <point x="53" y="450"/>
      <point x="53" y="242" type="curve" smooth="yes"/>
      <point x="53" y="35"/>
      <point x="214" y="-93"/>
      <point x="423" y="-93" type="curve" smooth="yes"/>
      <point x="526" y="-93"/>
      <point x="590" y="-68"/>
      <point x="648" y="-28" type="curve"/>
      <point x="628" y="10" type="line"/>
      <point x="574" y="-18"/>
      <point x="526" y="-31"/>
      <point x="445" y="-31" type="curve" smooth="yes"/>
      <point x="268" y="-31"/>
      <point x="148" y="80"/>
      <point x="148" y="251" type="curve" smooth="yes"/>
      <point x="148" y="385"/>
      <point x="234" y="540"/>
      <point x="415" y="541" type="curve" smooth="yes"/>
      <point x="578" y="542"/>
      <point x="676" y="427"/>
      <point x="676" y="294" type="curve" smooth="yes"/>
      <point x="676" y="175"/>
      <point x="603" y="116"/>
      <point x="552" y="116" type="curve" smooth="yes"/>
      <point x="522" y="116"/>
      <point x="524" y="138"/>
      <point x="529" y="172" type="curve" smooth="yes"/>
      <point x="569" y="436" type="line"/>
      <point x="532" y="436" type="line"/>
      <point x="511" y="410" type="line"/>
      <point x="497" y="416"/>
      <point x="466" y="430"/>
      <point x="436" y="430" type="curve" smooth="yes"/>
      <point x="336" y="430"/>
      <point x="237" y="336"/>
      <point x="237" y="221" type="curve" smooth="yes"/>
      <point x="237" y="145"/>
      <point x="289" y="78"/>
      <point x="351" y="78" type="curve" smooth="yes"/>
      <point x="382" y="78"/>
      <point x="440" y="143"/>
      <point x="468" y="184" type="curve"/>
    </contour>
  </outline>
</glyph>
<glyph name="A" format="2">
  <advance width="780"/>
  <unicode hex="0041"/>
  <anchor x="390" y="0" name="bottom"/>
  <anchor x="680" y="0" name="ogonek"/>
  <anchor x="376" y="720" name="top"/>
  <outline>
    <contour>
      <point x="179" y="308" type="line"/>
      <point x="179" y="266" type="line"/>
      <point x="529" y="266" type="line"/>
      <point x="529" y="308" type="line"/>
    </contour>
    <contour>
      <point x="318" y="634" type="curve" smooth="yes"/>
      <point x="547" y="79" type="line" smooth="yes"/>
      <point x="551" y="69"/>
      <point x="554" y="60"/>
      <point x="554" y="54" type="curve" smooth="yes"/>
      <point x="554" y="31"/>
      <point x="525" y="27"/>
      <point x="443" y="27" type="curve"/>
      <point x="443" y="0" type="line"/>
      <point x="811" y="0" type="line"/>
      <point x="811" y="27" type="line"/>
      <point x="769" y="29"/>
      <point x="722" y="29"/>
      <point x="706" y="68" type="curve" smooth="yes"/>
      <point x="443" y="705" type="line"/>
      <point x="180" y="705" type="line"/>
      <point x="180" y="677" type="line"/>
      <point x="287" y="677"/>
      <point x="300" y="677"/>
    </contour>
    <contour>
      <point x="317" y="665" type="line"/>
      <point x="80" y="92" type="line" smooth="yes"/>
      <point x="59" y="41"/>
      <point x="20" y="29"/>
      <point x="-45" y="27" type="curve"/>
      <point x="-45" y="0" type="line"/>
      <point x="218" y="0" type="line"/>
      <point x="218" y="27" type="line"/>
      <point x="162" y="29"/>
      <point x="118" y="26"/>
      <point x="118" y="54" type="curve" smooth="yes"/>
      <point x="118" y="58"/>
      <point x="119" y="64"/>
      <point x="122" y="71" type="curve" smooth="yes"/>
      <point x="354" y="635" type="line"/>
    </contour>
  </outline>
</glyph>
<glyph name="B" format="2">
  <advance width="713"/>
  <unicode hex="0042"/>
  <outline>
    <contour>
      <point x="25" y="0" type="line"/>
      <point x="417" y="0" type="line" smooth="yes"/>
      <point x="575" y="0"/>
      <point x="663" y="84"/>
      <point x="663" y="186" type="curve" smooth="yes"/>
      <point x="663" y="318"/>
      <point x="549" y="373"/>
      <point x="455" y="383" type="curve"/>
      <point x="539" y="391"/>
      <point x="626" y="436"/>
      <point x="626" y="545" type="curve" smooth="yes"/>
      <point x="626" y="661"/>
      <point x="513" y="705"/>
      <point x="400" y="705" type="curve" smooth="yes"/>
      <point x="25" y="705" type="line"/>
      <point x="25" y="678" type="line"/>
      <point x="100" y="675"/>
      <point x="129" y="681"/>
      <point x="129" y="638" type="curve" smooth="yes"/>
      <point x="129" y="68" type="line" smooth="yes"/>
      <point x="129" y="25"/>
      <point x="100" y="30"/>
      <point x="25" y="27" type="curve"/>
    </contour>
    <contour>
      <point x="272" y="32" type="line"/>
      <point x="272" y="363" type="line"/>
      <point x="341" y="363" type="line" smooth="yes"/>
      <point x="466" y="363"/>
      <point x="512" y="280"/>
      <point x="512" y="197" type="curve" smooth="yes"/>
      <point x="512" y="113"/>
      <point x="454" y="32"/>
      <point x="356" y="32" type="curve" smooth="yes"/>
    </contour>
    <contour>
      <point x="272" y="396" type="line"/>
      <point x="272" y="673" type="line"/>
      <point x="341" y="673" type="line" smooth="yes"/>
      <point x="447" y="673"/>
      <point x="490" y="622"/>
      <point x="490" y="540" type="curve" smooth="yes"/>
      <point x="490" y="434"/>
      <point x="413" y="396"/>
      <point x="341" y="396" type="curve" smooth="yes"/>
    </contour>
  </outline>
</glyph>
<glyph name="C" format="2">
  <advance width="736"/>
  <unicode hex="0043"/>
  <anchor x="388" y="0" name="bottom"/>
  <anchor x="410" y="721" name="top"/>
  <outline>
    <contour>
      <point x="673" y="654" type="line"/>
      <point x="599" y="694"/>
      <point x="528" y="720"/>
      <point x="430" y="720" type="curve" smooth="yes"/>
      <point x="185" y="720"/>
      <point x="50" y="557"/>
      <point x="50" y="350" type="curve" smooth="yes"/>
      <point x="50" y="147"/>
      <point x="194" y="-11"/>
      <point x="395" y="-11" type="curve" smooth="yes"/>
      <point x="590" y="-11"/>
      <point x="669" y="129"/>
      <point x="696" y="250" type="curve"/>
      <point x="667" y="250" type="line"/>
      <point x="627" y="142"/>
      <point x="560" y="74"/>
      <point x="456" y="74" type="curve" smooth="yes"/>
      <point x="313" y="74"/>
      <point x="207" y="199"/>
      <point x="207" y="395" type="curve" smooth="yes"/>
      <point x="207" y="579"/>
      <point x="288" y="685"/>
      <point x="419" y="685" type="curve" smooth="yes"/>
      <point x="543" y="685"/>
      <point x="618" y="590"/>
      <point x="644" y="474" type="curve"/>
      <point x="671" y="474" type="line"/>
    </contour>
  </outline>
</glyph>
<glyph name="D" format="2">
  <advance width="797"/>
  <unicode hex="0044"/>
  <anchor x="399" y="0" name="bottom"/>
  <anchor x="399" y="353" name="center"/>
  <anchor x="369" y="721" name="top"/>
  <outline>
    <contour>
      <point x="25" y="0" type="line"/>
      <point x="321" y="0" type="line" smooth="yes"/>
      <point x="599" y="0"/>
      <point x="747" y="154"/>
      <point x="747" y="359" type="curve" smooth="yes"/>
      <point x="747" y="580"/>
      <point x="568" y="705"/>
      <point x="370" y="705" type="curve" smooth="yes"/>
      <point x="25" y="705" type="line"/>
      <point x="25" y="678" type="line"/>
      <point x="100" y="675"/>
      <point x="127" y="680"/>
      <point x="127" y="637" type="curve" smooth="yes"/>
      <point x="127" y="68" type="line" smooth="yes"/>
      <point x="127" y="25"/>
      <point x="100" y="30"/>
      <point x="25" y="27" type="curve"/>
    </contour>
    <contour>
      <point x="270" y="42" type="line"/>
      <point x="270" y="667" type="line"/>
      <point x="328" y="667" type="line" smooth="yes"/>
      <point x="482" y="667"/>
      <point x="595" y="558"/>
      <point x="595" y="369" type="curve" smooth="yes"/>
      <point x="595" y="174"/>
      <point x="482" y="42"/>
      <point x="328" y="42" type="curve" smooth="yes"/>
    </contour>
  </outline>
</glyph>
<glyph name="E" format="2">
  <advance width="742"/>
  <unicode hex="0045"/>
  <anchor x="371" y="0" name="bottom"/>
  <anchor x="556" y="0" name="ogonek"/>
  <anchor x="371" y="705" name="top"/>
  <anchor x="20" y="705" name="topleft"/>
  <outline>
    <contour>
      <point x="25" y="0" type="line"/>
      <point x="647" y="0" type="line"/>
      <point x="692" y="229" type="line"/>
      <point x="667" y="229" type="line"/>
      <point x="641" y="125"/>
      <point x="594" y="37"/>
      <point x="475" y="37" type="curve" smooth="yes"/>
      <point x="270" y="37" type="line"/>
      <point x="270" y="338" type="line"/>
      <point x="439" y="338" type="line" smooth="yes"/>
      <point x="488" y="338"/>
      <point x="538" y="309"/>
      <point x="540" y="222" type="curve"/>
      <point x="567" y="222" type="line"/>
      <point x="567" y="489" type="line"/>
      <point x="540" y="489" type="line"/>
      <point x="538" y="401"/>
      <point x="488" y="376"/>
      <point x="439" y="376" type="curve" smooth="yes"/>
      <point x="270" y="376" type="line"/>
      <point x="270" y="669" type="line"/>
      <point x="444" y="669" type="line" smooth="yes"/>
      <point x="524" y="669"/>
      <point x="610" y="638"/>
      <point x="636" y="472" type="curve"/>
      <point x="664" y="472" type="line"/>
      <point x="634" y="705" type="line"/>
      <point x="25" y="705" type="line"/>
      <point x="25" y="678" type="line"/>
      <point x="100" y="675"/>
      <point x="127" y="680"/>
      <point x="127" y="637" type="curve" smooth="yes"/>
      <point x="127" y="68" type="line" smooth="yes"/>
      <point x="127" y="25"/>
      <point x="100" y="30"/>
      <point x="25" y="27" type="curve"/>
    </contour>
  </outline>
</glyph>
<glyph name="F" format="2">
  <advance width="703"/>
  <unicode hex="0046"/>
  <outline>
    <contour>
      <point x="127" y="88" type="curve" smooth="yes"/>
      <point x="127" y="637" type="line" smooth="yes"/>
      <point x="127" y="680"/>
      <point x="100" y="675"/>
      <point x="25" y="678" type="curve"/>
      <point x="25" y="705" type="line"/>
      <point x="634" y="705" type="line"/>
      <point x="663" y="457" type="line"/>
      <point x="635" y="457" type="line"/>
      <point x="612" y="637"/>
      <point x="524" y="669"/>
      <point x="444" y="669" type="curve" smooth="yes"/>
      <point x="270" y="669" type="line"/>
      <point x="270" y="366" type="line"/>
      <point x="431" y="366" type="line" smooth="yes"/>
      <point x="480" y="366"/>
      <point x="528" y="391"/>
      <point x="530" y="472" type="curve"/>
      <point x="557" y="472" type="line"/>
      <point x="557" y="220" type="line"/>
      <point x="530" y="220" type="line"/>
      <point x="528" y="299"/>
      <point x="480" y="328"/>
      <point x="431" y="328" type="curve" smooth="yes"/>
      <point x="270" y="328" type="line"/>
      <point x="270" y="88" type="line" smooth="yes"/>
      <point x="269" y="25"/>
      <point x="296" y="30"/>
      <point x="405" y="27" type="curve"/>
      <point x="405" y="0" type="line"/>
      <point x="25" y="0" type="line"/>
      <point x="25" y="27" type="line"/>
      <point x="100" y="30"/>
      <point x="127" y="25"/>
    </contour>
  </outline>
</glyph>
<glyph name="G" format="2">
  <advance width="787"/>
  <unicode hex="0047"/>
  <anchor x="398" y="0" name="bottom"/>
  <anchor x="418" y="705" name="top"/>
  <outline>
    <contour>
      <point x="385" y="-11" type="curve" smooth="yes"/>
      <point x="489" y="-11"/>
      <point x="552" y="31"/>
      <point x="609" y="111" type="curve"/>
      <point x="665" y="0" type="line"/>
      <point x="695" y="0" type="line"/>
      <point x="695" y="238" type="line" smooth="yes"/>
      <point x="695" y="281"/>
      <point x="696" y="284"/>
      <point x="757" y="284" type="curve"/>
      <point x="757" y="311" type="line"/>
      <point x="436" y="311" type="line"/>
      <point x="436" y="284" type="line"/>
      <point x="575" y="273" type="line"/>
      <point x="575" y="142" type="line"/>
      <point x="559" y="103"/>
      <point x="505" y="50"/>
      <point x="435" y="50" type="curve" smooth="yes"/>
      <point x="311" y="50"/>
      <point x="207" y="187"/>
      <point x="207" y="386" type="curve" smooth="yes"/>
      <point x="207" y="571"/>
      <point x="287" y="685"/>
      <point x="433" y="685" type="curve" smooth="yes"/>
      <point x="563" y="685"/>
      <point x="630" y="590"/>
      <point x="656" y="474" type="curve"/>
      <point x="683" y="474" type="line"/>
      <point x="685" y="654" type="line"/>
      <point x="611" y="694"/>
      <point x="542" y="720"/>
      <point x="440" y="720" type="curve" smooth="yes"/>
      <point x="185" y="720"/>
      <point x="50" y="550"/>
      <point x="50" y="344" type="curve" smooth="yes"/>
      <point x="50" y="141"/>
      <point x="194" y="-11"/>
    </contour>
  </outline>
</glyph>
<glyph name="H" format="2">
  <advance width="888"/>
  <unicode hex="0048"/>
  <outline>
    <contour>
      <point x="25" y="0" type="line"/>
      <point x="371" y="0" type="line"/>
      <point x="371" y="27" type="line"/>
      <point x="316" y="29"/>
      <point x="269" y="20"/>
      <point x="269" y="78" type="curve" smooth="yes"/>
      <point x="269" y="344" type="line"/>
      <point x="618" y="344" type="line"/>
      <point x="618" y="78" type="line" smooth="yes"/>
      <point x="618" y="20"/>
      <point x="571" y="29"/>
      <point x="516" y="27" type="curve"/>
      <point x="516" y="0" type="line"/>
      <point x="863" y="0" type="line"/>
      <point x="863" y="27" type="line"/>
      <point x="808" y="29"/>
      <point x="761" y="20"/>
      <point x="761" y="78" type="curve" smooth="yes"/>
      <point x="761" y="632" type="line" smooth="yes"/>
      <point x="761" y="686"/>
      <point x="808" y="676"/>
      <point x="863" y="678" type="curve"/>
      <point x="863" y="705" type="line"/>
      <point x="516" y="705" type="line"/>
      <point x="516" y="678" type="line"/>
      <point x="571" y="676"/>
      <point x="618" y="686"/>
      <point x="618" y="632" type="curve" smooth="yes"/>
      <point x="618" y="386" type="line"/>
      <point x="269" y="386" type="line"/>
      <point x="269" y="632" type="line" smooth="yes"/>
      <point x="269" y="686"/>
      <point x="316" y="676"/>
      <point x="371" y="678" type="curve"/>
      <point x="371" y="705" type="line"/>
      <point x="25" y="705" type="line"/>
      <point x="25" y="678" type="line"/>
      <point x="80" y="676"/>
      <point x="126" y="686"/>
      <point x="126" y="632" type="curve" smooth="yes"/>
      <point x="126" y="78" type="line" smooth="yes"/>
      <point x="126" y="20"/>
      <point x="80" y="29"/>
      <point x="25" y="27" type="curve"/>
    </contour>
  </outline>
</glyph>
<glyph name="I" format="2">
  <advance width="416"/>
  <unicode hex="0049"/>
  <anchor x="211" y="0" name="bottom"/>
  <anchor x="240" y="1" name="ogonek"/>
  <anchor x="211" y="705" name="top"/>
  <anchor x="26" y="705" name="topleft"/>
  <outline>
    <contour>
      <point x="279" y="632" type="line" smooth="yes"/>
      <point x="279" y="685"/>
      <point x="317" y="678"/>
      <point x="365" y="678" type="curve" smooth="yes"/>
      <point x="370" y="678"/>
      <point x="376" y="678"/>
      <point x="381" y="678" type="curve"/>
      <point x="381" y="705" type="line"/>
      <point x="35" y="705" type="line"/>
      <point x="35" y="678" type="line"/>
      <point x="51" y="677"/>
      <point x="65" y="678"/>
      <point x="79" y="678" type="curve" smooth="yes"/>
      <point x="112" y="678"/>
      <point x="136" y="674"/>
      <point x="136" y="632" type="curve" smooth="yes"/>
      <point x="136" y="78" type="line" smooth="yes"/>
      <point x="136" y="20"/>
      <point x="90" y="29"/>
      <point x="35" y="27" type="curve"/>
      <point x="35" y="0" type="line"/>
      <point x="381" y="0" type="line"/>
      <point x="381" y="27" type="line"/>
      <point x="326" y="29"/>
      <point x="279" y="20"/>
      <point x="279" y="78" type="curve" smooth="yes"/>
    </contour>
  </outline>
</glyph>
<glyph name="J" format="2">
  <advance width="439"/>
  <unicode hex="004A"/>
  <outline>
    <contour>
      <point x="6" y="-135" type="curve"/>
      <point x="12" y="-165" type="line"/>
      <point x="151" y="-150"/>
      <point x="307" y="-38"/>
      <point x="307" y="169" type="curve" smooth="yes"/>
      <point x="307" y="637" type="line" smooth="yes"/>
      <point x="307" y="685"/>
      <point x="354" y="676"/>
      <point x="409" y="678" type="curve"/>
      <point x="409" y="705" type="line"/>
      <point x="62" y="705" type="line"/>
      <point x="62" y="678" type="line"/>
      <point x="117" y="676"/>
      <point x="164" y="685"/>
      <point x="164" y="637" type="curve" smooth="yes"/>
      <point x="164" y="92" type="line" smooth="yes"/>
      <point x="164" y="14"/>
      <point x="144" y="-108"/>
    </contour>
  </outline>
</glyph>
<glyph name="K" format="2">
  <advance width="758"/>
  <unicode hex="004B"/>
  <anchor x="458" y="0" name="bottom"/>
  <anchor x="378" y="705" name="top"/>
  <outline>
    <contour>
      <point x="394" y="446" type="curve"/>
      <point x="307" y="358" type="line"/>
      <point x="393" y="239"/>
      <point x="480" y="119"/>
      <point x="566" y="0" type="curve"/>
      <point x="788" y="0" type="line"/>
      <point x="788" y="27" type="line"/>
      <point x="756" y="29" type="line" smooth="yes"/>
      <point x="739" y="30"/>
      <point x="697" y="35"/>
      <point x="662" y="82" type="curve" smooth="yes"/>
      <point x="573" y="203"/>
      <point x="483" y="325"/>
    </contour>
    <contour>
      <point x="270" y="73" type="curve" smooth="yes"/>
      <point x="270" y="637" type="line" smooth="yes"/>
      <point x="270" y="685"/>
      <point x="317" y="676"/>
      <point x="372" y="678" type="curve"/>
      <point x="372" y="705" type="line"/>
      <point x="25" y="705" type="line"/>
      <point x="25" y="678" type="line"/>
      <point x="80" y="676"/>
      <point x="127" y="685"/>
      <point x="127" y="637" type="curve" smooth="yes"/>
      <point x="127" y="73" type="line" smooth="yes"/>
      <point x="127" y="25"/>
      <point x="80" y="29"/>
      <point x="25" y="27" type="curve"/>
      <point x="25" y="0" type="line"/>
      <point x="372" y="0" type="line"/>
      <point x="372" y="27" type="line"/>
      <point x="317" y="29"/>
      <point x="270" y="25"/>
    </contour>
    <contour>
      <point x="264" y="288" type="line"/>
      <point x="625" y="629" type="line" smooth="yes"/>
      <point x="655" y="658"/>
      <point x="673" y="677"/>
      <point x="751" y="678" type="curve"/>
      <point x="751" y="705" type="line"/>
      <point x="465" y="705" type="line"/>
      <point x="465" y="678" type="line"/>
      <point x="536" y="677"/>
      <point x="571" y="682"/>
      <point x="571" y="652" type="curve" smooth="yes"/>
      <point x="571" y="634"/>
      <point x="554" y="622"/>
      <point x="503" y="574" type="curve" smooth="yes"/>
      <point x="250" y="334" type="line"/>
    </contour>
  </outline>
</glyph>
<glyph name="L" format="2">
  <advance width="682"/>
  <unicode hex="004C"/>
  <anchor x="352" y="0" name="bottom"/>
  <anchor x="342" y="353" name="center"/>
  <anchor x="201" y="705" name="top"/>
  <anchor x="662" y="705" name="topright"/>
  <outline>
    <contour>
      <point x="25" y="0" type="line"/>
      <point x="635" y="0" type="line"/>
      <point x="667" y="247" type="line"/>
      <point x="637" y="247" type="line"/>
      <point x="604" y="67"/>
      <point x="530" y="36"/>
      <point x="455" y="36" type="curve" smooth="yes"/>
      <point x="271" y="36" type="line"/>
      <point x="271" y="617" type="line" smooth="yes"/>
      <point x="270" y="680"/>
      <point x="297" y="675"/>
      <point x="402" y="678" type="curve"/>
      <point x="402" y="705" type="line"/>
      <point x="25" y="705" type="line"/>
      <point x="25" y="678" type="line"/>
      <point x="100" y="675"/>
      <point x="128" y="680"/>
      <point x="128" y="617" type="curve" smooth="yes"/>
      <point x="128" y="68" type="line" smooth="yes"/>
      <point x="128" y="25"/>
      <point x="100" y="30"/>
      <point x="25" y="27" type="curve"/>
    </contour>
  </outline>
</glyph>
<glyph name="M" format="2">
  <advance width="986"/>
  <unicode hex="004D"/>
  <outline>
    <contour>
      <point x="25" y="678" type="line"/>
      <point x="40" y="677"/>
      <point x="54" y="677"/>
      <point x="66" y="677" type="curve" smooth="yes"/>
      <point x="101" y="677"/>
      <point x="126" y="675"/>
      <point x="126" y="632" type="curve" smooth="yes"/>
      <point x="126" y="78" type="line" smooth="yes"/>
      <point x="126" y="24"/>
      <point x="80" y="29"/>
      <point x="25" y="27" type="curve"/>
      <point x="25" y="0" type="line"/>
      <point x="278" y="0" type="line"/>
      <point x="278" y="27" type="line"/>
      <point x="223" y="29"/>
      <point x="176" y="24"/>
      <point x="176" y="78" type="curve" smooth="yes"/>
      <point x="176" y="578" type="line"/>
      <point x="173" y="624" type="line"/>
      <point x="455" y="-2" type="line"/>
      <point x="485" y="-2" type="line"/>
      <point x="722" y="624" type="line"/>
      <point x="718" y="578" type="line"/>
      <point x="718" y="78" type="line" smooth="yes"/>
      <point x="718" y="24"/>
      <point x="671" y="29"/>
      <point x="616" y="27" type="curve"/>
      <point x="616" y="0" type="line"/>
      <point x="961" y="0" type="line"/>
      <point x="961" y="27" type="line"/>
      <point x="906" y="29"/>
      <point x="860" y="24"/>
      <point x="860" y="78" type="curve" smooth="yes"/>
      <point x="860" y="632" type="line" smooth="yes"/>
      <point x="860" y="681"/>
      <point x="892" y="677"/>
      <point x="935" y="677" type="curve" smooth="yes"/>
      <point x="944" y="677"/>
      <point x="952" y="677"/>
      <point x="961" y="678" type="curve"/>
      <point x="961" y="705" type="line"/>
      <point x="705" y="705" type="line"/>
      <point x="506" y="203" type="line"/>
      <point x="283" y="705" type="line"/>
      <point x="25" y="705" type="line"/>
    </contour>
  </outline>
</glyph>
<glyph name="N" format="2">
  <advance width="816"/>
  <unicode hex="004E"/>
  <anchor x="408" y="0" name="bottom"/>
  <anchor x="408" y="705" name="top"/>
  <outline>
    <contour>
      <point x="186" y="78" type="curve" smooth="yes"/>
      <point x="186" y="559" type="line"/>
      <point x="627" y="0" type="line"/>
      <point x="692" y="0" type="line"/>
      <point x="692" y="625" type="line"/>
      <point x="692" y="675"/>
      <point x="732" y="678"/>
      <point x="796" y="678" type="curve"/>
      <point x="796" y="705" type="line"/>
      <point x="540" y="705" type="line"/>
      <point x="540" y="678" type="line"/>
      <point x="625" y="676"/>
      <point x="642" y="675"/>
      <point x="642" y="625" type="curve"/>
      <point x="642" y="206" type="line"/>
      <point x="244" y="705" type="line"/>
      <point x="25" y="705" type="line"/>
      <point x="25" y="678" type="line"/>
      <point x="94" y="676"/>
      <point x="100" y="676"/>
      <point x="136" y="633" type="curve"/>
      <point x="136" y="78" type="line" smooth="yes"/>
      <point x="136" y="30"/>
      <point x="88" y="29"/>
      <point x="25" y="27" type="curve"/>
      <point x="25" y="0" type="line"/>
      <point x="288" y="0" type="line"/>
      <point x="288" y="27" type="line"/>
      <point x="213" y="29"/>
      <point x="186" y="30"/>
    </contour>
  </outline>
</glyph>
<glyph name="O" format="2">
  <advance width="844"/>
  <unicode hex="004F"/>
  <anchor x="422" y="0" name="bottom"/>
  <anchor x="422" y="353" name="center"/>
  <anchor x="760" y="10" name="ogonek"/>
  <anchor x="422" y="705" name="top"/>
  <anchor x="20" y="705" name="topleft"/>
  <anchor x="824" y="705" name="topright"/>
  <outline>
    <contour>
      <point x="422" y="-11" type="curve" smooth="yes"/>
      <point x="620" y="-11"/>
      <point x="794" y="150"/>
      <point x="794" y="354" type="curve" smooth="yes"/>
      <point x="794" y="568"/>
      <point x="622" y="720"/>
      <point x="422" y="720" type="curve" smooth="yes"/>
      <point x="205" y="720"/>
      <point x="50" y="565"/>
      <point x="50" y="354" type="curve" smooth="yes"/>
      <point x="50" y="154"/>
      <point x="200" y="-11"/>
    </contour>
    <contour>
      <point x="422" y="681" type="curve" smooth="yes"/>
      <point x="550" y="681"/>
      <point x="634" y="552"/>
      <point x="634" y="354" type="curve" smooth="yes"/>
      <point x="634" y="180"/>
      <point x="550" y="31"/>
      <point x="422" y="31" type="curve" smooth="yes"/>
      <point x="294" y="31"/>
      <point x="210" y="180"/>
      <point x="210" y="354" type="curve" smooth="yes"/>
      <point x="210" y="552"/>
      <point x="294" y="681"/>
    </contour>
  </outline>
</glyph>
<glyph name="P" format="2">
  <advance width="673"/>
  <unicode hex="0050"/>
  <outline>
    <contour>
      <point x="20" y="678" type="line"/>
      <point x="118" y="678"/>
      <point x="122" y="680"/>
      <point x="122" y="627" type="curve" smooth="yes"/>
      <point x="122" y="68" type="line" smooth="yes"/>
      <point x="122" y="20"/>
      <point x="80" y="29"/>
      <point x="20" y="27" type="curve"/>
      <point x="20" y="0" type="line"/>
      <point x="400" y="0" type="line"/>
      <point x="400" y="27" type="line"/>
      <point x="299" y="29"/>
      <point x="265" y="20"/>
      <point x="265" y="71" type="curve" smooth="yes"/>
      <point x="265" y="293" type="line"/>
      <point x="335" y="293" type="line" smooth="yes"/>
      <point x="529" y="293"/>
      <point x="633" y="392"/>
      <point x="633" y="518" type="curve" smooth="yes"/>
      <point x="633" y="644"/>
      <point x="527" y="705"/>
      <point x="376" y="705" type="curve" smooth="yes"/>
      <point x="20" y="705" type="line"/>
    </contour>
    <contour>
      <point x="265" y="335" type="line"/>
      <point x="265" y="671" type="line"/>
      <point x="323" y="671" type="line" smooth="yes"/>
      <point x="442" y="671"/>
      <point x="504" y="613"/>
      <point x="504" y="508" type="curve" smooth="yes"/>
      <point x="504" y="398"/>
      <point x="436" y="335"/>
      <point x="333" y="335" type="curve" smooth="yes"/>
    </contour>
  </outline>
</glyph>
<glyph name="Q" format="2">
  <advance width="830"/>
  <unicode hex="0051"/>
  <outline>
    <contour>
      <point x="771" y="-137" type="curve"/>
      <point x="771" y="-109" type="line"/>
      <point x="607" y="-111"/>
      <point x="527" y="-61"/>
      <point x="489" y="13" type="curve"/>
      <point x="347" y="4" type="line"/>
      <point x="407" y="-80"/>
      <point x="493" y="-138"/>
      <point x="717" y="-138" type="curve" smooth="yes"/>
      <point x="734" y="-138"/>
      <point x="752" y="-138"/>
    </contour>
    <component base="O"/>
  </outline>
</glyph>
<glyph name="R" format="2">
  <advance width="739"/>
  <unicode hex="0052"/>
  <anchor x="365" y="0" name="bottom"/>
  <anchor x="365" y="705" name="top"/>
  <outline>
    <contour>
      <point x="719" y="28" type="line" smooth="yes"/>
      <point x="621" y="39"/>
      <point x="515" y="252"/>
      <point x="473" y="337" type="curve"/>
      <point x="332" y="329" type="line"/>
      <point x="429" y="152"/>
      <point x="472" y="0"/>
      <point x="634" y="0" type="curve" smooth="yes"/>
      <point x="739" y="0" type="line"/>
      <point x="739" y="26" type="line"/>
    </contour>
    <contour>
      <point x="25" y="678" type="line"/>
      <point x="123" y="678"/>
      <point x="127" y="680"/>
      <point x="127" y="627" type="curve" smooth="yes"/>
      <point x="127" y="68" type="line" smooth="yes"/>
      <point x="127" y="20"/>
      <point x="85" y="29"/>
      <point x="25" y="27" type="curve"/>
      <point x="25" y="0" type="line"/>
      <point x="372" y="0" type="line"/>
      <point x="372" y="27" type="line"/>
      <point x="316" y="29"/>
      <point x="270" y="20"/>
      <point x="270" y="68" type="curve" smooth="yes"/>
      <point x="270" y="319" type="line"/>
      <point x="340" y="319" type="line" smooth="yes"/>
      <point x="534" y="319"/>
      <point x="640" y="418"/>
      <point x="640" y="531" type="curve" smooth="yes"/>
      <point x="640" y="649"/>
      <point x="533" y="705"/>
      <point x="372" y="705" type="curve" smooth="yes"/>
      <point x="25" y="705" type="line"/>
    </contour>
    <contour>
      <point x="270" y="351" type="line"/>
      <point x="270" y="671" type="line"/>
      <point x="328" y="671" type="line" smooth="yes"/>
      <point x="434" y="671"/>
      <point x="500" y="615"/>
      <point x="500" y="506" type="curve" smooth="yes"/>
      <point x="500" y="426"/>
      <point x="434" y="351"/>
      <point x="338" y="351" type="curve" smooth="yes"/>
    </contour>
  </outline>
</glyph>
<glyph name="S" format="2">
  <advance width="623"/>
  <unicode hex="0053"/>
  <anchor x="312" y="0" name="bottom"/>
  <anchor x="312" y="705" name="top"/>
  <outline>
    <contour>
      <point x="545" y="656" type="line"/>
      <point x="531" y="667"/>
      <point x="422" y="720"/>
      <point x="310" y="720" type="curve" smooth="yes"/>
      <point x="180" y="720"/>
      <point x="42" y="663"/>
      <point x="42" y="528" type="curve" smooth="yes"/>
      <point x="42" y="458"/>
      <point x="73" y="373"/>
      <point x="188" y="330" type="curve" smooth="yes"/>
      <point x="366" y="263" type="line" smooth="yes"/>
      <point x="430" y="239"/>
      <point x="465" y="200"/>
      <point x="465" y="153" type="curve" smooth="yes"/>
      <point x="465" y="100"/>
      <point x="420" y="30"/>
      <point x="309" y="30" type="curve" smooth="yes"/>
      <point x="165" y="30"/>
      <point x="97" y="111"/>
      <point x="104" y="272" type="curve"/>
      <point x="77" y="272" type="line"/>
      <point x="47" y="78" type="line"/>
      <point x="79" y="54"/>
      <point x="163" y="-11"/>
      <point x="294" y="-11" type="curve" smooth="yes"/>
      <point x="488" y="-11"/>
      <point x="581" y="98"/>
      <point x="581" y="214" type="curve" smooth="yes"/>
      <point x="581" y="294"/>
      <point x="544" y="347"/>
      <point x="453" y="381" type="curve" smooth="yes"/>
      <point x="286" y="444" type="line" smooth="yes"/>
      <point x="209" y="473"/>
      <point x="171" y="509"/>
      <point x="171" y="578" type="curve" smooth="yes"/>
      <point x="171" y="639"/>
      <point x="226" y="682"/>
      <point x="306" y="682" type="curve" smooth="yes"/>
      <point x="424" y="682"/>
      <point x="492" y="592"/>
      <point x="490" y="460" type="curve"/>
      <point x="516" y="460" type="line"/>
    </contour>
  </outline>
</glyph>
<glyph name="T" format="2">
  <advance width="699"/>
  <unicode hex="0054"/>
  <anchor x="349" y="0" name="bottom"/>
  <anchor x="349" y="353" name="center"/>
  <anchor x="349" y="705" name="top"/>
  <outline>
    <contour>
      <point x="6" y="448" type="line"/>
      <point x="39" y="448" type="line"/>
      <point x="72" y="638"/>
      <point x="121" y="669"/>
      <point x="197" y="669" type="curve" smooth="yes"/>
      <point x="276" y="669" type="line"/>
      <point x="276" y="78" type="line" smooth="yes"/>
      <point x="276" y="20"/>
      <point x="230" y="29"/>
      <point x="155" y="27" type="curve"/>
      <point x="155" y="0" type="line"/>
      <point x="540" y="0" type="line"/>
      <point x="540" y="27" type="line"/>
      <point x="465" y="29"/>
      <point x="419" y="20"/>
      <point x="419" y="78" type="curve" smooth="yes"/>
      <point x="419" y="669" type="line"/>
      <point x="498" y="669" type="line" smooth="yes"/>
      <point x="575" y="669"/>
      <point x="629" y="638"/>
      <point x="660" y="448" type="curve"/>
      <point x="693" y="448" type="line"/>
      <point x="661" y="705" type="line"/>
      <point x="38" y="705" type="line"/>
    </contour>
  </outline>
</glyph>
<glyph name="U" format="2">
  <advance width="794"/>
  <unicode hex="0055"/>
  <anchor x="392" y="0" name="bottom"/>
  <anchor x="552" y="32" name="ogonek"/>
  <anchor x="425" y="705" name="top"/>
  <anchor x="766" y="705" name="topright"/>
  <outline>
    <contour>
      <point x="-10" y="678" type="line"/>
      <point x="65" y="676"/>
      <point x="92" y="685"/>
      <point x="92" y="619" type="curve" smooth="yes"/>
      <point x="92" y="252" type="line" smooth="yes"/>
      <point x="92" y="62"/>
      <point x="219" y="-12"/>
      <point x="392" y="-11" type="curve" smooth="yes"/>
      <point x="577" y="-10"/>
      <point x="666" y="96"/>
      <point x="666" y="264" type="curve" smooth="yes"/>
      <point x="666" y="619" type="line" smooth="yes"/>
      <point x="666" y="685"/>
      <point x="703" y="676"/>
      <point x="778" y="678" type="curve"/>
      <point x="778" y="705" type="line"/>
      <point x="508" y="705" type="line"/>
      <point x="508" y="678" type="line"/>
      <point x="599" y="678"/>
      <point x="616" y="685"/>
      <point x="616" y="619" type="curve" smooth="yes"/>
      <point x="616" y="253" type="line" smooth="yes"/>
      <point x="616" y="109"/>
      <point x="547" y="35"/>
      <point x="418" y="35" type="curve" smooth="yes"/>
      <point x="320" y="35"/>
      <point x="235" y="95"/>
      <point x="235" y="249" type="curve" smooth="yes"/>
      <point x="235" y="619" type="line" smooth="yes"/>
      <point x="235" y="685"/>
      <point x="282" y="676"/>
      <point x="347" y="678" type="curve"/>
      <point x="347" y="705" type="line"/>
      <point x="-10" y="705" type="line"/>
    </contour>
  </outline>
</glyph>
<glyph name="V" format="2">
  <advance width="703"/>
  <unicode hex="0056"/>
  <outline>
    <contour>
      <point x="-59" y="678" type="curve"/>
      <point x="-59" y="705" type="line"/>
      <point x="316" y="705" type="line"/>
      <point x="316" y="678" type="line"/>
      <point x="239" y="677"/>
      <point x="208" y="677"/>
      <point x="208" y="652" type="curve" smooth="yes"/>
      <point x="208" y="643"/>
      <point x="212" y="631"/>
      <point x="219" y="614" type="curve" smooth="yes"/>
      <point x="411" y="164" type="line"/>
      <point x="586" y="608" type="line" smooth="yes"/>
      <point x="592" y="623"/>
      <point x="595" y="635"/>
      <point x="595" y="644" type="curve" smooth="yes"/>
      <point x="595" y="682"/>
      <point x="548" y="676"/>
      <point x="480" y="678" type="curve"/>
      <point x="480" y="705" type="line"/>
      <point x="754" y="705" type="line"/>
      <point x="754" y="678" type="line"/>
      <point x="670" y="676"/>
      <point x="652" y="664"/>
      <point x="636" y="622" type="curve" smooth="yes"/>
      <point x="398" y="0" type="line"/>
      <point x="333" y="0" type="line"/>
      <point x="63" y="615" type="line" smooth="yes"/>
      <point x="36" y="677"/>
      <point x="33" y="676"/>
    </contour>
  </outline>
</glyph>
<glyph name="W" format="2">
  <advance width="1072"/>
  <unicode hex="0057"/>
  <anchor x="536" y="0" name="bottom"/>
  <anchor x="556" y="705" name="top"/>
  <outline>
    <contour>
      <point x="547" y="537" type="line"/>
      <point x="529" y="616" type="line"/>
      <point x="371" y="159" type="line"/>
      <point x="213" y="628" type="line" smooth="yes"/>
      <point x="209" y="640"/>
      <point x="207" y="648"/>
      <point x="207" y="655" type="curve" smooth="yes"/>
      <point x="207" y="676"/>
      <point x="226" y="678"/>
      <point x="266" y="678" type="curve" smooth="yes"/>
      <point x="280" y="678"/>
      <point x="298" y="678"/>
      <point x="319" y="678" type="curve"/>
      <point x="319" y="705" type="line"/>
      <point x="-36" y="705" type="line"/>
      <point x="-36" y="678" type="line"/>
      <point x="46" y="676"/>
      <point x="53" y="677"/>
      <point x="68" y="633" type="curve" smooth="yes"/>
      <point x="285" y="0" type="line"/>
      <point x="375" y="0" type="line"/>
    </contour>
    <contour>
      <point x="488" y="649" type="curve" smooth="yes"/>
      <point x="709" y="0" type="line"/>
      <point x="799" y="0" type="line"/>
      <point x="995" y="644" type="line" smooth="yes"/>
      <point x="1003" y="669"/>
      <point x="1008" y="681"/>
      <point x="1092" y="678" type="curve"/>
      <point x="1092" y="705" type="line"/>
      <point x="843" y="705" type="line"/>
      <point x="843" y="678" type="line"/>
      <point x="919" y="677"/>
      <point x="946" y="682"/>
      <point x="946" y="655" type="curve" smooth="yes"/>
      <point x="946" y="645"/>
      <point x="943" y="632"/>
      <point x="937" y="613" type="curve" smooth="yes"/>
      <point x="796" y="159" type="line"/>
      <point x="625" y="649" type="line" smooth="yes"/>
      <point x="624" y="653"/>
      <point x="623" y="656"/>
      <point x="623" y="659" type="curve" smooth="yes"/>
      <point x="623" y="677"/>
      <point x="649" y="678"/>
      <point x="681" y="678" type="curve" smooth="yes"/>
      <point x="693" y="678"/>
      <point x="707" y="678"/>
      <point x="720" y="678" type="curve"/>
      <point x="720" y="705" type="line"/>
      <point x="383" y="705" type="line"/>
      <point x="383" y="678" type="line"/>
      <point x="466" y="677"/>
      <point x="480" y="673"/>
    </contour>
  </outline>
</glyph>
<glyph name="X" format="2">
  <advance width="776"/>
  <unicode hex="0058"/>
  <outline>
    <contour>
      <point x="-53" y="678" type="line"/>
      <point x="14" y="676"/>
      <point x="36" y="679"/>
      <point x="63" y="644" type="curve" smooth="yes"/>
      <point x="495" y="83" type="line" smooth="yes"/>
      <point x="505" y="70"/>
      <point x="511" y="59"/>
      <point x="511" y="52" type="curve" smooth="yes"/>
      <point x="511" y="29"/>
      <point x="465" y="29"/>
      <point x="382" y="27" type="curve"/>
      <point x="382" y="0" type="line"/>
      <point x="815" y="0" type="line"/>
      <point x="815" y="27" type="line"/>
      <point x="746" y="30"/>
      <point x="714" y="27"/>
      <point x="670" y="84" type="curve" smooth="yes"/>
      <point x="270" y="600" type="line" smooth="yes"/>
      <point x="254" y="621"/>
      <point x="245" y="637"/>
      <point x="245" y="648" type="curve" smooth="yes"/>
      <point x="245" y="671"/>
      <point x="282" y="677"/>
      <point x="370" y="678" type="curve"/>
      <point x="370" y="705" type="line"/>
      <point x="-53" y="705" type="line"/>
    </contour>
    <contour>
      <point x="-33" y="0" type="line"/>
      <point x="258" y="0" type="line"/>
      <point x="258" y="27" type="line"/>
      <point x="195" y="28"/>
      <point x="154" y="31"/>
      <point x="154" y="55" type="curve" smooth="yes"/>
      <point x="154" y="65"/>
      <point x="161" y="79"/>
      <point x="177" y="98" type="curve" smooth="yes"/>
      <point x="382" y="342" type="line"/>
      <point x="344" y="366" type="line"/>
      <point x="103" y="73" type="line" smooth="yes"/>
      <point x="74" y="37"/>
      <point x="58" y="30"/>
      <point x="-33" y="27" type="curve"/>
    </contour>
    <contour>
      <point x="370" y="381" type="line"/>
      <point x="409" y="358" type="line"/>
      <point x="623" y="630" type="line" smooth="yes"/>
      <point x="650" y="664"/>
      <point x="680" y="677"/>
      <point x="758" y="678" type="curve"/>
      <point x="758" y="705" type="line"/>
      <point x="487" y="705" type="line"/>
      <point x="487" y="678" type="line"/>
      <point x="547" y="677"/>
      <point x="581" y="675"/>
      <point x="581" y="654" type="curve" smooth="yes"/>
      <point x="581" y="644"/>
      <point x="572" y="628"/>
      <point x="553" y="605" type="curve" smooth="yes"/>
    </contour>
  </outline>
</glyph>
<glyph name="Y" format="2">
  <advance width="666"/>
  <unicode hex="0059"/>
  <anchor x="333" y="0" name="bottom"/>
  <anchor x="381" y="705" name="top"/>
  <anchor x="20" y="705" name="topleft"/>
  <outline>
    <contour>
      <point x="-49" y="678" type="line"/>
      <point x="0" y="678" type="line" smooth="yes"/>
      <point x="41" y="678"/>
      <point x="49" y="653"/>
      <point x="85" y="600" type="curve" smooth="yes"/>
      <point x="283" y="311" type="line"/>
      <point x="283" y="71" type="line" smooth="yes"/>
      <point x="283" y="23"/>
      <point x="246" y="29"/>
      <point x="181" y="27" type="curve"/>
      <point x="181" y="0" type="line"/>
      <point x="528" y="0" type="line"/>
      <point x="528" y="27" type="line"/>
      <point x="461" y="29"/>
      <point x="426" y="23"/>
      <point x="426" y="71" type="curve" smooth="yes"/>
      <point x="426" y="329" type="line"/>
      <point x="597" y="616" type="line" smooth="yes"/>
      <point x="620" y="654"/>
      <point x="625" y="678"/>
      <point x="671" y="678" type="curve" smooth="yes"/>
      <point x="722" y="678" type="line"/>
      <point x="722" y="705" type="line"/>
      <point x="457" y="705" type="line"/>
      <point x="457" y="678" type="line"/>
      <point x="527" y="678" type="line" smooth="yes"/>
      <point x="552" y="678"/>
      <point x="564" y="672"/>
      <point x="564" y="657" type="curve" smooth="yes"/>
      <point x="564" y="645"/>
      <point x="555" y="625"/>
      <point x="537" y="596" type="curve" smooth="yes"/>
      <point x="398" y="373" type="line"/>
      <point x="221" y="625" type="line" smooth="yes"/>
      <point x="211" y="639"/>
      <point x="207" y="650"/>
      <point x="207" y="658" type="curve" smooth="yes"/>
      <point x="207" y="672"/>
      <point x="221" y="678"/>
      <point x="249" y="678" type="curve" smooth="yes"/>
      <point x="314" y="678" type="line"/>
      <point x="314" y="705" type="line"/>
      <point x="-49" y="705" type="line"/>
    </contour>
  </outline>
</glyph>
<glyph name="Z" format="2">
  <advance width="707"/>
  <unicode hex="005A"/>
  <anchor x="354" y="0" name="bottom"/>
  <anchor x="354" y="353" name="center"/>
  <anchor x="354" y="705" name="top"/>
  <outline>
    <contour>
      <point x="34" y="19" type="line"/>
      <point x="483" y="665" type="line"/>
      <point x="229" y="665" type="line" smooth="yes"/>
      <point x="135" y="665"/>
      <point x="104" y="586"/>
      <point x="85" y="463" type="curve"/>
      <point x="53" y="463" type="line"/>
      <point x="75" y="705" type="line"/>
      <point x="75" y="706" type="line"/>
      <point x="662" y="705" type="line"/>
      <point x="673" y="690" type="line"/>
      <point x="223" y="42" type="line"/>
      <point x="488" y="42" type="line" smooth="yes"/>
      <point x="580" y="42"/>
      <point x="622" y="120"/>
      <point x="642" y="243" type="curve"/>
      <point x="675" y="243" type="line"/>
      <point x="645" y="0" type="line"/>
      <point x="45" y="0" type="line"/>
    </contour>
  </outline>
</glyph>
<glyph name="asciicircum" format="2">
  <advance width="413"/>
  <unicode hex="005E"/>
  <outline>
    <contour>
      <point x="219" y="705" type="line"/>
      <point x="193" y="705" type="line"/>
      <point x="48" y="444" type="line"/>
      <point x="107" y="444" type="line"/>
      <point x="206" y="626" type="line"/>
      <point x="306" y="444" type="line"/>
      <point x="365" y="444" type="line"/>
    </contour>
  </outline>
</glyph>
<glyph name="a" format="2">
  <advance width="609"/>
  <unicode hex="0061"/>
  <anchor x="297" y="0" name="bottom"/>
  <anchor x="504" y="0" name="ogonek"/>
  <anchor x="297" y="505" name="top"/>
  <outline>
    <contour>
      <point x="360" y="0" type="line"/>
      <point x="598" y="0" type="line"/>
      <point x="598" y="27" type="line"/>
      <point x="551" y="29"/>
      <point x="495" y="25"/>
      <point x="495" y="88" type="curve" smooth="yes"/>
      <point x="495" y="350" type="line" smooth="yes"/>
      <point x="495" y="449"/>
      <point x="403" y="518"/>
      <point x="281" y="518" type="curve" smooth="yes"/>
      <point x="114" y="518"/>
      <point x="58" y="419"/>
      <point x="59" y="330" type="curve"/>
      <point x="96" y="330" type="line"/>
      <point x="100" y="403"/>
      <point x="144" y="460"/>
      <point x="231" y="460" type="curve" smooth="yes"/>
      <point x="316" y="460"/>
      <point x="359" y="402"/>
      <point x="359" y="331" type="curve" smooth="yes"/>
    </contour>
    <contour>
      <point x="381" y="127" type="line"/>
      <point x="293" y="72"/>
      <point x="277" y="57"/>
      <point x="241" y="57" type="curve" smooth="yes"/>
      <point x="210" y="57"/>
      <point x="172" y="81"/>
      <point x="172" y="135" type="curve" smooth="yes"/>
      <point x="172" y="175"/>
      <point x="197" y="198"/>
      <point x="235" y="211" type="curve" smooth="yes"/>
      <point x="271" y="223"/>
      <point x="316" y="235"/>
      <point x="381" y="253" type="curve"/>
      <point x="381" y="291" type="line"/>
      <point x="328" y="282"/>
      <point x="284" y="269"/>
      <point x="204" y="253" type="curve" smooth="yes"/>
      <point x="129" y="238"/>
      <point x="50" y="202"/>
      <point x="50" y="114" type="curve" smooth="yes"/>
      <point x="50" y="31"/>
      <point x="125" y="-8"/>
      <point x="184" y="-8" type="curve" smooth="yes"/>
      <point x="261" y="-8"/>
      <point x="302" y="29"/>
      <point x="382" y="93" type="curve"/>
    </contour>
  </outline>
</glyph>
<glyph name="b" format="2">
  <advance width="670"/>
  <unicode hex="0062"/>
  <outline>
    <contour>
      <point x="219" y="397" type="curve"/>
      <point x="219" y="79" type="line"/>
      <point x="243" y="55"/>
      <point x="276" y="30"/>
      <point x="328" y="30" type="curve" smooth="yes"/>
      <point x="418" y="30"/>
      <point x="488" y="115"/>
      <point x="488" y="266" type="curve" smooth="yes"/>
      <point x="488" y="393"/>
      <point x="418" y="461"/>
      <point x="348" y="461" type="curve" smooth="yes"/>
      <point x="323" y="461"/>
      <point x="277" y="439"/>
    </contour>
    <contour>
      <point x="-8" y="691" type="curve"/>
      <point x="-8" y="720" type="line"/>
      <point x="219" y="771" type="line"/>
      <point x="219" y="443" type="line"/>
      <point x="246" y="462"/>
      <point x="322" y="518"/>
      <point x="382" y="518" type="curve" smooth="yes"/>
      <point x="499" y="518"/>
      <point x="626" y="449"/>
      <point x="626" y="279" type="curve" smooth="yes"/>
      <point x="626" y="104"/>
      <point x="519" y="-11"/>
      <point x="318" y="-11" type="curve" smooth="yes"/>
      <point x="221" y="-11"/>
      <point x="125" y="26"/>
      <point x="83" y="46" type="curve"/>
      <point x="83" y="654" type="line" smooth="yes"/>
      <point x="83" y="689"/>
      <point x="72" y="701"/>
      <point x="48" y="701" type="curve" smooth="yes"/>
      <point x="34" y="701"/>
      <point x="15" y="697"/>
    </contour>
  </outline>
</glyph>
<glyph name="c" format="2">
  <advance width="578"/>
  <unicode hex="0063"/>
  <anchor x="290" y="0" name="bottom"/>
  <anchor x="290" y="505" name="top"/>
  <outline>
    <contour>
      <point x="531" y="432" type="line"/>
      <point x="468" y="482"/>
      <point x="407" y="518"/>
      <point x="315" y="518" type="curve" smooth="yes"/>
      <point x="150" y="518"/>
      <point x="44" y="397"/>
      <point x="44" y="255" type="curve" smooth="yes"/>
      <point x="44" y="100"/>
      <point x="155" y="-11"/>
      <point x="312" y="-11" type="curve" smooth="yes"/>
      <point x="430" y="-11"/>
      <point x="501" y="64"/>
      <point x="542" y="157" type="curve"/>
      <point x="518" y="169" type="line"/>
      <point x="467" y="90"/>
      <point x="411" y="68"/>
      <point x="354" y="68" type="curve" smooth="yes"/>
      <point x="262" y="68"/>
      <point x="179" y="158"/>
      <point x="179" y="292" type="curve" smooth="yes"/>
      <point x="179" y="403"/>
      <point x="231" y="482"/>
      <point x="319" y="482" type="curve" smooth="yes"/>
      <point x="396" y="482"/>
      <point x="451" y="409"/>
      <point x="470" y="288" type="curve"/>
      <point x="492" y="288" type="line"/>
    </contour>
  </outline>
</glyph>
<glyph name="d" format="2">
  <advance width="695"/>
  <unicode hex="0064"/>
  <anchor x="351" y="0" name="bottom"/>
  <anchor x="351" y="253" name="center"/>
  <anchor x="351" y="760" name="top"/>
  <anchor x="682" y="760" name="topright"/>
  <outline>
    <contour>
      <point x="455" y="120" type="line"/>
      <point x="422" y="97"/>
      <point x="383" y="71"/>
      <point x="346" y="71" type="curve" smooth="yes"/>
      <point x="270" y="71"/>
      <point x="177" y="147"/>
      <point x="177" y="298" type="curve" smooth="yes"/>
      <point x="177" y="402"/>
      <point x="234" y="476"/>
      <point x="314" y="476" type="curve" smooth="yes"/>
      <point x="379" y="476"/>
      <point x="430" y="428"/>
      <point x="462" y="384" type="curve"/>
      <point x="506" y="453" type="line"/>
      <point x="464" y="481"/>
      <point x="396" y="518"/>
      <point x="304" y="518" type="curve" smooth="yes"/>
      <point x="155" y="518"/>
      <point x="44" y="409"/>
      <point x="44" y="262" type="curve" smooth="yes"/>
      <point x="44" y="73"/>
      <point x="178" y="-6"/>
      <point x="301" y="-6" type="curve" smooth="yes"/>
      <point x="352" y="-6"/>
      <point x="410" y="45"/>
      <point x="455" y="73" type="curve"/>
    </contour>
    <contour>
      <point x="344" y="691" type="line"/>
      <point x="375" y="697"/>
      <point x="400" y="703"/>
      <point x="419" y="703" type="curve" smooth="yes"/>
      <point x="443" y="703"/>
      <point x="455" y="693"/>
      <point x="455" y="662" type="curve" smooth="yes"/>
      <point x="455" y="0" type="line"/>
      <point x="689" y="0" type="line"/>
      <point x="689" y="27" type="line"/>
      <point x="609" y="27"/>
      <point x="593" y="32"/>
      <point x="593" y="86" type="curve" smooth="yes"/>
      <point x="593" y="770" type="line"/>
      <point x="344" y="719" type="line"/>
    </contour>
  </outline>
</glyph>
<glyph name="e" format="2">
  <advance width="598"/>
  <unicode hex="0065"/>
  <anchor x="299" y="0" name="bottom"/>
  <anchor x="405" y="5" name="ogonek"/>
  <anchor x="299" y="505" name="top"/>
  <outline>
    <contour>
      <point x="133" y="300" type="line"/>
      <point x="554" y="300" type="line"/>
      <point x="549" y="425"/>
      <point x="455" y="518"/>
      <point x="314" y="518" type="curve" smooth="yes"/>
      <point x="143" y="518"/>
      <point x="44" y="397"/>
      <point x="44" y="251" type="curve" smooth="yes"/>
      <point x="44" y="86"/>
      <point x="172" y="-11"/>
      <point x="313" y="-11" type="curve" smooth="yes"/>
      <point x="432" y="-11"/>
      <point x="502" y="47"/>
      <point x="559" y="153" type="curve"/>
      <point x="534" y="166" type="line"/>
      <point x="500" y="106"/>
      <point x="434" y="73"/>
      <point x="374" y="73" type="curve" smooth="yes"/>
      <point x="264" y="73"/>
      <point x="180" y="160"/>
      <point x="180" y="297" type="curve" smooth="yes"/>
      <point x="180" y="411"/>
      <point x="223" y="483"/>
      <point x="302" y="483" type="curve" smooth="yes"/>
      <point x="364" y="483"/>
      <point x="408" y="442"/>
      <point x="420" y="334" type="curve"/>
      <point x="133" y="334" type="line"/>
    </contour>
  </outline>
</glyph>
<glyph name="f" format="2">
  <advance width="446"/>
  <unicode hex="0066"/>
  <outline>
    <contour>
      <point x="130" y="78" type="line" smooth="yes"/>
      <point x="130" y="30"/>
      <point x="88" y="29"/>
      <point x="43" y="27" type="curve"/>
      <point x="43" y="0" type="line"/>
      <point x="407" y="0" type="line"/>
      <point x="407" y="27" type="line"/>
      <point x="312" y="29"/>
      <point x="266" y="30"/>
      <point x="266" y="78" type="curve" smooth="yes"/>
      <point x="266" y="577" type="line" smooth="yes"/>
      <point x="266" y="677"/>
      <point x="287" y="737"/>
      <point x="355" y="737" type="curve" smooth="yes"/>
      <point x="414" y="737"/>
      <point x="447" y="687"/>
      <point x="450" y="539" type="curve"/>
      <point x="472" y="539" type="line"/>
      <point x="516" y="687" type="line"/>
      <point x="466" y="742"/>
      <point x="406" y="771"/>
      <point x="335" y="771" type="curve" smooth="yes"/>
      <point x="212" y="771"/>
      <point x="130" y="689"/>
      <point x="130" y="584" type="curve" smooth="yes"/>
    </contour>
    <contour>
      <point x="70" y="505" type="line"/>
      <point x="70" y="472" type="line"/>
      <point x="395" y="472" type="line"/>
      <point x="395" y="505" type="line"/>
    </contour>
  </outline>
</glyph>
<glyph name="g" format="2">
  <advance width="640"/>
  <unicode hex="0067"/>
  <anchor x="322" y="-240" name="bottom"/>
  <anchor x="322" y="505" name="top"/>
  <outline>
    <contour>
      <point x="305" y="146" type="curve" smooth="yes"/>
      <point x="431" y="146"/>
      <point x="539" y="209"/>
      <point x="539" y="330" type="curve" smooth="yes"/>
      <point x="539" y="447"/>
      <point x="431" y="517"/>
      <point x="305" y="517" type="curve" smooth="yes"/>
      <point x="179" y="517"/>
      <point x="75" y="447"/>
      <point x="75" y="330" type="curve" smooth="yes"/>
      <point x="75" y="209"/>
      <point x="179" y="146"/>
    </contour>
    <contour>
      <point x="263" y="178" type="curve"/>
      <point x="215" y="183" type="line"/>
      <point x="176" y="151"/>
      <point x="66" y="109"/>
      <point x="66" y="85" type="curve" smooth="yes"/>
      <point x="66" y="38"/>
      <point x="106" y="-14"/>
      <point x="224" y="-28" type="curve" smooth="yes"/>
      <point x="383" y="-47" type="line" smooth="yes"/>
      <point x="438" y="-54"/>
      <point x="481" y="-71"/>
      <point x="481" y="-109" type="curve" smooth="yes"/>
      <point x="481" y="-169"/>
      <point x="415" y="-211"/>
      <point x="322" y="-211" type="curve" smooth="yes"/>
      <point x="243" y="-211"/>
      <point x="151" y="-176"/>
      <point x="151" y="-82" type="curve" smooth="yes"/>
      <point x="151" y="-69"/>
      <point x="235" y="-16"/>
      <point x="285" y="15" type="curve"/>
      <point x="242" y="23" type="line"/>
      <point x="199" y="-11"/>
      <point x="34" y="-77"/>
      <point x="34" y="-98" type="curve" smooth="yes"/>
      <point x="34" y="-187"/>
      <point x="155" y="-247"/>
      <point x="297" y="-247" type="curve" smooth="yes"/>
      <point x="448" y="-247"/>
      <point x="594" y="-166"/>
      <point x="594" y="-60" type="curve" smooth="yes"/>
      <point x="594" y="5"/>
      <point x="558" y="43"/>
      <point x="457" y="57" type="curve" smooth="yes"/>
      <point x="232" y="88" type="line" smooth="yes"/>
      <point x="195" y="93"/>
      <point x="179" y="106"/>
      <point x="179" y="120" type="curve" smooth="yes"/>
      <point x="179" y="128"/>
      <point x="223" y="144"/>
    </contour>
    <contour>
      <point x="303" y="480" type="curve" smooth="yes"/>
      <point x="362" y="480"/>
      <point x="399" y="422"/>
      <point x="399" y="320" type="curve" smooth="yes"/>
      <point x="399" y="234"/>
      <point x="366" y="183"/>
      <point x="311" y="183" type="curve" smooth="yes"/>
      <point x="251" y="183"/>
      <point x="216" y="243"/>
      <point x="216" y="343" type="curve" smooth="yes"/>
      <point x="216" y="431"/>
      <point x="247" y="480"/>
    </contour>
    <contour>
      <point x="426" y="487" type="curve"/>
      <point x="424" y="455" type="line"/>
      <point x="572" y="455" type="line"/>
      <point x="612" y="561" type="line"/>
      <point x="587" y="566" type="line"/>
      <point x="549" y="514"/>
      <point x="515" y="493"/>
    </contour>
  </outline>
</glyph>
<glyph name="h" format="2">
  <advance width="690"/>
  <unicode hex="0068"/>
  <outline>
    <contour>
      <point x="451" y="72" type="line" smooth="yes"/>
      <point x="451" y="24"/>
      <point x="409" y="29"/>
      <point x="364" y="27" type="curve"/>
      <point x="364" y="0" type="line"/>
      <point x="674" y="0" type="line"/>
      <point x="674" y="27" type="line"/>
      <point x="619" y="29"/>
      <point x="587" y="24"/>
      <point x="587" y="72" type="curve" smooth="yes"/>
      <point x="587" y="364" type="line" smooth="yes"/>
      <point x="587" y="457"/>
      <point x="540" y="518"/>
      <point x="433" y="518" type="curve" smooth="yes"/>
      <point x="371" y="518"/>
      <point x="296" y="461"/>
      <point x="239" y="426" type="curve"/>
      <point x="239" y="771" type="line"/>
      <point x="12" y="720" type="line"/>
      <point x="12" y="692" type="line"/>
      <point x="41" y="698"/>
      <point x="61" y="702"/>
      <point x="75" y="702" type="curve" smooth="yes"/>
      <point x="100" y="702"/>
      <point x="103" y="688"/>
      <point x="103" y="650" type="curve" smooth="yes"/>
      <point x="103" y="72" type="line" smooth="yes"/>
      <point x="103" y="24"/>
      <point x="61" y="29"/>
      <point x="16" y="27" type="curve"/>
      <point x="16" y="0" type="line"/>
      <point x="326" y="0" type="line"/>
      <point x="326" y="27" type="line"/>
      <point x="276" y="29"/>
      <point x="239" y="24"/>
      <point x="239" y="72" type="curve" smooth="yes"/>
      <point x="239" y="384" type="line"/>
      <point x="273" y="406"/>
      <point x="323" y="450"/>
      <point x="372" y="450" type="curve" smooth="yes"/>
      <point x="427" y="450"/>
      <point x="451" y="416"/>
      <point x="451" y="346" type="curve" smooth="yes"/>
    </contour>
  </outline>
</glyph>
<glyph name="i" format="2">
  <advance width="353"/>
  <unicode hex="0069"/>
  <anchor x="176" y="505" name="_top"/>
  <anchor x="176" y="727" name="top"/>
  <outline>
    <component base="idotless"/>
    <contour>
      <point x="184" y="607" type="curve" smooth="yes"/>
      <point x="141" y="607"/>
      <point x="99" y="640"/>
      <point x="99" y="689" type="curve" smooth="yes"/>
      <point x="99" y="738"/>
      <point x="141" y="771"/>
      <point x="184" y="771" type="curve" smooth="yes"/>
      <point x="227" y="771"/>
      <point x="269" y="738"/>
      <point x="269" y="689" type="curve" smooth="yes"/>
      <point x="269" y="640"/>
      <point x="227" y="607"/>
    </contour>
  </outline>
</glyph>
<glyph name="j" format="2">
  <advance width="354"/>
  <unicode hex="006A"/>
  <outline>
    <contour>
      <point x="172" y="607" type="curve" smooth="yes"/>
      <point x="129" y="607"/>
      <point x="87" y="640"/>
      <point x="87" y="689" type="curve" smooth="yes"/>
      <point x="87" y="738"/>
      <point x="129" y="771"/>
      <point x="172" y="771" type="curve" smooth="yes"/>
      <point x="215" y="771"/>
      <point x="257" y="738"/>
      <point x="257" y="689" type="curve" smooth="yes"/>
      <point x="257" y="640"/>
      <point x="215" y="607"/>
    </contour>
    <component base="jdotless" xOffset="-13"/>
  </outline>
</glyph>
<glyph name="k" format="2">
  <advance width="646"/>
  <unicode hex="006B"/>
  <anchor x="324" y="0" name="bottom"/>
  <anchor x="324" y="760" name="top"/>
  <outline>
    <contour>
      <point x="390" y="348" type="line"/>
      <point x="285" y="271" type="line"/>
      <point x="462" y="0" type="line"/>
      <point x="669" y="0" type="line"/>
      <point x="669" y="27" type="line"/>
      <point x="613" y="32"/>
      <point x="600" y="37"/>
      <point x="577" y="71" type="curve" smooth="yes"/>
    </contour>
    <contour>
      <point x="213" y="254" type="line"/>
      <point x="238" y="222" type="line"/>
      <point x="492" y="427" type="line" smooth="yes"/>
      <point x="540" y="466"/>
      <point x="551" y="478"/>
      <point x="629" y="478" type="curve"/>
      <point x="629" y="505" type="line"/>
      <point x="399" y="505" type="line"/>
      <point x="399" y="478" type="line"/>
      <point x="427" y="478" type="line" smooth="yes"/>
      <point x="455" y="478"/>
      <point x="467" y="473"/>
      <point x="467" y="464" type="curve" smooth="yes"/>
      <point x="467" y="456"/>
      <point x="457" y="444"/>
      <point x="438" y="430" type="curve" smooth="yes"/>
    </contour>
    <contour>
      <point x="12" y="692" type="line"/>
      <point x="45" y="698"/>
      <point x="68" y="706"/>
      <point x="82" y="706" type="curve" smooth="yes"/>
      <point x="97" y="706"/>
      <point x="103" y="697"/>
      <point x="103" y="670" type="curve" smooth="yes"/>
      <point x="103" y="78" type="line" smooth="yes"/>
      <point x="103" y="34"/>
      <point x="92" y="28"/>
      <point x="16" y="27" type="curve"/>
      <point x="16" y="0" type="line"/>
      <point x="324" y="0" type="line"/>
      <point x="324" y="27" type="line"/>
      <point x="249" y="28"/>
      <point x="239" y="34"/>
      <point x="239" y="78" type="curve" smooth="yes"/>
      <point x="239" y="771" type="line"/>
      <point x="12" y="720" type="line"/>
    </contour>
  </outline>
</glyph>
<glyph name="l" format="2">
  <advance width="346"/>
  <unicode hex="006C"/>
  <anchor x="173" y="0" name="bottom"/>
  <anchor x="173" y="380" name="center"/>
  <anchor x="173" y="760" name="top"/>
  <anchor x="326" y="760" name="topright"/>
  <outline>
    <contour>
      <point x="235" y="73" type="curve" smooth="yes"/>
      <point x="235" y="771" type="line"/>
      <point x="12" y="720" type="line"/>
      <point x="12" y="693" type="line"/>
      <point x="46" y="700"/>
      <point x="67" y="704"/>
      <point x="80" y="704" type="curve" smooth="yes"/>
      <point x="98" y="704"/>
      <point x="99" y="695"/>
      <point x="99" y="669" type="curve" smooth="yes"/>
      <point x="99" y="73" type="line" smooth="yes"/>
      <point x="99" y="25"/>
      <point x="57" y="29"/>
      <point x="12" y="27" type="curve"/>
      <point x="12" y="0" type="line"/>
      <point x="322" y="0" type="line"/>
      <point x="322" y="27" type="line"/>
      <point x="267" y="29"/>
      <point x="235" y="25"/>
    </contour>
  </outline>
</glyph>
<glyph name="m" format="2">
  <advance width="1034"/>
  <unicode hex="006D"/>
  <outline>
    <contour>
      <point x="253" y="72" type="curve" smooth="yes"/>
      <point x="253" y="516" type="line"/>
      <point x="30" y="465" type="line"/>
      <point x="30" y="438" type="line"/>
      <point x="60" y="445"/>
      <point x="79" y="449"/>
      <point x="92" y="449" type="curve" smooth="yes"/>
      <point x="116" y="449"/>
      <point x="117" y="434"/>
      <point x="117" y="396" type="curve" smooth="yes"/>
      <point x="117" y="72" type="line" smooth="yes"/>
      <point x="117" y="24"/>
      <point x="75" y="29"/>
      <point x="30" y="27" type="curve"/>
      <point x="30" y="0" type="line"/>
      <point x="340" y="0" type="line"/>
      <point x="340" y="27" type="line"/>
      <point x="285" y="29"/>
      <point x="253" y="24"/>
    </contour>
    <contour>
      <point x="578" y="415" type="curve"/>
      <point x="588" y="373" type="line"/>
      <point x="617" y="400"/>
      <point x="673" y="446"/>
      <point x="717" y="446" type="curve" smooth="yes"/>
      <point x="771" y="446"/>
      <point x="795" y="417"/>
      <point x="795" y="351" type="curve" smooth="yes"/>
      <point x="795" y="72" type="line" smooth="yes"/>
      <point x="795" y="24"/>
      <point x="753" y="29"/>
      <point x="708" y="27" type="curve"/>
      <point x="708" y="0" type="line"/>
      <point x="1018" y="0" type="line"/>
      <point x="1018" y="27" type="line"/>
      <point x="963" y="29"/>
      <point x="931" y="24"/>
      <point x="931" y="72" type="curve" smooth="yes"/>
      <point x="931" y="364" type="line" smooth="yes"/>
      <point x="931" y="457"/>
      <point x="884" y="518"/>
      <point x="777" y="518" type="curve" smooth="yes"/>
      <point x="715" y="518"/>
      <point x="630" y="455"/>
    </contour>
    <contour>
      <point x="240" y="415" type="curve"/>
      <point x="242" y="368" type="line"/>
      <point x="270" y="392"/>
      <point x="330" y="446"/>
      <point x="378" y="446" type="curve" smooth="yes"/>
      <point x="432" y="446"/>
      <point x="456" y="417"/>
      <point x="456" y="351" type="curve" smooth="yes"/>
      <point x="456" y="72" type="line" smooth="yes"/>
      <point x="456" y="24"/>
      <point x="414" y="29"/>
      <point x="369" y="27" type="curve"/>
      <point x="369" y="0" type="line"/>
      <point x="679" y="0" type="line"/>
      <point x="679" y="27" type="line"/>
      <point x="624" y="29"/>
      <point x="592" y="24"/>
      <point x="592" y="72" type="curve" smooth="yes"/>
      <point x="592" y="364" type="line" smooth="yes"/>
      <point x="592" y="457"/>
      <point x="545" y="518"/>
      <point x="438" y="518" type="curve" smooth="yes"/>
      <point x="373" y="518"/>
      <point x="293" y="454"/>
    </contour>
  </outline>
</glyph>
<glyph name="n" format="2">
  <advance width="704"/>
  <unicode hex="006E"/>
  <anchor x="352" y="0" name="bottom"/>
  <anchor x="352" y="505" name="top"/>
  <outline>
    <contour>
      <point x="465" y="72" type="line" smooth="yes"/>
      <point x="465" y="24"/>
      <point x="423" y="29"/>
      <point x="378" y="27" type="curve"/>
      <point x="378" y="0" type="line"/>
      <point x="688" y="0" type="line"/>
      <point x="688" y="27" type="line"/>
      <point x="633" y="29"/>
      <point x="601" y="24"/>
      <point x="601" y="72" type="curve" smooth="yes"/>
      <point x="601" y="364" type="line" smooth="yes"/>
      <point x="601" y="457"/>
      <point x="554" y="518"/>
      <point x="447" y="518" type="curve" smooth="yes"/>
      <point x="385" y="518"/>
      <point x="310" y="461"/>
      <point x="253" y="426" type="curve"/>
      <point x="253" y="516" type="line"/>
      <point x="30" y="465" type="line"/>
      <point x="30" y="438" type="line"/>
      <point x="59" y="444"/>
      <point x="78" y="447"/>
      <point x="91" y="447" type="curve" smooth="yes"/>
      <point x="116" y="447"/>
      <point x="117" y="434"/>
      <point x="117" y="396" type="curve" smooth="yes"/>
      <point x="117" y="72" type="line" smooth="yes"/>
      <point x="117" y="24"/>
      <point x="75" y="29"/>
      <point x="30" y="27" type="curve"/>
      <point x="30" y="0" type="line"/>
      <point x="340" y="0" type="line"/>
      <point x="340" y="27" type="line"/>
      <point x="290" y="29"/>
      <point x="253" y="24"/>
      <point x="253" y="72" type="curve" smooth="yes"/>
      <point x="253" y="381" type="line"/>
      <point x="287" y="403"/>
      <point x="337" y="449"/>
      <point x="386" y="449" type="curve" smooth="yes"/>
      <point x="441" y="449"/>
      <point x="465" y="415"/>
      <point x="465" y="345" type="curve" smooth="yes"/>
    </contour>
  </outline>
</glyph>
<glyph name="o" format="2">
  <advance width="640"/>
  <unicode hex="006F"/>
  <anchor x="320" y="0" name="bottom"/>
  <anchor x="320" y="253" name="center"/>
  <anchor x="576" y="10" name="ogonek"/>
  <anchor x="320" y="505" name="top"/>
  <anchor x="620" y="505" name="topright"/>
  <outline>
    <contour>
      <point x="320" y="-11" type="curve" smooth="yes"/>
      <point x="475" y="-11"/>
      <point x="596" y="97"/>
      <point x="596" y="256" type="curve" smooth="yes"/>
      <point x="596" y="414"/>
      <point x="465" y="518"/>
      <point x="320" y="518" type="curve" smooth="yes"/>
      <point x="175" y="518"/>
      <point x="44" y="414"/>
      <point x="44" y="256" type="curve" smooth="yes"/>
      <point x="44" y="97"/>
      <point x="165" y="-11"/>
    </contour>
    <contour>
      <point x="320" y="481" type="curve" smooth="yes"/>
      <point x="412" y="481"/>
      <point x="453" y="394"/>
      <point x="453" y="259" type="curve" smooth="yes"/>
      <point x="453" y="124"/>
      <point x="412" y="26"/>
      <point x="320" y="26" type="curve" smooth="yes"/>
      <point x="227" y="26"/>
      <point x="187" y="124"/>
      <point x="187" y="259" type="curve" smooth="yes"/>
      <point x="187" y="394"/>
      <point x="229" y="481"/>
    </contour>
  </outline>
</glyph>
<glyph name="p" format="2">
  <advance width="694"/>
  <unicode hex="0070"/>
  <outline>
    <contour>
      <point x="242" y="394" type="line"/>
      <point x="300" y="434"/>
      <point x="331" y="455"/>
      <point x="366" y="455" type="curve" smooth="yes"/>
      <point x="445" y="455"/>
      <point x="519" y="391"/>
      <point x="519" y="248" type="curve" smooth="yes"/>
      <point x="519" y="107"/>
      <point x="439" y="31"/>
      <point x="361" y="31" type="curve" smooth="yes"/>
      <point x="305" y="31"/>
      <point x="266" y="67"/>
      <point x="242" y="91" type="curve"/>
      <point x="136" y="59" type="line"/>
      <point x="162" y="39"/>
      <point x="234" y="-11"/>
      <point x="356" y="-11" type="curve" smooth="yes"/>
      <point x="512" y="-11"/>
      <point x="650" y="96"/>
      <point x="650" y="279" type="curve" smooth="yes"/>
      <point x="650" y="448"/>
      <point x="523" y="517"/>
      <point x="406" y="517" type="curve" smooth="yes"/>
      <point x="346" y="517"/>
      <point x="269" y="462"/>
      <point x="242" y="445" type="curve"/>
    </contour>
    <contour>
      <point x="27" y="439" type="line"/>
      <point x="55" y="446"/>
      <point x="74" y="451"/>
      <point x="87" y="451" type="curve" smooth="yes"/>
      <point x="109" y="451"/>
      <point x="114" y="438"/>
      <point x="114" y="402" type="curve" smooth="yes"/>
      <point x="114" y="-162" type="line" smooth="yes"/>
      <point x="114" y="-210"/>
      <point x="72" y="-211"/>
      <point x="27" y="-213" type="curve"/>
      <point x="27" y="-240" type="line"/>
      <point x="391" y="-240" type="line"/>
      <point x="391" y="-213" type="line"/>
      <point x="296" y="-211"/>
      <point x="250" y="-210"/>
      <point x="250" y="-162" type="curve" smooth="yes"/>
      <point x="250" y="518" type="line"/>
      <point x="27" y="467" type="line"/>
    </contour>
  </outline>
</glyph>
<glyph name="q" format="2">
  <advance width="660"/>
  <unicode hex="0071"/>
  <outline>
    <contour>
      <point x="44" y="251" type="curve" smooth="yes"/>
      <point x="44" y="73"/>
      <point x="176" y="-7"/>
      <point x="283" y="-7" type="curve" smooth="yes"/>
      <point x="344" y="-7"/>
      <point x="401" y="43"/>
      <point x="436" y="70" type="curve"/>
      <point x="436" y="-162" type="line" smooth="yes"/>
      <point x="436" y="-210"/>
      <point x="390" y="-211"/>
      <point x="295" y="-213" type="curve"/>
      <point x="295" y="-240" type="line"/>
      <point x="660" y="-240" type="line"/>
      <point x="660" y="-213" type="line"/>
      <point x="615" y="-211"/>
      <point x="572" y="-210"/>
      <point x="572" y="-162" type="curve" smooth="yes"/>
      <point x="572" y="517" type="line"/>
      <point x="554" y="517" type="line"/>
      <point x="500" y="466" type="line"/>
      <point x="421" y="508"/>
      <point x="376" y="518"/>
      <point x="319" y="518" type="curve" smooth="yes"/>
      <point x="162" y="518"/>
      <point x="44" y="414"/>
    </contour>
    <contour>
      <point x="174" y="290" type="curve" smooth="yes"/>
      <point x="174" y="403"/>
      <point x="231" y="482"/>
      <point x="319" y="482" type="curve" smooth="yes"/>
      <point x="357" y="482"/>
      <point x="404" y="462"/>
      <point x="436" y="412" type="curve"/>
      <point x="436" y="112" type="line"/>
      <point x="403" y="83"/>
      <point x="367" y="67"/>
      <point x="337" y="67" type="curve" smooth="yes"/>
      <point x="250" y="67"/>
      <point x="174" y="154"/>
    </contour>
  </outline>
</glyph>
<glyph name="r" format="2">
  <advance width="558"/>
  <unicode hex="0072"/>
  <anchor x="185" y="0" name="bottom"/>
  <anchor x="280" y="505" name="top"/>
  <outline>
    <contour>
      <point x="477" y="293" type="line"/>
      <point x="538" y="425" type="line"/>
      <point x="511" y="478"/>
      <point x="461" y="513"/>
      <point x="400" y="513" type="curve" smooth="yes"/>
      <point x="351" y="513"/>
      <point x="274" y="415"/>
      <point x="251" y="390" type="curve"/>
      <point x="251" y="348" type="line"/>
      <point x="289" y="395"/>
      <point x="346" y="442"/>
      <point x="365" y="442" type="curve" smooth="yes"/>
      <point x="400" y="442"/>
      <point x="450" y="418"/>
      <point x="455" y="293" type="curve"/>
    </contour>
    <contour>
      <point x="30" y="435" type="line"/>
      <point x="56" y="441"/>
      <point x="76" y="447"/>
      <point x="91" y="447" type="curve" smooth="yes"/>
      <point x="108" y="447"/>
      <point x="117" y="439"/>
      <point x="117" y="412" type="curve" smooth="yes"/>
      <point x="117" y="67" type="line" smooth="yes"/>
      <point x="117" y="26"/>
      <point x="98" y="28"/>
      <point x="30" y="27" type="curve"/>
      <point x="30" y="0" type="line"/>
      <point x="398" y="0" type="line"/>
      <point x="398" y="27" type="line"/>
      <point x="284" y="28"/>
      <point x="253" y="24"/>
      <point x="253" y="71" type="curve" smooth="yes"/>
      <point x="253" y="514" type="line"/>
      <point x="30" y="463" type="line"/>
    </contour>
  </outline>
</glyph>
<glyph name="s" format="2">
  <advance width="541"/>
  <unicode hex="0073"/>
  <anchor x="271" y="0" name="bottom"/>
  <anchor x="271" y="505" name="top"/>
  <outline>
    <contour>
      <point x="471" y="468" type="line"/>
      <point x="443" y="487"/>
      <point x="360" y="518"/>
      <point x="270" y="518" type="curve" smooth="yes"/>
      <point x="147" y="518"/>
      <point x="54" y="467"/>
      <point x="54" y="367" type="curve" smooth="yes"/>
      <point x="54" y="280"/>
      <point x="114" y="240"/>
      <point x="184" y="214" type="curve" smooth="yes"/>
      <point x="279" y="179" type="line" smooth="yes"/>
      <point x="341" y="156"/>
      <point x="384" y="148"/>
      <point x="384" y="104" type="curve" smooth="yes"/>
      <point x="384" y="65"/>
      <point x="348" y="25"/>
      <point x="278" y="25" type="curve" smooth="yes"/>
      <point x="196" y="25"/>
      <point x="113" y="71"/>
      <point x="97" y="197" type="curve"/>
      <point x="75" y="197" type="line"/>
      <point x="59" y="47" type="line"/>
      <point x="101" y="12"/>
      <point x="184" y="-11"/>
      <point x="273" y="-11" type="curve" smooth="yes"/>
      <point x="390" y="-11"/>
      <point x="492" y="52"/>
      <point x="492" y="152" type="curve" smooth="yes"/>
      <point x="492" y="222"/>
      <point x="447" y="258"/>
      <point x="357" y="288" type="curve" smooth="yes"/>
      <point x="247" y="325" type="line" smooth="yes"/>
      <point x="200" y="341"/>
      <point x="165" y="361"/>
      <point x="165" y="407" type="curve" smooth="yes"/>
      <point x="165" y="448"/>
      <point x="203" y="483"/>
      <point x="268" y="483" type="curve" smooth="yes"/>
      <point x="344" y="483"/>
      <point x="405" y="437"/>
      <point x="419" y="328" type="curve"/>
      <point x="441" y="328" type="line"/>
    </contour>
  </outline>
</glyph>
<glyph name="t" format="2">
  <advance width="422"/>
  <unicode hex="0074"/>
  <anchor x="241" y="0" name="bottom"/>
  <anchor x="211" y="253" name="center"/>
  <anchor x="211" y="505" name="top"/>
  <anchor x="402" y="760" name="topright"/>
  <outline>
    <contour>
      <point x="373" y="95" type="line"/>
      <point x="337" y="56"/>
      <point x="317" y="47"/>
      <point x="292" y="47" type="curve" smooth="yes"/>
      <point x="256" y="47"/>
      <point x="234" y="73"/>
      <point x="234" y="127" type="curve" smooth="yes"/>
      <point x="234" y="473" type="line"/>
      <point x="393" y="473" type="line"/>
      <point x="393" y="505" type="line"/>
      <point x="233" y="505" type="line"/>
      <point x="233" y="630" type="line"/>
      <point x="212" y="630" type="line"/>
      <point x="191" y="566"/>
      <point x="105" y="511"/>
      <point x="26" y="502" type="curve"/>
      <point x="26" y="473" type="line"/>
      <point x="98" y="473" type="line"/>
      <point x="98" y="122" type="line" smooth="yes"/>
      <point x="98" y="33"/>
      <point x="157" y="-11"/>
      <point x="233" y="-11" type="curve" smooth="yes"/>
      <point x="310" y="-11"/>
      <point x="354" y="30"/>
      <point x="392" y="78" type="curve"/>
    </contour>
  </outline>
</glyph>
<glyph name="u" format="2">
  <advance width="703"/>
  <unicode hex="0075"/>
  <anchor x="351" y="0" name="bottom"/>
  <anchor x="588" y="0" name="ogonek"/>
  <anchor x="344" y="505" name="top"/>
  <anchor x="683" y="505" name="topright"/>
  <outline>
    <contour>
      <point x="16" y="440" type="line"/>
      <point x="44" y="446"/>
      <point x="63" y="450"/>
      <point x="76" y="450" type="curve" smooth="yes"/>
      <point x="98" y="450"/>
      <point x="103" y="440"/>
      <point x="103" y="416" type="curve" smooth="yes"/>
      <point x="103" y="144" type="line" smooth="yes"/>
      <point x="103" y="51"/>
      <point x="160" y="-10"/>
      <point x="261" y="-10" type="curve" smooth="yes"/>
      <point x="329" y="-10"/>
      <point x="394" y="47"/>
      <point x="446" y="89" type="curve"/>
      <point x="446" y="0" type="line"/>
      <point x="683" y="0" type="line"/>
      <point x="683" y="27" type="line"/>
      <point x="598" y="28"/>
      <point x="582" y="32"/>
      <point x="582" y="91" type="curve" smooth="yes"/>
      <point x="582" y="518" type="line"/>
      <point x="359" y="467" type="line"/>
      <point x="359" y="440" type="line"/>
      <point x="387" y="446"/>
      <point x="406" y="450"/>
      <point x="419" y="450" type="curve" smooth="yes"/>
      <point x="441" y="450"/>
      <point x="446" y="440"/>
      <point x="446" y="416" type="curve" smooth="yes"/>
      <point x="446" y="137" type="line"/>
      <point x="417" y="108"/>
      <point x="367" y="62"/>
      <point x="325" y="62" type="curve" smooth="yes"/>
      <point x="273" y="62"/>
      <point x="239" y="96"/>
      <point x="239" y="166" type="curve" smooth="yes"/>
      <point x="239" y="518" type="line"/>
      <point x="16" y="467" type="line"/>
    </contour>
  </outline>
</glyph>
<glyph name="v" format="2">
  <advance width="569"/>
  <unicode hex="0076"/>
  <outline>
    <contour>
      <point x="-30" y="478" type="curve"/>
      <point x="-30" y="505" type="line"/>
      <point x="273" y="505" type="line"/>
      <point x="273" y="478" type="line"/>
      <point x="220" y="477"/>
      <point x="195" y="476"/>
      <point x="195" y="455" type="curve" smooth="yes"/>
      <point x="195" y="447"/>
      <point x="198" y="437"/>
      <point x="204" y="424" type="curve" smooth="yes"/>
      <point x="332" y="145" type="line"/>
      <point x="445" y="423" type="line" smooth="yes"/>
      <point x="449" y="434"/>
      <point x="451" y="443"/>
      <point x="451" y="450" type="curve" smooth="yes"/>
      <point x="451" y="474"/>
      <point x="428" y="479"/>
      <point x="393" y="479" type="curve" smooth="yes"/>
      <point x="386" y="479"/>
      <point x="377" y="478"/>
      <point x="368" y="478" type="curve"/>
      <point x="368" y="505" type="line"/>
      <point x="594" y="505" type="line"/>
      <point x="594" y="478" type="line"/>
      <point x="546" y="477"/>
      <point x="517" y="481"/>
      <point x="498" y="435" type="curve" smooth="yes"/>
      <point x="316" y="0" type="line"/>
      <point x="271" y="0" type="line"/>
      <point x="64" y="430" type="line" smooth="yes"/>
      <point x="41" y="477"/>
      <point x="40" y="476"/>
    </contour>
  </outline>
</glyph>
<glyph name="w" format="2">
  <advance width="856"/>
  <unicode hex="0077"/>
  <anchor x="428" y="0" name="bottom"/>
  <anchor x="428" y="505" name="top"/>
  <outline>
    <contour>
      <point x="298" y="478" type="line"/>
      <point x="368" y="476"/>
      <point x="371" y="477"/>
      <point x="392" y="430" type="curve" smooth="yes"/>
      <point x="586" y="0" type="line"/>
      <point x="631" y="0" type="line"/>
      <point x="798" y="435" type="line" smooth="yes"/>
      <point x="816" y="482"/>
      <point x="846" y="477"/>
      <point x="894" y="478" type="curve"/>
      <point x="894" y="505" type="line"/>
      <point x="672" y="505" type="line"/>
      <point x="672" y="478" type="line"/>
      <point x="713" y="480"/>
      <point x="759" y="480"/>
      <point x="759" y="446" type="curve" smooth="yes"/>
      <point x="759" y="440"/>
      <point x="758" y="432"/>
      <point x="754" y="423" type="curve" smooth="yes"/>
      <point x="649" y="158" type="line"/>
      <point x="529" y="424" type="line" smooth="yes"/>
      <point x="523" y="437"/>
      <point x="520" y="446"/>
      <point x="520" y="454" type="curve" smooth="yes"/>
      <point x="520" y="476"/>
      <point x="547" y="477"/>
      <point x="601" y="478" type="curve"/>
      <point x="601" y="505" type="line"/>
      <point x="298" y="505" type="line"/>
    </contour>
    <contour>
      <point x="436" y="423" type="line"/>
      <point x="329" y="158" type="line"/>
      <point x="209" y="424" type="line" smooth="yes"/>
      <point x="203" y="437"/>
      <point x="200" y="447"/>
      <point x="200" y="454" type="curve" smooth="yes"/>
      <point x="200" y="476"/>
      <point x="225" y="477"/>
      <point x="271" y="478" type="curve"/>
      <point x="271" y="505" type="line"/>
      <point x="-22" y="505" type="line"/>
      <point x="-22" y="478" type="line"/>
      <point x="48" y="476"/>
      <point x="51" y="477"/>
      <point x="72" y="430" type="curve" smooth="yes"/>
      <point x="266" y="0" type="line"/>
      <point x="311" y="0" type="line"/>
      <point x="478" y="435" type="line"/>
    </contour>
  </outline>
</glyph>
<glyph name="x" format="2">
  <advance width="578"/>
  <unicode hex="0078"/>
  <outline>
    <contour>
      <point x="-41" y="478" type="line"/>
      <point x="28" y="476"/>
      <point x="41" y="468"/>
      <point x="72" y="428" type="curve" smooth="yes"/>
      <point x="335" y="83" type="line" smooth="yes"/>
      <point x="347" y="67"/>
      <point x="353" y="55"/>
      <point x="353" y="47" type="curve" smooth="yes"/>
      <point x="353" y="31"/>
      <point x="329" y="28"/>
      <point x="276" y="27" type="curve"/>
      <point x="276" y="0" type="line"/>
      <point x="608" y="0" type="line"/>
      <point x="608" y="27" type="line"/>
      <point x="530" y="29"/>
      <point x="507" y="62"/>
      <point x="469" y="113" type="curve" smooth="yes"/>
      <point x="218" y="444" type="line" smooth="yes"/>
      <point x="211" y="454"/>
      <point x="207" y="460"/>
      <point x="207" y="465" type="curve" smooth="yes"/>
      <point x="207" y="477"/>
      <point x="229" y="477"/>
      <point x="273" y="478" type="curve"/>
      <point x="273" y="505" type="line"/>
      <point x="-41" y="505" type="line"/>
    </contour>
    <contour>
      <point x="-14" y="0" type="line"/>
      <point x="210" y="0" type="line"/>
      <point x="210" y="27" type="line"/>
      <point x="167" y="26"/>
      <point x="135" y="28"/>
      <point x="135" y="46" type="curve" smooth="yes"/>
      <point x="135" y="54"/>
      <point x="140" y="64"/>
      <point x="152" y="77" type="curve" smooth="yes"/>
      <point x="298" y="246" type="line"/>
      <point x="266" y="266" type="line"/>
      <point x="103" y="77" type="line" smooth="yes"/>
      <point x="59" y="25"/>
      <point x="32" y="28"/>
      <point x="-14" y="27" type="curve"/>
    </contour>
    <contour>
      <point x="272" y="266" type="line"/>
      <point x="312" y="251" type="line"/>
      <point x="452" y="414" type="line" smooth="yes"/>
      <point x="503" y="474"/>
      <point x="517" y="477"/>
      <point x="588" y="478" type="curve"/>
      <point x="588" y="505" type="line"/>
      <point x="339" y="505" type="line"/>
      <point x="339" y="478" type="line"/>
      <point x="402" y="479"/>
      <point x="435" y="474"/>
      <point x="435" y="458" type="curve" smooth="yes"/>
      <point x="435" y="452"/>
      <point x="431" y="445"/>
      <point x="423" y="436" type="curve" smooth="yes"/>
    </contour>
  </outline>
</glyph>
<glyph name="y" format="2">
  <advance width="600"/>
  <unicode hex="0079"/>
  <anchor x="300" y="0" name="bottom"/>
  <anchor x="340" y="505" name="top"/>
  <outline>
    <contour>
      <point x="-19" y="478" type="curve"/>
      <point x="-19" y="505" type="line"/>
      <point x="306" y="505" type="line"/>
      <point x="306" y="478" type="line"/>
      <point x="250" y="477"/>
      <point x="214" y="475"/>
      <point x="214" y="450" type="curve" smooth="yes"/>
      <point x="214" y="443"/>
      <point x="217" y="435"/>
      <point x="223" y="424" type="curve" smooth="yes"/>
      <point x="359" y="173" type="line"/>
      <point x="473" y="421" type="line" smooth="yes"/>
      <point x="478" y="432"/>
      <point x="480" y="441"/>
      <point x="480" y="448" type="curve" smooth="yes"/>
      <point x="480" y="473"/>
      <point x="453" y="479"/>
      <point x="417" y="479" type="curve" smooth="yes"/>
      <point x="409" y="479"/>
      <point x="401" y="478"/>
      <point x="392" y="478" type="curve"/>
      <point x="392" y="505" type="line"/>
      <point x="626" y="505" type="line"/>
      <point x="626" y="478" type="line"/>
      <point x="578" y="477"/>
      <point x="546" y="479"/>
      <point x="525" y="433" type="curve" smooth="yes"/>
      <point x="216" y="-240" type="line"/>
      <point x="142" y="-205" type="line"/>
      <point x="288" y="29" type="line"/>
      <point x="75" y="430" type="line" smooth="yes"/>
      <point x="50" y="476"/>
      <point x="55" y="476"/>
    </contour>
  </outline>
</glyph>
<glyph name="z" format="2">
  <advance width="590"/>
  <unicode hex="007A"/>
  <anchor x="295" y="0" name="bottom"/>
  <anchor x="295" y="253" name="center"/>
  <anchor x="295" y="505" name="top"/>
  <outline>
    <contour>
      <point x="65" y="0" type="line"/>
      <point x="55" y="24" type="line"/>
      <point x="371" y="475" type="line"/>
      <point x="215" y="475" type="line" smooth="yes"/>
      <point x="154" y="475"/>
      <point x="124" y="414"/>
      <point x="96" y="321" type="curve"/>
      <point x="69" y="321" type="line"/>
      <point x="89" y="505" type="line"/>
      <point x="528" y="505" type="line"/>
      <point x="538" y="482" type="line"/>
      <point x="226" y="32" type="line"/>
      <point x="403" y="32" type="line" smooth="yes"/>
      <point x="471" y="32"/>
      <point x="485" y="109"/>
      <point x="510" y="176" type="curve"/>
      <point x="535" y="176" type="line"/>
      <point x="515" y="0" type="line"/>
    </contour>
  </outline>
</glyph>
<glyph name="braceleft" format="2">
  <advance width="432"/>
  <unicode hex="007B"/>
  <outline>
    <contour>
      <point x="281" y="4" type="curve" smooth="yes"/>
      <point x="281" y="199"/>
      <point x="240" y="251"/>
      <point x="104" y="276" type="curve"/>
      <point x="104" y="264" type="line"/>
      <point x="239" y="291"/>
      <point x="281" y="321"/>
      <point x="281" y="518" type="curve" smooth="yes"/>
      <point x="281" y="638"/>
      <point x="297" y="694"/>
      <point x="382" y="723" type="curve"/>
      <point x="374" y="743" type="line"/>
      <point x="174" y="693"/>
      <point x="153" y="580"/>
      <point x="153" y="470" type="curve" smooth="yes"/>
      <point x="153" y="362"/>
      <point x="161" y="328"/>
      <point x="125" y="302" type="curve" smooth="yes"/>
      <point x="107" y="289"/>
      <point x="73" y="279"/>
      <point x="52" y="277" type="curve"/>
      <point x="52" y="262" type="line"/>
      <point x="73" y="261"/>
      <point x="107" y="252"/>
      <point x="125" y="237" type="curve" smooth="yes"/>
      <point x="166" y="203"/>
      <point x="153" y="137"/>
      <point x="153" y="39" type="curve" smooth="yes"/>
      <point x="153" y="-37"/>
      <point x="196" y="-175"/>
      <point x="374" y="-220" type="curve"/>
      <point x="382" y="-200" type="line"/>
      <point x="297" y="-171"/>
      <point x="281" y="-126"/>
    </contour>
  </outline>
</glyph>
<glyph name="bar" format="2">
  <advance width="231"/>
  <unicode hex="007C"/>
  <outline>
    <contour>
      <point x="85" y="720" type="line"/>
      <point x="85" y="-140" type="line"/>
      <point x="146" y="-140" type="line"/>
      <point x="146" y="720" type="line"/>
    </contour>
  </outline>
</glyph>
<glyph name="asciitilde" format="2">
  <advance width="453"/>
  <unicode hex="007E"/>
  <outline>
    <contour>
      <point x="338" y="238" type="curve" smooth="yes"/>
      <point x="290" y="238"/>
      <point x="152" y="298"/>
      <point x="119" y="298" type="curve" smooth="yes"/>
      <point x="106" y="298"/>
      <point x="88" y="275"/>
      <point x="61" y="239" type="curve"/>
      <point x="30" y="255" type="line"/>
      <point x="64" y="318"/>
      <point x="99" y="391"/>
      <point x="124" y="391" type="curve" smooth="yes"/>
      <point x="166" y="391"/>
      <point x="295" y="330"/>
      <point x="341" y="330" type="curve" smooth="yes"/>
      <point x="355" y="330"/>
      <point x="366" y="347"/>
      <point x="393" y="392" type="curve"/>
      <point x="423" y="380" type="line"/>
      <point x="395" y="314"/>
      <point x="371" y="238"/>
    </contour>
  </outline>
</glyph>
<glyph name="cent" format="2">
  <advance width="578"/>
  <unicode hex="00A2"/>
  <outline>
    <component base="c"/>
    <contour>
      <point x="266" y="643" type="line"/>
      <point x="266" y="505" type="line"/>
      <point x="325" y="505" type="line"/>
      <point x="325" y="643" type="line"/>
    </contour>
    <contour>
      <point x="266" y="-1" type="line"/>
      <point x="266" y="-143" type="line"/>
      <point x="325" y="-143" type="line"/>
      <point x="325" y="-1" type="line"/>
    </contour>
  </outline>
</glyph>
<glyph name="sterling" format="2">
  <advance width="607"/>
  <unicode hex="00A3"/>
  <outline>
    <contour>
      <point x="225" y="567" type="curve" smooth="yes"/>
      <point x="225" y="633"/>
      <point x="268" y="676"/>
      <point x="332" y="676" type="curve" smooth="yes"/>
      <point x="401" y="676"/>
      <point x="476" y="631"/>
      <point x="493" y="459" type="curve"/>
      <point x="521" y="459" type="line"/>
      <point x="557" y="619" type="line"/>
      <point x="520" y="663"/>
      <point x="439" y="721"/>
      <point x="331" y="721" type="curve" smooth="yes"/>
      <point x="235" y="721"/>
      <point x="91" y="667"/>
      <point x="89" y="547" type="curve" smooth="yes"/>
      <point x="87" y="428"/>
      <point x="171" y="348"/>
      <point x="171" y="237" type="curve" smooth="yes"/>
      <point x="171" y="170"/>
      <point x="129" y="79"/>
      <point x="53" y="31" type="curve"/>
      <point x="62" y="0" type="line"/>
      <point x="514" y="0" type="line"/>
      <point x="565" y="215" type="line"/>
      <point x="524" y="215" type="line"/>
      <point x="484" y="81"/>
      <point x="463" y="60"/>
      <point x="384" y="59" type="curve" smooth="yes"/>
      <point x="164" y="57" type="line"/>
      <point x="185" y="67"/>
      <point x="303" y="147"/>
      <point x="303" y="291" type="curve" smooth="yes"/>
      <point x="303" y="392"/>
      <point x="225" y="466"/>
    </contour>
    <contour>
      <point x="454" y="396" type="line"/>
      <point x="43" y="395" type="line"/>
      <point x="43" y="343" type="line"/>
      <point x="445" y="343" type="line"/>
    </contour>
    <contour>
      <point x="453" y="290" type="line"/>
      <point x="42" y="289" type="line"/>
      <point x="42" y="237" type="line"/>
      <point x="444" y="237" type="line"/>
    </contour>
  </outline>
</glyph>
<glyph name="currency" format="2">
  <advance width="596"/>
  <unicode hex="00A4"/>
  <outline>
    <contour>
      <point x="298" y="120" type="curve" smooth="yes"/>
      <point x="410" y="120"/>
      <point x="494" y="204"/>
      <point x="494" y="317" type="curve" smooth="yes"/>
      <point x="494" y="429"/>
      <point x="410" y="513"/>
      <point x="298" y="513" type="curve" smooth="yes"/>
      <point x="186" y="513"/>
      <point x="102" y="429"/>
      <point x="102" y="317" type="curve" smooth="yes"/>
      <point x="102" y="204"/>
      <point x="186" y="120"/>
    </contour>
    <contour>
      <point x="298" y="186" type="curve" smooth="yes"/>
      <point x="223" y="186"/>
      <point x="171" y="242"/>
      <point x="171" y="317" type="curve" smooth="yes"/>
      <point x="171" y="392"/>
      <point x="223" y="447"/>
      <point x="298" y="447" type="curve" smooth="yes"/>
      <point x="373" y="447"/>
      <point x="425" y="392"/>
      <point x="425" y="317" type="curve" smooth="yes"/>
      <point x="425" y="242"/>
      <point x="373" y="186"/>
    </contour>
    <contour>
      <point x="50" y="518" type="line"/>
      <point x="175" y="391" type="line"/>
      <point x="212" y="430" type="line"/>
      <point x="87" y="557" type="line"/>
    </contour>
    <contour>
      <point x="546" y="514" type="line"/>
      <point x="508" y="552" type="line"/>
      <point x="384" y="426" type="line"/>
      <point x="421" y="387" type="line"/>
    </contour>
    <contour>
      <point x="50" y="112" type="line"/>
      <point x="87" y="73" type="line"/>
      <point x="212" y="200" type="line"/>
      <point x="175" y="239" type="line"/>
    </contour>
    <contour>
      <point x="546" y="116" type="line"/>
      <point x="421" y="243" type="line"/>
      <point x="384" y="204" type="line"/>
      <point x="508" y="78" type="line"/>
    </contour>
  </outline>
</glyph>
<glyph name="yen" format="2">
  <advance width="626"/>
  <unicode hex="00A5"/>
  <outline>
    <contour>
      <point x="509" y="328" type="line"/>
      <point x="149" y="327" type="line"/>
      <point x="149" y="275" type="line"/>
      <point x="509" y="275" type="line"/>
    </contour>
    <contour>
      <point x="509" y="222" type="line"/>
      <point x="148" y="221" type="line"/>
      <point x="148" y="169" type="line"/>
      <point x="509" y="169" type="line"/>
    </contour>
    <contour>
      <point x="-49" y="678" type="line"/>
      <point x="0" y="678" type="line" smooth="yes"/>
      <point x="41" y="678"/>
      <point x="51" y="655"/>
      <point x="85" y="600" type="curve" smooth="yes"/>
      <point x="263" y="311" type="line"/>
      <point x="263" y="71" type="line" smooth="yes"/>
      <point x="263" y="23"/>
      <point x="226" y="29"/>
      <point x="161" y="27" type="curve"/>
      <point x="161" y="0" type="line"/>
      <point x="506" y="0" type="line"/>
      <point x="506" y="27" type="line"/>
      <point x="441" y="29"/>
      <point x="406" y="23"/>
      <point x="406" y="71" type="curve" smooth="yes"/>
      <point x="406" y="329" type="line"/>
      <point x="557" y="616" type="line" smooth="yes"/>
      <point x="578" y="656"/>
      <point x="585" y="678"/>
      <point x="631" y="678" type="curve" smooth="yes"/>
      <point x="682" y="678" type="line"/>
      <point x="682" y="705" type="line"/>
      <point x="417" y="705" type="line"/>
      <point x="417" y="678" type="line"/>
      <point x="487" y="678" type="line" smooth="yes"/>
      <point x="534" y="678"/>
      <point x="532" y="660"/>
      <point x="497" y="596" type="curve" smooth="yes"/>
      <point x="377" y="377" type="line"/>
      <point x="221" y="625" type="line" smooth="yes"/>
      <point x="196" y="665"/>
      <point x="206" y="678"/>
      <point x="249" y="678" type="curve" smooth="yes"/>
      <point x="314" y="678" type="line"/>
      <point x="314" y="705" type="line"/>
      <point x="-49" y="705" type="line"/>
    </contour>
  </outline>
</glyph>
<glyph name="brokenbar" format="2">
  <advance width="231"/>
  <unicode hex="00A6"/>
  <outline>
    <contour>
      <point x="85" y="720" type="line"/>
      <point x="85" y="349" type="line"/>
      <point x="146" y="349" type="line"/>
      <point x="146" y="720" type="line"/>
    </contour>
    <contour>
      <point x="85" y="231" type="line"/>
      <point x="85" y="-140" type="line"/>
      <point x="146" y="-140" type="line"/>
      <point x="146" y="231" type="line"/>
    </contour>
  </outline>
</glyph>
<glyph name="section" format="2">
  <advance width="580"/>
  <unicode hex="00A7"/>
  <outline>
    <contour>
      <point x="91" y="61" type="line"/>
      <point x="75" y="-89" type="line"/>
      <point x="117" y="-123"/>
      <point x="202" y="-153"/>
      <point x="289" y="-153" type="curve" smooth="yes"/>
      <point x="406" y="-153"/>
      <point x="508" y="-90"/>
      <point x="508" y="10" type="curve" smooth="yes"/>
      <point x="508" y="80"/>
      <point x="460" y="113"/>
      <point x="370" y="143" type="curve" smooth="yes"/>
      <point x="260" y="179" type="line" smooth="yes"/>
      <point x="213" y="194"/>
      <point x="181" y="219"/>
      <point x="181" y="265" type="curve" smooth="yes"/>
      <point x="181" y="306"/>
      <point x="219" y="341"/>
      <point x="284" y="341" type="curve"/>
      <point x="286" y="376" type="line"/>
      <point x="163" y="376"/>
      <point x="70" y="325"/>
      <point x="70" y="225" type="curve" smooth="yes"/>
      <point x="70" y="138"/>
      <point x="130" y="94"/>
      <point x="200" y="70" type="curve" smooth="yes"/>
      <point x="295" y="37" type="line" smooth="yes"/>
      <point x="357" y="15"/>
      <point x="400" y="6"/>
      <point x="400" y="-38" type="curve" smooth="yes"/>
      <point x="400" y="-77"/>
      <point x="364" y="-117"/>
      <point x="294" y="-117" type="curve" smooth="yes"/>
      <point x="212" y="-117"/>
      <point x="129" y="-65"/>
      <point x="113" y="61" type="curve"/>
    </contour>
    <contour>
      <point x="437" y="463" type="curve"/>
      <point x="459" y="463" type="line"/>
      <point x="489" y="600" type="line"/>
      <point x="461" y="619"/>
      <point x="378" y="650"/>
      <point x="288" y="650" type="curve" smooth="yes"/>
      <point x="165" y="650"/>
      <point x="72" y="599"/>
      <point x="72" y="507" type="curve" smooth="yes"/>
      <point x="72" y="420"/>
      <point x="135" y="384"/>
      <point x="205" y="358" type="curve" smooth="yes"/>
      <point x="300" y="323" type="line" smooth="yes"/>
      <point x="362" y="300"/>
      <point x="402" y="288"/>
      <point x="402" y="244" type="curve" smooth="yes"/>
      <point x="402" y="205"/>
      <point x="366" y="165"/>
      <point x="296" y="165" type="curve"/>
      <point x="291" y="129" type="line"/>
      <point x="408" y="129"/>
      <point x="510" y="192"/>
      <point x="510" y="292" type="curve" smooth="yes"/>
      <point x="510" y="362"/>
      <point x="465" y="397"/>
      <point x="375" y="428" type="curve" smooth="yes"/>
      <point x="265" y="466" type="line" smooth="yes"/>
      <point x="218" y="482"/>
      <point x="183" y="497"/>
      <point x="183" y="542" type="curve" smooth="yes"/>
      <point x="183" y="580"/>
      <point x="221" y="615"/>
      <point x="286" y="615" type="curve" smooth="yes"/>
      <point x="362" y="615"/>
      <point x="423" y="569"/>
    </contour>
  </outline>
</glyph>
<glyph name="copyright" format="2">
  <advance width="884"/>
  <unicode hex="00A9"/>
  <outline>
    <contour>
      <point x="442" y="672" type="curve" smooth="yes"/>
      <point x="627" y="672"/>
      <point x="764" y="536"/>
      <point x="764" y="347" type="curve" smooth="yes"/>
      <point x="764" y="157"/>
      <point x="627" y="23"/>
      <point x="442" y="23" type="curve" smooth="yes"/>
      <point x="256" y="23"/>
      <point x="122" y="158"/>
      <point x="122" y="347" type="curve" smooth="yes"/>
      <point x="122" y="536"/>
      <point x="256" y="672"/>
    </contour>
    <contour>
      <point x="454" y="574" type="curve" smooth="yes"/>
      <point x="531" y="574"/>
      <point x="586" y="541"/>
      <point x="638" y="499" type="curve"/>
      <point x="606" y="378" type="line"/>
      <point x="583" y="379" type="line"/>
      <point x="567" y="481"/>
      <point x="521" y="535"/>
      <point x="457" y="535" type="curve" smooth="yes"/>
      <point x="385" y="535"/>
      <point x="341" y="477"/>
      <point x="341" y="384" type="curve" smooth="yes"/>
      <point x="341" y="273"/>
      <point x="410" y="199"/>
      <point x="487" y="199" type="curve" smooth="yes"/>
      <point x="534" y="199"/>
      <point x="578" y="219"/>
      <point x="620" y="285" type="curve"/>
      <point x="643" y="272" type="line"/>
      <point x="609" y="194"/>
      <point x="550" y="132"/>
      <point x="452" y="132" type="curve" smooth="yes"/>
      <point x="321" y="132"/>
      <point x="229" y="224"/>
      <point x="229" y="353" type="curve" smooth="yes"/>
      <point x="229" y="472"/>
      <point x="318" y="574"/>
    </contour>
    <contour>
      <point x="442" y="735" type="curve" smooth="yes"/>
      <point x="220" y="735"/>
      <point x="50" y="573"/>
      <point x="50" y="347" type="curve" smooth="yes"/>
      <point x="50" y="121"/>
      <point x="220" y="-40"/>
      <point x="442" y="-40" type="curve" smooth="yes"/>
      <point x="663" y="-40"/>
      <point x="834" y="121"/>
      <point x="834" y="347" type="curve" smooth="yes"/>
      <point x="834" y="573"/>
      <point x="663" y="735"/>
    </contour>
  </outline>
</glyph>
<glyph name="ordfeminine" format="2">
  <advance width="341"/>
  <unicode hex="00AA"/>
  <outline>
    <contour>
      <point x="187" y="450" type="line"/>
      <point x="341" y="450" type="line"/>
      <point x="341" y="474" type="line"/>
      <point x="312" y="475"/>
      <point x="278" y="473"/>
      <point x="278" y="510" type="curve" smooth="yes"/>
      <point x="278" y="667" type="line" smooth="yes"/>
      <point x="278" y="728"/>
      <point x="219" y="771"/>
      <point x="143" y="771" type="curve" smooth="yes"/>
      <point x="39" y="771"/>
      <point x="2" y="710"/>
      <point x="3" y="654" type="curve"/>
      <point x="35" y="654" type="line"/>
      <point x="37" y="695"/>
      <point x="62" y="730"/>
      <point x="112" y="730" type="curve" smooth="yes"/>
      <point x="165" y="730"/>
      <point x="191" y="695"/>
      <point x="190" y="655" type="curve" smooth="yes"/>
    </contour>
    <contour>
      <point x="200" y="532" type="line"/>
      <point x="151" y="500"/>
      <point x="141" y="492"/>
      <point x="119" y="492" type="curve" smooth="yes"/>
      <point x="102" y="492"/>
      <point x="80" y="503"/>
      <point x="80" y="534" type="curve" smooth="yes"/>
      <point x="80" y="558"/>
      <point x="94" y="571"/>
      <point x="115" y="578" type="curve" smooth="yes"/>
      <point x="137" y="585"/>
      <point x="165" y="593"/>
      <point x="200" y="603" type="curve"/>
      <point x="200" y="633" type="line"/>
      <point x="173" y="628"/>
      <point x="145" y="620"/>
      <point x="96" y="609" type="curve" smooth="yes"/>
      <point x="50" y="600"/>
      <point x="0" y="575"/>
      <point x="0" y="521" type="curve" smooth="yes"/>
      <point x="0" y="469"/>
      <point x="46" y="445"/>
      <point x="83" y="445" type="curve" smooth="yes"/>
      <point x="131" y="445"/>
      <point x="157" y="465"/>
      <point x="201" y="504" type="curve"/>
    </contour>
  </outline>
</glyph>
<glyph name="logicalnot" format="2">
  <advance width="595"/>
  <unicode hex="00AC"/>
  <outline>
    <contour>
      <point x="535" y="415" type="line"/>
      <point x="50" y="415" type="line"/>
      <point x="50" y="354" type="line"/>
      <point x="535" y="354" type="line"/>
    </contour>
    <contour>
      <point x="535" y="138" type="line"/>
      <point x="535" y="404" type="line"/>
      <point x="474" y="404" type="line"/>
      <point x="474" y="138" type="line"/>
    </contour>
  </outline>
</glyph>
<glyph name="registered" format="2">
  <advance width="600"/>
  <unicode hex="00AE"/>
  <outline>
    <contour>
      <point x="436" y="356" type="line" smooth="yes"/>
      <point x="397" y="360"/>
      <point x="364" y="430"/>
      <point x="347" y="464" type="curve"/>
      <point x="290" y="460" type="line"/>
      <point x="328" y="398"/>
      <point x="340" y="337"/>
      <point x="403" y="337" type="curve" smooth="yes"/>
      <point x="447" y="337" type="line"/>
      <point x="447" y="355" type="line"/>
    </contour>
    <contour>
      <point x="170" y="595" type="line"/>
      <point x="207" y="595"/>
      <point x="209" y="595"/>
      <point x="209" y="575" type="curve" smooth="yes"/>
      <point x="209" y="371" type="line" smooth="yes"/>
      <point x="209" y="352"/>
      <point x="193" y="355"/>
      <point x="170" y="355" type="curve"/>
      <point x="170" y="336" type="line"/>
      <point x="306" y="336" type="line"/>
      <point x="306" y="355" type="line"/>
      <point x="284" y="355"/>
      <point x="267" y="352"/>
      <point x="267" y="371" type="curve" smooth="yes"/>
      <point x="267" y="454" type="line"/>
      <point x="294" y="454" type="line" smooth="yes"/>
      <point x="370" y="454"/>
      <point x="412" y="495"/>
      <point x="412" y="541" type="curve" smooth="yes"/>
      <point x="412" y="583"/>
      <point x="370" y="614"/>
      <point x="306" y="614" type="curve" smooth="yes"/>
      <point x="170" y="614" type="line"/>
    </contour>
    <contour>
      <point x="267" y="481" type="line"/>
      <point x="267" y="590" type="line"/>
      <point x="289" y="590" type="line" smooth="yes"/>
      <point x="331" y="590"/>
      <point x="355" y="572"/>
      <point x="355" y="536" type="curve" smooth="yes"/>
      <point x="355" y="505"/>
      <point x="331" y="481"/>
      <point x="293" y="481" type="curve" smooth="yes"/>
    </contour>
    <contour>
      <point x="296" y="679" type="curve" smooth="yes"/>
      <point x="417" y="679"/>
      <point x="505" y="589"/>
      <point x="505" y="467" type="curve" smooth="yes"/>
      <point x="505" y="342"/>
      <point x="417" y="253"/>
      <point x="296" y="253" type="curve" smooth="yes"/>
      <point x="174" y="253"/>
      <point x="88" y="342"/>
      <point x="88" y="467" type="curve" smooth="yes"/>
      <point x="88" y="589"/>
      <point x="174" y="679"/>
    </contour>
    <contour>
      <point x="296" y="720" type="curve" smooth="yes"/>
      <point x="151" y="720"/>
      <point x="39" y="614"/>
      <point x="39" y="466" type="curve" smooth="yes"/>
      <point x="39" y="318"/>
      <point x="151" y="212"/>
      <point x="296" y="212" type="curve" smooth="yes"/>
      <point x="440" y="212"/>
      <point x="553" y="318"/>
      <point x="553" y="466" type="curve" smooth="yes"/>
      <point x="553" y="614"/>
      <point x="440" y="720"/>
    </contour>
  </outline>
</glyph>
<glyph name="degree" format="2">
  <advance width="209"/>
  <unicode hex="00B0"/>
  <outline>
    <contour>
      <point x="84" y="550" type="curve" smooth="yes"/>
      <point x="133" y="550"/>
      <point x="169" y="587"/>
      <point x="169" y="636" type="curve" smooth="yes"/>
      <point x="169" y="684"/>
      <point x="133" y="720"/>
      <point x="84" y="720" type="curve" smooth="yes"/>
      <point x="35" y="720"/>
      <point x="0" y="684"/>
      <point x="0" y="636" type="curve" smooth="yes"/>
      <point x="0" y="587"/>
      <point x="35" y="550"/>
    </contour>
    <contour>
      <point x="84" y="589" type="curve" smooth="yes"/>
      <point x="58" y="589"/>
      <point x="41" y="609"/>
      <point x="41" y="636" type="curve" smooth="yes"/>
      <point x="41" y="662"/>
      <point x="58" y="681"/>
      <point x="84" y="681" type="curve" smooth="yes"/>
      <point x="110" y="681"/>
      <point x="127" y="662"/>
      <point x="127" y="636" type="curve" smooth="yes"/>
      <point x="127" y="609"/>
      <point x="110" y="589"/>
    </contour>
  </outline>
</glyph>
<glyph name="plusminus" format="2">
  <advance width="605"/>
  <unicode hex="00B1"/>
  <outline>
    <contour>
      <point x="535" y="415" type="line"/>
      <point x="60" y="415" type="line"/>
      <point x="60" y="355" type="line"/>
      <point x="535" y="355" type="line"/>
    </contour>
    <contour>
      <point x="333" y="224" type="line"/>
      <point x="333" y="545" type="line"/>
      <point x="272" y="545" type="line"/>
      <point x="272" y="224" type="line"/>
    </contour>
    <contour>
      <point x="545" y="135" type="line"/>
      <point x="70" y="135" type="line"/>
      <point x="70" y="72" type="line"/>
      <point x="545" y="72" type="line"/>
    </contour>
  </outline>
</glyph>
<glyph name="twosuperior" format="2">
  <advance width="375"/>
  <unicode hex="00B2"/>
  <outline>
    <contour>
      <point x="63" y="587" type="curve"/>
      <point x="31" y="590" type="line"/>
      <point x="51" y="683"/>
      <point x="112" y="720"/>
      <point x="179" y="720" type="curve" smooth="yes"/>
      <point x="253" y="720"/>
      <point x="310" y="674"/>
      <point x="310" y="607" type="curve" smooth="yes"/>
      <point x="309" y="535"/>
      <point x="251" y="499"/>
      <point x="185" y="443" type="curve" smooth="yes"/>
      <point x="104" y="374" type="line"/>
      <point x="235" y="374" type="line" smooth="yes"/>
      <point x="278" y="374"/>
      <point x="285" y="396"/>
      <point x="299" y="439" type="curve"/>
      <point x="321" y="439" type="line"/>
      <point x="297" y="324" type="line"/>
      <point x="30" y="324" type="line"/>
      <point x="30" y="354" type="line"/>
      <point x="130" y="455" type="line" smooth="yes"/>
      <point x="182" y="507"/>
      <point x="224" y="543"/>
      <point x="224" y="600" type="curve" smooth="yes"/>
      <point x="224" y="647"/>
      <point x="195" y="675"/>
      <point x="154" y="675" type="curve" smooth="yes"/>
      <point x="116" y="675"/>
      <point x="84" y="652"/>
    </contour>
  </outline>
</glyph>
<glyph name="threesuperior" format="2">
  <advance width="354"/>
  <unicode hex="00B3"/>
  <outline>
    <contour>
      <point x="68" y="629" type="curve"/>
      <point x="50" y="645" type="line"/>
      <point x="73" y="684"/>
      <point x="113" y="720"/>
      <point x="178" y="720" type="curve" smooth="yes"/>
      <point x="234" y="720"/>
      <point x="289" y="690"/>
      <point x="289" y="632" type="curve" smooth="yes"/>
      <point x="289" y="556"/>
      <point x="179" y="532"/>
      <point x="149" y="534" type="curve"/>
      <point x="147" y="541" type="line"/>
      <point x="234" y="547"/>
      <point x="315" y="513"/>
      <point x="315" y="434" type="curve" smooth="yes"/>
      <point x="315" y="366"/>
      <point x="235" y="320"/>
      <point x="163" y="320" type="curve" smooth="yes"/>
      <point x="107" y="320"/>
      <point x="65" y="337"/>
      <point x="43" y="353" type="curve"/>
      <point x="62" y="452" type="line"/>
      <point x="81" y="452" type="line"/>
      <point x="76" y="387"/>
      <point x="111" y="351"/>
      <point x="157" y="351" type="curve" smooth="yes"/>
      <point x="206" y="351"/>
      <point x="229" y="385"/>
      <point x="229" y="425" type="curve" smooth="yes"/>
      <point x="229" y="483"/>
      <point x="182" y="523"/>
      <point x="99" y="512" type="curve"/>
      <point x="92" y="537" type="line"/>
      <point x="154" y="557"/>
      <point x="211" y="572"/>
      <point x="211" y="628" type="curve" smooth="yes"/>
      <point x="211" y="655"/>
      <point x="193" y="680"/>
      <point x="155" y="680" type="curve" smooth="yes"/>
      <point x="121" y="680"/>
      <point x="95" y="661"/>
    </contour>
  </outline>
</glyph>
<glyph name="micro" format="2">
  <advance width="701"/>
  <unicode hex="00B5"/>
  <outline>
    <contour>
      <point x="16" y="440" type="line"/>
      <point x="91" y="457"/>
      <point x="103" y="454"/>
      <point x="103" y="416" type="curve" smooth="yes"/>
      <point x="103" y="-241" type="line"/>
      <point x="239" y="-241" type="line"/>
      <point x="239" y="3" type="line"/>
      <point x="252" y="-1"/>
      <point x="268" y="-3"/>
      <point x="287" y="-3" type="curve" smooth="yes"/>
      <point x="349" y="-3"/>
      <point x="400" y="47"/>
      <point x="442" y="99" type="curve"/>
      <point x="442" y="0" type="line"/>
      <point x="681" y="0" type="line"/>
      <point x="681" y="27" type="line"/>
      <point x="596" y="28"/>
      <point x="580" y="32"/>
      <point x="580" y="91" type="curve" smooth="yes"/>
      <point x="580" y="518" type="line"/>
      <point x="355" y="467" type="line"/>
      <point x="355" y="440" type="line"/>
      <point x="430" y="457"/>
      <point x="442" y="454"/>
      <point x="442" y="416" type="curve" smooth="yes"/>
      <point x="442" y="147" type="line"/>
      <point x="413" y="118"/>
      <point x="363" y="74"/>
      <point x="311" y="74" type="curve" smooth="yes"/>
      <point x="272" y="74"/>
      <point x="248" y="92"/>
      <point x="239" y="132" type="curve"/>
      <point x="239" y="518" type="line"/>
      <point x="16" y="467" type="line"/>
    </contour>
  </outline>
</glyph>
<glyph name="paragraph" format="2">
  <advance width="600"/>
  <unicode hex="00B6"/>
  <outline>
    <contour>
      <point x="372" y="705" type="line"/>
      <point x="372" y="-240" type="line"/>
      <point x="433" y="-240" type="line"/>
      <point x="433" y="620" type="line" smooth="yes"/>
      <point x="433" y="668"/>
      <point x="480" y="659"/>
      <point x="535" y="661" type="curve"/>
      <point x="535" y="705" type="line"/>
    </contour>
    <contour>
      <point x="240" y="705" type="line" smooth="yes"/>
      <point x="114" y="705"/>
      <point x="20" y="620"/>
      <point x="20" y="502" type="curve" smooth="yes"/>
      <point x="20" y="384"/>
      <point x="114" y="300"/>
      <point x="240" y="299.002" type="curve"/>
      <point x="240" y="-240" type="line"/>
      <point x="301" y="-240" type="line"/>
      <point x="301" y="705" type="line"/>
    </contour>
    <contour>
      <point x="284" y="705" type="line"/>
      <point x="284" y="656" type="line"/>
      <point x="448" y="656" type="line"/>
      <point x="448" y="705" type="line"/>
    </contour>
  </outline>
</glyph>
<glyph name="onesuperior" format="2">
  <advance width="317"/>
  <unicode hex="00B9"/>
  <outline>
    <contour>
      <point x="35" y="639" type="line"/>
      <point x="35" y="673" type="line"/>
      <point x="185" y="719" type="line"/>
      <point x="190" y="719" type="line"/>
      <point x="190" y="378" type="line" smooth="yes"/>
      <point x="190" y="350"/>
      <point x="213" y="350"/>
      <point x="269" y="349" type="curve"/>
      <point x="269" y="323" type="line"/>
      <point x="32" y="323" type="line"/>
      <point x="32" y="349" type="line"/>
      <point x="81" y="350"/>
      <point x="111" y="350"/>
      <point x="111" y="378" type="curve" smooth="yes"/>
      <point x="111" y="661" type="line"/>
    </contour>
  </outline>
</glyph>
<glyph name="ordmasculine" format="2">
  <advance width="340"/>
  <unicode hex="00BA"/>
  <outline>
    <contour>
      <point x="170" y="447" type="curve" smooth="yes"/>
      <point x="265" y="447"/>
      <point x="340" y="515"/>
      <point x="340" y="611" type="curve" smooth="yes"/>
      <point x="340" y="706"/>
      <point x="259" y="771"/>
      <point x="170" y="771" type="curve" smooth="yes"/>
      <point x="81" y="771"/>
      <point x="0" y="706"/>
      <point x="0" y="611" type="curve" smooth="yes"/>
      <point x="0" y="515"/>
      <point x="75" y="447"/>
    </contour>
    <contour>
      <point x="170" y="738" type="curve" smooth="yes"/>
      <point x="224" y="738"/>
      <point x="248" y="688"/>
      <point x="248" y="613" type="curve" smooth="yes"/>
      <point x="248" y="536"/>
      <point x="224" y="481"/>
      <point x="170" y="481" type="curve" smooth="yes"/>
      <point x="115" y="481"/>
      <point x="92" y="536"/>
      <point x="92" y="613" type="curve" smooth="yes"/>
      <point x="92" y="688"/>
      <point x="117" y="738"/>
    </contour>
  </outline>
</glyph>
<glyph name="onequarter" format="2">
  <advance width="818"/>
  <unicode hex="00BC"/>
  <outline>
    <component base="one.numr"/>
    <contour>
      <point x="200" y="0" type="line"/>
      <point x="716" y="705" type="line"/>
      <point x="647" y="705" type="line"/>
      <point x="131" y="0" type="line"/>
    </contour>
    <component base="four.dnom" xOffset="427"/>
  </outline>
</glyph>
<glyph name="onehalf" format="2">
  <advance width="868"/>
  <unicode hex="00BD"/>
  <outline>
    <component base="one.numr"/>
    <contour>
      <point x="200" y="0" type="line"/>
      <point x="716" y="705" type="line"/>
      <point x="647" y="705" type="line"/>
      <point x="131" y="0" type="line"/>
    </contour>
    <component base="two.dnom" xOffset="487"/>
  </outline>
</glyph>
<glyph name="threequarters" format="2">
  <advance width="895"/>
  <unicode hex="00BE"/>
  <outline>
    <contour>
      <point x="227" y="0" type="line"/>
      <point x="743" y="705" type="line"/>
      <point x="674" y="705" type="line"/>
      <point x="158" y="0" type="line"/>
    </contour>
    <component base="three.numr"/>
    <component base="four.dnom" xOffset="504"/>
  </outline>
</glyph>
<glyph name="AE" format="2">
  <advance width="1145"/>
  <unicode hex="00C6"/>
  <outline>
    <contour>
      <point x="286" y="314" type="line"/>
      <point x="272" y="274" type="line"/>
      <point x="565" y="274" type="line"/>
      <point x="579" y="314" type="line"/>
    </contour>
    <contour>
      <point x="535" y="673" type="line"/>
      <point x="110" y="92" type="line" smooth="yes"/>
      <point x="71" y="38"/>
      <point x="21" y="29"/>
      <point x="-45" y="27" type="curve"/>
      <point x="-45" y="0" type="line"/>
      <point x="234" y="0" type="line"/>
      <point x="233" y="27" type="line"/>
      <point x="158" y="29"/>
      <point x="116" y="22"/>
      <point x="151" y="71" type="curve" smooth="yes"/>
      <point x="582" y="662" type="line"/>
    </contour>
    <contour>
      <point x="428" y="0" type="line"/>
      <point x="1050" y="0" type="line"/>
      <point x="1095" y="229" type="line"/>
      <point x="1070" y="229" type="line"/>
      <point x="1044" y="125"/>
      <point x="997" y="37"/>
      <point x="878" y="37" type="curve" smooth="yes"/>
      <point x="673" y="37" type="line"/>
      <point x="673" y="338" type="line"/>
      <point x="842" y="338" type="line" smooth="yes"/>
      <point x="891" y="338"/>
      <point x="941" y="309"/>
      <point x="943" y="222" type="curve"/>
      <point x="970" y="222" type="line"/>
      <point x="970" y="489" type="line"/>
      <point x="943" y="489" type="line"/>
      <point x="941" y="401"/>
      <point x="891" y="376"/>
      <point x="842" y="376" type="curve" smooth="yes"/>
      <point x="673" y="376" type="line"/>
      <point x="673" y="669" type="line"/>
      <point x="847" y="669" type="line" smooth="yes"/>
      <point x="927" y="669"/>
      <point x="1013" y="638"/>
      <point x="1039" y="472" type="curve"/>
      <point x="1067" y="472" type="line"/>
      <point x="1037" y="705" type="line"/>
      <point x="428" y="705" type="line"/>
      <point x="428" y="678" type="line"/>
      <point x="503" y="675"/>
      <point x="530" y="680"/>
      <point x="530" y="637" type="curve" smooth="yes"/>
      <point x="530" y="68" type="line" smooth="yes"/>
      <point x="530" y="25"/>
      <point x="503" y="30"/>
      <point x="428" y="27" type="curve"/>
    </contour>
  </outline>
</glyph>
<glyph name="Eth" format="2">
  <advance width="797"/>
  <unicode hex="00D0"/>
  <outline>
    <contour>
      <point x="428" y="336" type="line"/>
      <point x="428" y="377" type="line"/>
      <point x="49" y="377" type="line"/>
      <point x="49" y="336" type="line"/>
    </contour>
    <component base="D"/>
  </outline>
</glyph>
<glyph name="multiply" format="2">
  <advance width="587"/>
  <unicode hex="00D7"/>
  <outline>
    <contour>
      <point x="527" y="131" type="line"/>
      <point x="105" y="553" type="line"/>
      <point x="60" y="508" type="line"/>
      <point x="482" y="86" type="line"/>
    </contour>
    <contour>
      <point x="104" y="86" type="line"/>
      <point x="526" y="508" type="line"/>
      <point x="482" y="553" type="line"/>
      <point x="60" y="131" type="line"/>
    </contour>
  </outline>
</glyph>
<glyph name="Oslash" format="2">
  <advance width="844"/>
  <unicode hex="00D8"/>
  <outline>
    <contour>
      <point x="204" y="-12" type="line"/>
      <point x="685" y="715" type="line"/>
      <point x="621" y="715" type="line"/>
      <point x="136" y="-12" type="line"/>
    </contour>
    <component base="O"/>
  </outline>
</glyph>
<glyph name="Thorn" format="2">
  <advance width="712"/>
  <unicode hex="00DE"/>
  <outline>
    <contour>
      <point x="270" y="567" type="line"/>
      <point x="270" y="627" type="line" smooth="yes"/>
      <point x="270" y="680"/>
      <point x="274" y="678"/>
      <point x="372" y="678" type="curve"/>
      <point x="372" y="705" type="line"/>
      <point x="25" y="705" type="line"/>
      <point x="25" y="678" type="line"/>
      <point x="123" y="678"/>
      <point x="127" y="680"/>
      <point x="127" y="627" type="curve" smooth="yes"/>
      <point x="127" y="68" type="line" smooth="yes"/>
      <point x="127" y="20"/>
      <point x="85" y="29"/>
      <point x="25" y="27" type="curve"/>
      <point x="25" y="0" type="line"/>
      <point x="372" y="0" type="line"/>
      <point x="372" y="27" type="line"/>
      <point x="304" y="29"/>
      <point x="270" y="20"/>
      <point x="270" y="71" type="curve" smooth="yes"/>
      <point x="270" y="155" type="line"/>
      <point x="349" y="155" type="line" smooth="yes"/>
      <point x="553" y="155"/>
      <point x="677" y="243"/>
      <point x="677" y="369" type="curve" smooth="yes"/>
      <point x="677" y="505"/>
      <point x="547" y="567"/>
      <point x="396" y="567" type="curve" smooth="yes"/>
    </contour>
    <contour>
      <point x="270" y="197" type="line"/>
      <point x="270" y="533" type="line"/>
      <point x="326" y="533" type="line" smooth="yes"/>
      <point x="436" y="533"/>
      <point x="528" y="475"/>
      <point x="528" y="370" type="curve" smooth="yes"/>
      <point x="528" y="260"/>
      <point x="450" y="197"/>
      <point x="337" y="197" type="curve" smooth="yes"/>
    </contour>
  </outline>
</glyph>
<glyph name="germandbls" format="2">
  <advance width="718"/>
  <unicode hex="00DF"/>
  <outline>
    <contour>
      <point x="25" y="0" type="line"/>
      <point x="25" y="27" type="line"/>
      <point x="74" y="29"/>
      <point x="112" y="24"/>
      <point x="112" y="68" type="curve" smooth="yes"/>
      <point x="112" y="559" type="line" smooth="yes"/>
      <point x="112" y="690"/>
      <point x="220" y="771"/>
      <point x="365" y="771" type="curve" smooth="yes"/>
      <point x="488" y="771"/>
      <point x="590" y="708"/>
      <point x="590" y="620" type="curve" smooth="yes"/>
      <point x="590" y="477"/>
      <point x="437" y="477"/>
      <point x="437" y="437" type="curve" smooth="yes"/>
      <point x="437" y="369"/>
      <point x="668" y="328"/>
      <point x="668" y="157" type="curve" smooth="yes"/>
      <point x="668" y="48"/>
      <point x="578" y="-12"/>
      <point x="488" y="-12" type="curve" smooth="yes"/>
      <point x="397" y="-12"/>
      <point x="339" y="19"/>
      <point x="304" y="49" type="curve"/>
      <point x="335" y="187" type="line"/>
      <point x="357" y="187" type="line"/>
      <point x="359" y="88"/>
      <point x="395" y="27"/>
      <point x="468" y="27" type="curve" smooth="yes"/>
      <point x="520" y="27"/>
      <point x="540" y="82"/>
      <point x="540" y="142" type="curve" smooth="yes"/>
      <point x="540" y="277"/>
      <point x="326" y="308"/>
      <point x="326" y="404" type="curve" smooth="yes"/>
      <point x="326" y="488"/>
      <point x="463" y="479"/>
      <point x="463" y="625" type="curve" smooth="yes"/>
      <point x="463" y="699"/>
      <point x="422" y="736"/>
      <point x="365" y="736" type="curve" smooth="yes"/>
      <point x="290" y="736"/>
      <point x="250" y="669"/>
      <point x="250" y="559" type="curve" smooth="yes"/>
      <point x="250" y="0" type="line"/>
    </contour>
  </outline>
</glyph>
<glyph name="ae" format="2">
  <advance width="914"/>
  <unicode hex="00E6"/>
  <outline>
    <contour>
      <point x="174" y="135" type="curve" smooth="yes"/>
      <point x="174" y="175"/>
      <point x="197" y="198"/>
      <point x="235" y="211" type="curve" smooth="yes"/>
      <point x="267" y="222"/>
      <point x="306" y="232"/>
      <point x="360" y="247" type="curve"/>
      <point x="360" y="214" type="line" smooth="yes"/>
      <point x="360" y="104"/>
      <point x="293" y="58"/>
      <point x="244" y="58" type="curve" smooth="yes"/>
      <point x="207" y="58"/>
      <point x="174" y="80"/>
    </contour>
    <contour>
      <point x="449" y="300" type="line"/>
      <point x="870" y="300" type="line"/>
      <point x="865" y="425"/>
      <point x="771" y="518"/>
      <point x="630" y="518" type="curve" smooth="yes"/>
      <point x="556" y="518"/>
      <point x="495" y="495"/>
      <point x="450" y="458" type="curve"/>
      <point x="411" y="495"/>
      <point x="351" y="518"/>
      <point x="281" y="518" type="curve" smooth="yes"/>
      <point x="114" y="518"/>
      <point x="58" y="419"/>
      <point x="59" y="330" type="curve"/>
      <point x="96" y="330" type="line"/>
      <point x="100" y="403"/>
      <point x="144" y="460"/>
      <point x="231" y="460" type="curve" smooth="yes"/>
      <point x="316" y="460"/>
      <point x="359" y="402"/>
      <point x="359" y="331" type="curve" smooth="yes"/>
      <point x="359" y="287" type="line"/>
      <point x="315" y="278"/>
      <point x="273" y="267"/>
      <point x="204" y="253" type="curve" smooth="yes"/>
      <point x="129" y="238"/>
      <point x="50" y="202"/>
      <point x="50" y="114" type="curve" smooth="yes"/>
      <point x="50" y="31"/>
      <point x="117" y="-8"/>
      <point x="199" y="-8" type="curve" smooth="yes"/>
      <point x="268" y="-8"/>
      <point x="351" y="25"/>
      <point x="390" y="129" type="curve"/>
      <point x="429" y="39"/>
      <point x="524" y="-11"/>
      <point x="629" y="-11" type="curve" smooth="yes"/>
      <point x="748" y="-11"/>
      <point x="818" y="47"/>
      <point x="875" y="153" type="curve"/>
      <point x="850" y="166" type="line"/>
      <point x="816" y="106"/>
      <point x="750" y="73"/>
      <point x="690" y="73" type="curve" smooth="yes"/>
      <point x="580" y="73"/>
      <point x="496" y="160"/>
      <point x="496" y="297" type="curve" smooth="yes"/>
      <point x="496" y="411"/>
      <point x="539" y="483"/>
      <point x="618" y="483" type="curve" smooth="yes"/>
      <point x="680" y="483"/>
      <point x="724" y="442"/>
      <point x="736" y="334" type="curve"/>
      <point x="449" y="334" type="line"/>
    </contour>
  </outline>
</glyph>
<glyph name="eth" format="2">
  <advance width="646"/>
  <unicode hex="00F0"/>
  <outline>
    <contour>
      <point x="466" y="329" type="curve"/>
      <point x="482" y="448" type="line"/>
      <point x="434" y="502"/>
      <point x="375" y="518"/>
      <point x="309" y="518" type="curve" smooth="yes"/>
      <point x="175" y="518"/>
      <point x="44" y="409"/>
      <point x="44" y="252" type="curve" smooth="yes"/>
      <point x="44" y="116"/>
      <point x="157" y="-11"/>
      <point x="324" y="-11" type="curve" smooth="yes"/>
      <point x="483" y="-11"/>
      <point x="602" y="112"/>
      <point x="602" y="301" type="curve" smooth="yes"/>
      <point x="602" y="439"/>
      <point x="519" y="644"/>
      <point x="217" y="771" type="curve"/>
      <point x="198" y="740" type="line"/>
      <point x="398" y="627"/>
      <point x="466" y="528"/>
      <point x="466" y="317" type="curve" smooth="yes"/>
      <point x="466" y="126"/>
      <point x="417" y="40"/>
      <point x="339" y="40" type="curve" smooth="yes"/>
      <point x="246" y="40"/>
      <point x="187" y="140"/>
      <point x="187" y="278" type="curve" smooth="yes"/>
      <point x="187" y="394"/>
      <point x="229" y="470"/>
      <point x="312" y="470" type="curve" smooth="yes"/>
      <point x="387" y="470"/>
      <point x="455" y="396"/>
    </contour>
    <contour>
      <point x="234" y="544" type="line"/>
      <point x="537" y="729" type="line"/>
      <point x="507" y="778" type="line"/>
      <point x="204" y="592" type="line"/>
    </contour>
  </outline>
</glyph>
<glyph name="divide" format="2">
  <advance width="605"/>
  <unicode hex="00F7"/>
  <outline>
    <contour>
      <point x="293" y="449" type="curve" smooth="yes"/>
      <point x="254" y="449"/>
      <point x="218" y="479"/>
      <point x="218" y="522" type="curve" smooth="yes"/>
      <point x="218" y="565"/>
      <point x="254" y="595"/>
      <point x="293" y="595" type="curve" smooth="yes"/>
      <point x="332" y="595"/>
      <point x="368" y="565"/>
      <point x="368" y="522" type="curve" smooth="yes"/>
      <point x="368" y="479"/>
      <point x="332" y="449"/>
    </contour>
    <contour>
      <point x="293" y="54" type="curve" smooth="yes"/>
      <point x="254" y="54"/>
      <point x="218" y="84"/>
      <point x="218" y="127" type="curve" smooth="yes"/>
      <point x="218" y="170"/>
      <point x="254" y="200"/>
      <point x="293" y="200" type="curve" smooth="yes"/>
      <point x="332" y="200"/>
      <point x="368" y="170"/>
      <point x="368" y="127" type="curve" smooth="yes"/>
      <point x="368" y="84"/>
      <point x="332" y="54"/>
    </contour>
    <component base="minus"/>
  </outline>
</glyph>
<glyph name="oslash" format="2">
  <advance width="640"/>
  <unicode hex="00F8"/>
  <outline>
    <contour>
      <point x="152" y="-30" type="line"/>
      <point x="546" y="518" type="line"/>
      <point x="494" y="518" type="line"/>
      <point x="97" y="-30" type="line"/>
    </contour>
    <component base="o"/>
  </outline>
</glyph>
<glyph name="thorn" format="2">
  <advance width="689"/>
  <unicode hex="00FE"/>
  <outline>
    <contour>
      <point x="237" y="394" type="line"/>
      <point x="295" y="434"/>
      <point x="326" y="455"/>
      <point x="361" y="455" type="curve" smooth="yes"/>
      <point x="440" y="455"/>
      <point x="514" y="391"/>
      <point x="514" y="248" type="curve" smooth="yes"/>
      <point x="514" y="107"/>
      <point x="434" y="31"/>
      <point x="356" y="31" type="curve" smooth="yes"/>
      <point x="300" y="31"/>
      <point x="261" y="67"/>
      <point x="237" y="91" type="curve"/>
      <point x="131" y="59" type="line"/>
      <point x="157" y="39"/>
      <point x="229" y="-11"/>
      <point x="351" y="-11" type="curve" smooth="yes"/>
      <point x="507" y="-11"/>
      <point x="645" y="96"/>
      <point x="645" y="279" type="curve" smooth="yes"/>
      <point x="645" y="448"/>
      <point x="518" y="517"/>
      <point x="401" y="517" type="curve" smooth="yes"/>
      <point x="341" y="517"/>
      <point x="264" y="462"/>
      <point x="237" y="445" type="curve"/>
    </contour>
    <contour>
      <point x="22" y="692" type="line"/>
      <point x="97" y="712"/>
      <point x="109" y="712"/>
      <point x="109" y="655" type="curve" smooth="yes"/>
      <point x="109" y="-162" type="line" smooth="yes"/>
      <point x="109" y="-210"/>
      <point x="67" y="-211"/>
      <point x="22" y="-213" type="curve"/>
      <point x="22" y="-240" type="line"/>
      <point x="386" y="-240" type="line"/>
      <point x="386" y="-213" type="line"/>
      <point x="291" y="-211"/>
      <point x="245" y="-210"/>
      <point x="245" y="-162" type="curve" smooth="yes"/>
      <point x="245" y="771" type="line"/>
      <point x="22" y="720" type="line"/>
    </contour>
  </outline>
</glyph>
<glyph name="dcroat" format="2">
  <advance width="695"/>
  <unicode hex="0111"/>
  <guideline x="689" y="27" angle="270"/>
  <outline>
    <contour>
      <point x="689" y="625" type="line"/>
      <point x="250" y="625" type="line"/>
      <point x="250" y="590" type="line"/>
      <point x="689" y="590" type="line"/>
    </contour>
    <component base="d"/>
  </outline>
</glyph>
<glyph name="Hbar" format="2">
  <advance width="888"/>
  <unicode hex="0126"/>
  <outline>
    <component base="H"/>
    <contour>
      <point x="59" y="524" type="line"/>
      <point x="828" y="524" type="line"/>
      <point x="828" y="566" type="line"/>
      <point x="59" y="566" type="line"/>
    </contour>
  </outline>
</glyph>
<glyph name="hbar" format="2">
  <advance width="690"/>
  <unicode hex="0127"/>
  <outline>
    <component base="h"/>
    <contour>
      <point x="19" y="625" type="line"/>
      <point x="19" y="590" type="line"/>
      <point x="365" y="590" type="line"/>
      <point x="365" y="625" type="line"/>
    </contour>
  </outline>
</glyph>
<glyph name="iogonek" format="2">
  <advance width="350"/>
  <unicode hex="012F"/>
  <outline>
    <component base="idotless"/>
    <component base="ogonekcomb" xOffset="55"/>
    <contour>
      <point x="190" y="607" type="curve" smooth="yes"/>
      <point x="147" y="607"/>
      <point x="105" y="640"/>
      <point x="105" y="689" type="curve" smooth="yes"/>
      <point x="105" y="738"/>
      <point x="147" y="771"/>
      <point x="190" y="771" type="curve" smooth="yes"/>
      <point x="233" y="771"/>
      <point x="275" y="738"/>
      <point x="275" y="689" type="curve" smooth="yes"/>
      <point x="275" y="640"/>
      <point x="233" y="607"/>
    </contour>
  </outline>
</glyph>
<glyph name="idotless" format="2">
  <advance width="356"/>
  <unicode hex="0131"/>
  <anchor x="182" y="0" name="bottom"/>
  <anchor x="230" y="0" name="ogonek"/>
  <anchor x="182" y="505" name="top"/>
  <outline>
    <contour>
      <point x="30" y="440" type="line"/>
      <point x="115" y="457"/>
      <point x="117" y="454"/>
      <point x="117" y="397" type="curve" smooth="yes"/>
      <point x="117" y="72" type="line" smooth="yes"/>
      <point x="117" y="24"/>
      <point x="75" y="29"/>
      <point x="30" y="27" type="curve"/>
      <point x="30" y="0" type="line"/>
      <point x="340" y="0" type="line"/>
      <point x="340" y="27" type="line"/>
      <point x="285" y="29"/>
      <point x="253" y="24"/>
      <point x="253" y="72" type="curve" smooth="yes"/>
      <point x="253" y="518" type="line"/>
      <point x="30" y="468" type="line"/>
    </contour>
  </outline>
</glyph>
<glyph name="Lslash" format="2">
  <advance width="681"/>
  <unicode hex="0141"/>
  <outline>
    <component base="L"/>
    <contour>
      <point x="45" y="288" type="line"/>
      <point x="435" y="511" type="line"/>
      <point x="411" y="552" type="line"/>
      <point x="21" y="329" type="line"/>
    </contour>
  </outline>
</glyph>
<glyph name="lslash" format="2">
  <advance width="354"/>
  <unicode hex="0142"/>
  <outline>
    <contour>
      <point x="32" y="288" type="line"/>
      <point x="330" y="471" type="line"/>
      <point x="310" y="502" type="line"/>
      <point x="12" y="319" type="line"/>
    </contour>
    <component base="l" xOffset="1"/>
  </outline>
</glyph>
<glyph name="Eng" format="2">
  <advance width="811"/>
  <unicode hex="014A"/>
  <anchor x="408" y="0" name="bottom"/>
  <anchor x="408" y="705" name="top"/>
  <outline>
    <contour>
      <point x="637" y="0" type="curve"/>
      <point x="186" y="559" type="line"/>
      <point x="186" y="78" type="line" smooth="yes"/>
      <point x="186" y="30"/>
      <point x="213" y="29"/>
      <point x="288" y="27" type="curve"/>
      <point x="288" y="0" type="line"/>
      <point x="25" y="0" type="line"/>
      <point x="25" y="27" type="line"/>
      <point x="88" y="29"/>
      <point x="136" y="30"/>
      <point x="136" y="78" type="curve" smooth="yes"/>
      <point x="136" y="633" type="line"/>
      <point x="100" y="676"/>
      <point x="94" y="676"/>
      <point x="25" y="678" type="curve"/>
      <point x="25" y="705" type="line"/>
      <point x="244" y="705" type="line"/>
      <point x="642" y="209" type="line"/>
      <point x="642" y="625" type="line" smooth="yes"/>
      <point x="642" y="675"/>
      <point x="625" y="676"/>
      <point x="540" y="678" type="curve"/>
      <point x="540" y="705" type="line"/>
      <point x="796" y="705" type="line"/>
      <point x="796" y="678" type="line"/>
      <point x="722" y="678"/>
      <point x="692" y="675"/>
      <point x="692" y="625" type="curve" smooth="yes"/>
      <point x="692" y="9" type="line"/>
      <point x="692" y="-131"/>
      <point x="625" y="-186"/>
      <point x="520" y="-186" type="curve"/>
      <point x="520" y="-162" type="line"/>
      <point x="605" y="-159"/>
      <point x="637" y="-97"/>
    </contour>
  </outline>
</glyph>
<glyph name="eng" format="2">
  <advance width="669"/>
  <unicode hex="014B"/>
  <outline>
    <contour>
      <point x="603" y="62" type="curve" smooth="yes"/>
      <point x="603" y="364" type="line" smooth="yes"/>
      <point x="603" y="457"/>
      <point x="556" y="518"/>
      <point x="449" y="518" type="curve" smooth="yes"/>
      <point x="387" y="518"/>
      <point x="312" y="461"/>
      <point x="255" y="426" type="curve"/>
      <point x="255" y="516" type="line"/>
      <point x="30" y="465" type="line"/>
      <point x="30" y="438" type="line"/>
      <point x="115" y="455"/>
      <point x="117" y="453"/>
      <point x="117" y="396" type="curve" smooth="yes"/>
      <point x="117" y="72" type="line" smooth="yes"/>
      <point x="117" y="24"/>
      <point x="75" y="29"/>
      <point x="30" y="27" type="curve"/>
      <point x="30" y="0" type="line"/>
      <point x="342" y="0" type="line"/>
      <point x="342" y="27" type="line"/>
      <point x="292" y="29"/>
      <point x="255" y="24"/>
      <point x="255" y="72" type="curve" smooth="yes"/>
      <point x="255" y="381" type="line"/>
      <point x="289" y="403"/>
      <point x="339" y="449"/>
      <point x="388" y="449" type="curve" smooth="yes"/>
      <point x="443" y="449"/>
      <point x="467" y="415"/>
      <point x="467" y="345" type="curve" smooth="yes"/>
      <point x="467" y="-46" type="line" smooth="yes"/>
      <point x="467" y="-159"/>
      <point x="440" y="-163"/>
      <point x="364" y="-193" type="curve"/>
      <point x="376" y="-217" type="line"/>
      <point x="555" y="-179"/>
      <point x="603" y="-123"/>
    </contour>
  </outline>
</glyph>
<glyph name="OE" format="2">
  <advance width="1139"/>
  <unicode hex="0152"/>
  <outline>
    <contour>
      <point x="422" y="0" type="curve" smooth="yes"/>
      <point x="1044" y="0" type="line"/>
      <point x="1089" y="229" type="line"/>
      <point x="1064" y="229" type="line"/>
      <point x="1038" y="125"/>
      <point x="991" y="37"/>
      <point x="872" y="37" type="curve" smooth="yes"/>
      <point x="667" y="37" type="line"/>
      <point x="667" y="338" type="line"/>
      <point x="836" y="338" type="line" smooth="yes"/>
      <point x="885" y="338"/>
      <point x="935" y="309"/>
      <point x="937" y="222" type="curve"/>
      <point x="964" y="222" type="line"/>
      <point x="964" y="489" type="line"/>
      <point x="937" y="489" type="line"/>
      <point x="935" y="401"/>
      <point x="885" y="376"/>
      <point x="836" y="376" type="curve" smooth="yes"/>
      <point x="667" y="376" type="line"/>
      <point x="667" y="669" type="line"/>
      <point x="841" y="669" type="line" smooth="yes"/>
      <point x="921" y="669"/>
      <point x="1007" y="638"/>
      <point x="1033" y="472" type="curve"/>
      <point x="1061" y="472" type="line"/>
      <point x="1031" y="705" type="line"/>
      <point x="422" y="705" type="line" smooth="yes"/>
      <point x="205" y="705"/>
      <point x="50" y="565"/>
      <point x="50" y="354" type="curve" smooth="yes"/>
      <point x="50" y="154"/>
      <point x="200" y="0"/>
    </contour>
    <contour>
      <point x="422" y="27" type="curve" smooth="yes"/>
      <point x="294" y="27"/>
      <point x="210" y="180"/>
      <point x="210" y="354" type="curve" smooth="yes"/>
      <point x="210" y="552"/>
      <point x="294" y="678"/>
      <point x="422" y="678" type="curve"/>
      <point x="497" y="675"/>
      <point x="524" y="680"/>
      <point x="524" y="637" type="curve" smooth="yes"/>
      <point x="524" y="68" type="line" smooth="yes"/>
      <point x="524" y="25"/>
      <point x="497" y="27"/>
    </contour>
  </outline>
</glyph>
<glyph name="oe" format="2">
  <advance width="1020"/>
  <unicode hex="0153"/>
  <outline>
    <contour>
      <point x="318" y="-11" type="curve" smooth="yes"/>
      <point x="403" y="-11"/>
      <point x="475" y="17"/>
      <point x="531" y="77" type="curve"/>
      <point x="582" y="18"/>
      <point x="658" y="-11"/>
      <point x="735" y="-11" type="curve" smooth="yes"/>
      <point x="854" y="-11"/>
      <point x="924" y="47"/>
      <point x="981" y="153" type="curve"/>
      <point x="956" y="166" type="line"/>
      <point x="922" y="106"/>
      <point x="856" y="73"/>
      <point x="796" y="73" type="curve" smooth="yes"/>
      <point x="686" y="73"/>
      <point x="602" y="160"/>
      <point x="602" y="297" type="curve" smooth="yes"/>
      <point x="602" y="298"/>
      <point x="602" y="299"/>
      <point x="602" y="300" type="curve"/>
      <point x="976" y="300" type="line"/>
      <point x="971" y="425"/>
      <point x="877" y="518"/>
      <point x="736" y="518" type="curve" smooth="yes"/>
      <point x="649" y="518"/>
      <point x="576" y="486"/>
      <point x="530" y="429" type="curve"/>
      <point x="472" y="488"/>
      <point x="399" y="518"/>
      <point x="319" y="518" type="curve" smooth="yes"/>
      <point x="175" y="518"/>
      <point x="44" y="414"/>
      <point x="44" y="256" type="curve" smooth="yes"/>
      <point x="44" y="97"/>
      <point x="165" y="-11"/>
    </contour>
    <contour>
      <point x="187" y="259" type="curve" smooth="yes"/>
      <point x="187" y="394"/>
      <point x="229" y="481"/>
      <point x="320" y="481" type="curve" smooth="yes"/>
      <point x="412" y="481"/>
      <point x="453" y="394"/>
      <point x="453" y="259" type="curve" smooth="yes"/>
      <point x="453" y="124"/>
      <point x="412" y="26"/>
      <point x="320" y="26" type="curve" smooth="yes"/>
      <point x="227" y="26"/>
      <point x="187" y="124"/>
    </contour>
    <contour>
      <point x="604" y="334" type="line"/>
      <point x="612" y="426"/>
      <point x="654" y="483"/>
      <point x="724" y="483" type="curve" smooth="yes"/>
      <point x="786" y="483"/>
      <point x="830" y="442"/>
      <point x="842" y="334" type="curve"/>
    </contour>
  </outline>
</glyph>
<glyph name="Tbar" format="2">
  <advance width="700"/>
  <unicode hex="0166"/>
  <outline>
    <contour>
      <point x="574" y="422" type="line"/>
      <point x="126" y="422" type="line"/>
      <point x="126" y="380" type="line"/>
      <point x="574" y="380" type="line"/>
    </contour>
    <component base="T"/>
  </outline>
</glyph>
<glyph name="tbar" format="2">
  <advance width="422"/>
  <unicode hex="0167"/>
  <outline>
    <contour>
      <point x="29" y="365" type="line"/>
      <point x="29" y="332" type="line"/>
      <point x="393" y="332" type="line"/>
      <point x="393" y="365" type="line"/>
    </contour>
    <component base="t"/>
  </outline>
</glyph>
<glyph name="Schwa" format="2">
  <advance width="757"/>
  <unicode hex="018F"/>
  <outline>
    <contour>
      <point x="595" y="282" type="line"/>
      <point x="42" y="282" type="line"/>
      <point x="40" y="119"/>
      <point x="174" y="-11"/>
      <point x="361" y="-11" type="curve" smooth="yes"/>
      <point x="581" y="-11"/>
      <point x="707" y="166"/>
      <point x="707" y="357" type="curve" smooth="yes"/>
      <point x="707" y="577"/>
      <point x="543" y="720"/>
      <point x="362" y="720" type="curve" smooth="yes"/>
      <point x="191" y="720"/>
      <point x="64" y="597"/>
      <point x="40" y="451" type="curve"/>
      <point x="73" y="451" type="line"/>
      <point x="114" y="572"/>
      <point x="196" y="629"/>
      <point x="296" y="629" type="curve" smooth="yes"/>
      <point x="447" y="629"/>
      <point x="545" y="508"/>
      <point x="545" y="295" type="curve" smooth="yes"/>
      <point x="545" y="117"/>
      <point x="471" y="25"/>
      <point x="373" y="25" type="curve" smooth="yes"/>
      <point x="281" y="25"/>
      <point x="212" y="100"/>
      <point x="207" y="240" type="curve"/>
      <point x="595" y="240" type="line"/>
    </contour>
  </outline>
</glyph>
<glyph name="florin" format="2">
  <advance width="630"/>
  <unicode hex="0192"/>
  <outline>
    <contour>
      <point x="141" y="476" type="line"/>
      <point x="141" y="424" type="line"/>
      <point x="497" y="424" type="line"/>
      <point x="497" y="476" type="line"/>
    </contour>
    <contour>
      <point x="241" y="163" type="line" smooth="yes"/>
      <point x="241" y="76"/>
      <point x="219" y="25"/>
      <point x="163" y="25" type="curve" smooth="yes"/>
      <point x="111" y="25"/>
      <point x="86" y="63"/>
      <point x="83" y="182" type="curve"/>
      <point x="61" y="182" type="line"/>
      <point x="26" y="68" type="line"/>
      <point x="76" y="13"/>
      <point x="109" y="-11"/>
      <point x="180" y="-11" type="curve" smooth="yes"/>
      <point x="291" y="-11"/>
      <point x="373" y="54"/>
      <point x="373" y="146" type="curve" smooth="yes"/>
      <point x="372" y="567" type="line" smooth="yes"/>
      <point x="372" y="664"/>
      <point x="397" y="725"/>
      <point x="462" y="725" type="curve" smooth="yes"/>
      <point x="521" y="725"/>
      <point x="549" y="681"/>
      <point x="552" y="552" type="curve"/>
      <point x="574" y="552" type="line"/>
      <point x="615" y="677" type="line"/>
      <point x="565" y="732"/>
      <point x="513" y="761"/>
      <point x="442" y="761" type="curve" smooth="yes"/>
      <point x="322" y="761"/>
      <point x="240" y="676"/>
      <point x="240" y="574" type="curve" smooth="yes"/>
    </contour>
  </outline>
</glyph>
<glyph name="jdotless" format="2">
  <advance width="317"/>
  <unicode hex="0237"/>
  <outline>
    <contour>
      <point x="-56" y="-213" type="curve"/>
      <point x="-44" y="-240" type="line"/>
      <point x="73" y="-201"/>
      <point x="220" y="-157"/>
      <point x="220" y="29" type="curve" smooth="yes"/>
      <point x="220" y="516" type="line"/>
      <point x="-13" y="463" type="line"/>
      <point x="-13" y="435" type="line"/>
      <point x="78" y="448"/>
      <point x="84" y="453"/>
      <point x="84" y="413" type="curve"/>
      <point x="84" y="-51" type="line" smooth="yes"/>
      <point x="84" y="-131"/>
      <point x="63" y="-174"/>
    </contour>
  </outline>
</glyph>
<glyph name="schwa" format="2">
  <advance width="598"/>
  <unicode hex="0259"/>
  <outline>
    <contour>
      <point x="465" y="205" type="line"/>
      <point x="44" y="205" type="line"/>
      <point x="49" y="80"/>
      <point x="143" y="-11"/>
      <point x="284" y="-11" type="curve" smooth="yes"/>
      <point x="455" y="-11"/>
      <point x="554" y="108"/>
      <point x="554" y="254" type="curve" smooth="yes"/>
      <point x="554" y="419"/>
      <point x="428" y="516"/>
      <point x="290" y="516" type="curve" smooth="yes"/>
      <point x="171" y="516"/>
      <point x="96" y="458"/>
      <point x="41" y="352" type="curve"/>
      <point x="67" y="338" type="line"/>
      <point x="98" y="398"/>
      <point x="165" y="432"/>
      <point x="226" y="432" type="curve" smooth="yes"/>
      <point x="335" y="432"/>
      <point x="418" y="345"/>
      <point x="418" y="208" type="curve" smooth="yes"/>
      <point x="418" y="94"/>
      <point x="375" y="24"/>
      <point x="296" y="24" type="curve" smooth="yes"/>
      <point x="234" y="24"/>
      <point x="190" y="63"/>
      <point x="178" y="171" type="curve"/>
      <point x="465" y="171" type="line"/>
    </contour>
  </outline>
</glyph>
<glyph name="tildecomb" format="2">
  <advance width="418"/>
  <unicode hex="0303"/>
  <guideline x="-51" y="0" angle="0"/>
  <anchor x="209" y="505" name="_top"/>
  <anchor x="209" y="726" name="top"/>
  <outline>
    <contour>
      <point x="300" y="603" type="curve" smooth="yes"/>
      <point x="263" y="603"/>
      <point x="151" y="655"/>
      <point x="113" y="655" type="curve" smooth="yes"/>
      <point x="104" y="655"/>
      <point x="85" y="636"/>
      <point x="64" y="605" type="curve"/>
      <point x="40" y="616" type="line"/>
      <point x="71" y="664"/>
      <point x="108" y="728"/>
      <point x="124" y="728" type="curve" smooth="yes"/>
      <point x="157" y="728"/>
      <point x="270" y="676"/>
      <point x="308" y="676" type="curve" smooth="yes"/>
      <point x="324" y="676"/>
      <point x="335" y="691"/>
      <point x="357" y="726" type="curve"/>
      <point x="378" y="718" type="line"/>
      <point x="354" y="669"/>
      <point x="322" y="603"/>
    </contour>
  </outline>
</glyph>
<glyph name="macroncomb" format="2">
  <advance width="359"/>
  <unicode hex="0304"/>
  <anchor x="180" y="505" name="_top"/>
  <anchor x="180" y="671" name="top"/>
  <outline>
    <contour>
      <point x="319" y="681" type="line"/>
      <point x="319" y="620" type="line"/>
      <point x="40" y="620" type="line"/>
      <point x="40" y="681" type="line"/>
    </contour>
  </outline>
</glyph>
<glyph name="brevecomb" format="2">
  <advance width="372"/>
  <unicode hex="0306"/>
  <anchor x="186" y="505" name="_top"/>
  <anchor x="186" y="730" name="top"/>
  <outline>
    <contour>
      <point x="40" y="755" type="curve"/>
      <point x="71" y="755" type="line"/>
      <point x="78" y="694"/>
      <point x="122" y="656"/>
      <point x="186" y="656" type="curve" smooth="yes"/>
      <point x="251" y="656"/>
      <point x="295" y="694"/>
      <point x="301" y="755" type="curve"/>
      <point x="332" y="755" type="line"/>
      <point x="332" y="650"/>
      <point x="272" y="583"/>
      <point x="186" y="583" type="curve" smooth="yes"/>
      <point x="100" y="583"/>
      <point x="39" y="647"/>
    </contour>
  </outline>
</glyph>
<glyph name="dotaccentcomb" format="2">
  <advance width="220"/>
  <unicode hex="0307"/>
  <anchor x="110" y="505" name="_top"/>
  <anchor x="110" y="727" name="top"/>
  <outline>
    <contour>
      <point x="110" y="611" type="curve" smooth="yes"/>
      <point x="74" y="611"/>
      <point x="40" y="639"/>
      <point x="40" y="679" type="curve" smooth="yes"/>
      <point x="40" y="719"/>
      <point x="74" y="747"/>
      <point x="110" y="747" type="curve" smooth="yes"/>
      <point x="146" y="747"/>
      <point x="180" y="719"/>
      <point x="180" y="679" type="curve" smooth="yes"/>
      <point x="180" y="639"/>
      <point x="146" y="611"/>
    </contour>
  </outline>
</glyph>
<glyph name="dieresiscomb" format="2">
  <advance width="456"/>
  <unicode hex="0308"/>
  <anchor x="228" y="505" name="_top"/>
  <anchor x="228" y="732" name="top"/>
  <outline>
    <contour>
      <point x="110" y="611" type="curve" smooth="yes"/>
      <point x="74" y="611"/>
      <point x="40" y="639"/>
      <point x="40" y="679" type="curve" smooth="yes"/>
      <point x="40" y="719"/>
      <point x="74" y="747"/>
      <point x="110" y="747" type="curve" smooth="yes"/>
      <point x="146" y="747"/>
      <point x="180" y="719"/>
      <point x="180" y="679" type="curve" smooth="yes"/>
      <point x="180" y="639"/>
      <point x="146" y="611"/>
    </contour>
    <contour>
      <point x="346" y="611" type="curve" smooth="yes"/>
      <point x="310" y="611"/>
      <point x="276" y="639"/>
      <point x="276" y="679" type="curve" smooth="yes"/>
      <point x="276" y="719"/>
      <point x="310" y="747"/>
      <point x="346" y="747" type="curve" smooth="yes"/>
      <point x="382" y="747"/>
      <point x="416" y="719"/>
      <point x="416" y="679" type="curve" smooth="yes"/>
      <point x="416" y="639"/>
      <point x="382" y="611"/>
    </contour>
  </outline>
</glyph>
<glyph name="ringcomb" format="2">
  <advance width="288"/>
  <unicode hex="030A"/>
  <anchor x="143" y="505" name="_top"/>
  <anchor x="143" y="747" name="top"/>
  <outline>
    <contour>
      <point x="145" y="569" type="curve" smooth="yes"/>
      <point x="201" y="569"/>
      <point x="248" y="614"/>
      <point x="248" y="669" type="curve" smooth="yes"/>
      <point x="248" y="723"/>
      <point x="201" y="767"/>
      <point x="145" y="767" type="curve" smooth="yes"/>
      <point x="89" y="767"/>
      <point x="40" y="723"/>
      <point x="40" y="669" type="curve" smooth="yes"/>
      <point x="40" y="614"/>
      <point x="89" y="569"/>
    </contour>
    <contour>
      <point x="145" y="608" type="curve" smooth="yes"/>
      <point x="112" y="608"/>
      <point x="96" y="635"/>
      <point x="96" y="669" type="curve" smooth="yes"/>
      <point x="96" y="701"/>
      <point x="111" y="728"/>
      <point x="145" y="728" type="curve" smooth="yes"/>
      <point x="179" y="728"/>
      <point x="192" y="701"/>
      <point x="192" y="669" type="curve" smooth="yes"/>
      <point x="192" y="635"/>
      <point x="178" y="608"/>
    </contour>
  </outline>
</glyph>
<glyph name="commaaccentcomb" format="2">
  <advance width="229"/>
  <unicode hex="0326"/>
  <anchor x="119" y="0" name="_bottom"/>
  <anchor x="119" y="-333" name="bottom"/>
  <outline>
    <contour>
      <point x="59" y="-284" type="line"/>
      <point x="113" y="-251"/>
      <point x="148" y="-210"/>
      <point x="152" y="-166" type="curve"/>
      <point x="142" y="-177"/>
      <point x="127" y="-189"/>
      <point x="104" y="-189" type="curve" smooth="yes"/>
      <point x="70" y="-189"/>
      <point x="40" y="-162"/>
      <point x="40" y="-121" type="curve" smooth="yes"/>
      <point x="40" y="-86"/>
      <point x="68" y="-55"/>
      <point x="110" y="-55" type="curve" smooth="yes"/>
      <point x="155" y="-55"/>
      <point x="189" y="-89"/>
      <point x="189" y="-147" type="curve" smooth="yes"/>
      <point x="189" y="-215"/>
      <point x="144" y="-269"/>
      <point x="74" y="-306" type="curve"/>
    </contour>
  </outline>
</glyph>
<glyph name="cedillacomb" format="2">
  <advance width="281"/>
  <unicode hex="0327"/>
  <anchor x="104" y="0" name="_bottom"/>
  <anchor x="133" y="-243" name="bottom"/>
  <outline>
    <contour>
      <point x="98" y="13" type="line"/>
      <point x="40" y="-116" type="line"/>
      <point x="66" y="-128" type="line"/>
      <point x="82" y="-110"/>
      <point x="103" y="-102"/>
      <point x="122" y="-102" type="curve" smooth="yes"/>
      <point x="143" y="-102"/>
      <point x="166" y="-113"/>
      <point x="166" y="-143" type="curve" smooth="yes"/>
      <point x="166" y="-179"/>
      <point x="138" y="-204"/>
      <point x="45" y="-219" type="curve"/>
      <point x="50" y="-243" type="line"/>
      <point x="169" y="-232"/>
      <point x="241" y="-184"/>
      <point x="241" y="-120" type="curve" smooth="yes"/>
      <point x="241" y="-75"/>
      <point x="202" y="-47"/>
      <point x="163" y="-47" type="curve" smooth="yes"/>
      <point x="140" y="-47"/>
      <point x="123" y="-54"/>
      <point x="100" y="-68" type="curve"/>
      <point x="136" y="13" type="line"/>
    </contour>
  </outline>
</glyph>
<glyph name="ogonekcomb" format="2">
  <advance width="322"/>
  <unicode hex="0328"/>
  <anchor x="169" y="0" name="_ogonek"/>
  <outline>
    <contour>
      <point x="124" y="0" type="line"/>
      <point x="92" y="-29"/>
      <point x="40" y="-59"/>
      <point x="40" y="-123" type="curve" smooth="yes"/>
      <point x="40" y="-181"/>
      <point x="88" y="-224"/>
      <point x="154" y="-224" type="curve" smooth="yes"/>
      <point x="206" y="-224"/>
      <point x="249" y="-198"/>
      <point x="282" y="-156" type="curve"/>
      <point x="264" y="-137" type="line"/>
      <point x="245" y="-157"/>
      <point x="220" y="-167"/>
      <point x="196" y="-167" type="curve" smooth="yes"/>
      <point x="147" y="-167"/>
      <point x="120" y="-132"/>
      <point x="120" y="-95" type="curve" smooth="yes"/>
      <point x="120" y="-55"/>
      <point x="141" y="-37"/>
      <point x="170" y="0" type="curve"/>
    </contour>
  </outline>
</glyph>
<glyph name="Germandbls" format="2">
  <advance width="790"/>
  <unicode hex="1E9E"/>
  <outline>
    <contour>
      <point x="270" y="0" type="line"/>
      <point x="270" y="705" type="line"/>
      <point x="25" y="705" type="line"/>
      <point x="25" y="678" type="line"/>
      <point x="80" y="676"/>
      <point x="126" y="688"/>
      <point x="126" y="632" type="curve" smooth="yes"/>
      <point x="126" y="78" type="line" smooth="yes"/>
      <point x="126" y="20"/>
      <point x="80" y="29"/>
      <point x="25" y="27" type="curve"/>
      <point x="25" y="0" type="line"/>
    </contour>
    <contour>
      <point x="365" y="344" type="line"/>
      <point x="402" y="361"/>
      <point x="449" y="367"/>
      <point x="471" y="367" type="curve" smooth="yes"/>
      <point x="566" y="367"/>
      <point x="625" y="313"/>
      <point x="625" y="189" type="curve" smooth="yes"/>
      <point x="625" y="75"/>
      <point x="572" y="19"/>
      <point x="511" y="18" type="curve" smooth="yes"/>
      <point x="446" y="17"/>
      <point x="380" y="74"/>
      <point x="391" y="224" type="curve"/>
      <point x="367" y="224" type="line"/>
      <point x="326" y="59" type="line"/>
      <point x="353" y="43"/>
      <point x="417" y="-11"/>
      <point x="524" y="-11" type="curve" smooth="yes"/>
      <point x="662" y="-11"/>
      <point x="768" y="58"/>
      <point x="768" y="197" type="curve" smooth="yes"/>
      <point x="768" y="361"/>
      <point x="628" y="403"/>
      <point x="551" y="403" type="curve" smooth="yes"/>
      <point x="498" y="403"/>
      <point x="488" y="397"/>
      <point x="472" y="390" type="curve"/>
      <point x="480" y="391" type="line"/>
      <point x="711" y="676" type="line"/>
      <point x="711" y="705" type="line"/>
      <point x="161" y="705" type="line"/>
      <point x="161" y="674" type="line"/>
      <point x="549" y="676" type="line"/>
      <point x="364" y="445" type="line"/>
      <point x="364" y="345" type="line"/>
    </contour>
  </outline>
</glyph>
<glyph name="endash" format="2">
  <advance width="625"/>
  <unicode hex="2013"/>
  <outline>
    <contour>
      <point x="0" y="277" type="line"/>
      <point x="0" y="223" type="line"/>
      <point x="625" y="223" type="line"/>
      <point x="625" y="277" type="line"/>
    </contour>
  </outline>
</glyph>
<glyph name="emdash" format="2">
  <advance width="974"/>
  <unicode hex="2014"/>
  <outline>
    <contour>
      <point x="0" y="277" type="line"/>
      <point x="0" y="223" type="line"/>
      <point x="974" y="223" type="line"/>
      <point x="974" y="277" type="line"/>
    </contour>
  </outline>
</glyph>
<glyph name="quotesinglbase" format="2">
  <advance width="234"/>
  <unicode hex="201A"/>
  <outline>
    <contour>
      <point x="65" y="-151" type="line"/>
      <point x="119" y="-115"/>
      <point x="157" y="-54"/>
      <point x="163" y="9" type="curve"/>
      <point x="153" y="-1"/>
      <point x="141" y="-11"/>
      <point x="116" y="-11" type="curve" smooth="yes"/>
      <point x="79" y="-11"/>
      <point x="48" y="22"/>
      <point x="48" y="63" type="curve" smooth="yes"/>
      <point x="48" y="103"/>
      <point x="79" y="137"/>
      <point x="124" y="137" type="curve" smooth="yes"/>
      <point x="169" y="137"/>
      <point x="204" y="102"/>
      <point x="204" y="37" type="curve" smooth="yes"/>
      <point x="204" y="-45"/>
      <point x="155" y="-125"/>
      <point x="79" y="-169" type="curve"/>
    </contour>
  </outline>
</glyph>
<glyph name="dagger" format="2">
  <advance width="593"/>
  <unicode hex="2020"/>
  <outline>
    <contour>
      <point x="146" y="0" type="line"/>
      <point x="447" y="0" type="line"/>
      <point x="447" y="27" type="line"/>
      <point x="392" y="29"/>
      <point x="343" y="23"/>
      <point x="345" y="71" type="curve" smooth="yes"/>
      <point x="365" y="692" type="line" smooth="yes"/>
      <point x="367" y="740"/>
      <point x="412" y="731"/>
      <point x="467" y="733" type="curve"/>
      <point x="467" y="760" type="line"/>
      <point x="126" y="760" type="line"/>
      <point x="126" y="733" type="line"/>
      <point x="181" y="731"/>
      <point x="226" y="740"/>
      <point x="228" y="692" type="curve" smooth="yes"/>
      <point x="248" y="71" type="line" smooth="yes"/>
      <point x="250" y="23"/>
      <point x="201" y="29"/>
      <point x="146" y="27" type="curve"/>
    </contour>
    <contour>
      <point x="70" y="687" type="line"/>
      <point x="70" y="421" type="line"/>
      <point x="97" y="421" type="line"/>
      <point x="99" y="466"/>
      <point x="93" y="508"/>
      <point x="141" y="513" type="curve" smooth="yes"/>
      <point x="296" y="529" type="line"/>
      <point x="455" y="513" type="line" smooth="yes"/>
      <point x="503" y="508"/>
      <point x="494" y="466"/>
      <point x="496" y="421" type="curve"/>
      <point x="523" y="421" type="line"/>
      <point x="523" y="687" type="line"/>
      <point x="496" y="687" type="line"/>
      <point x="494" y="642"/>
      <point x="503" y="600"/>
      <point x="455" y="595" type="curve" smooth="yes"/>
      <point x="296" y="579" type="line"/>
      <point x="141" y="595" type="line" smooth="yes"/>
      <point x="93" y="600"/>
      <point x="99" y="642"/>
      <point x="97" y="687" type="curve"/>
    </contour>
  </outline>
</glyph>
<glyph name="bullet" format="2">
  <advance width="488"/>
  <unicode hex="2022"/>
  <outline>
    <contour>
      <point x="244" y="122" type="curve" smooth="yes"/>
      <point x="169" y="122"/>
      <point x="100" y="179"/>
      <point x="100" y="262" type="curve" smooth="yes"/>
      <point x="100" y="345"/>
      <point x="169" y="402"/>
      <point x="244" y="402" type="curve" smooth="yes"/>
      <point x="319" y="402"/>
      <point x="388" y="345"/>
      <point x="388" y="262" type="curve" smooth="yes"/>
      <point x="388" y="179"/>
      <point x="319" y="122"/>
    </contour>
  </outline>
</glyph>
<glyph name="perthousand" format="2">
  <advance width="1113"/>
  <unicode hex="2030"/>
  <outline>
    <component base="percent"/>
    <contour>
      <point x="1073" y="151" type="curve" smooth="yes"/>
      <point x="1073" y="73"/>
      <point x="1010" y="-11"/>
      <point x="925" y="-11" type="curve" smooth="yes"/>
      <point x="840" y="-11"/>
      <point x="775" y="73"/>
      <point x="775" y="151" type="curve" smooth="yes"/>
      <point x="775" y="226"/>
      <point x="840" y="315"/>
      <point x="925" y="315" type="curve" smooth="yes"/>
      <point x="1010" y="315"/>
      <point x="1073" y="226"/>
    </contour>
    <contour>
      <point x="925" y="275" type="curve" smooth="yes"/>
      <point x="882" y="275"/>
      <point x="851" y="230"/>
      <point x="851" y="151" type="curve" smooth="yes"/>
      <point x="851" y="73"/>
      <point x="882" y="28"/>
      <point x="925" y="28" type="curve" smooth="yes"/>
      <point x="968" y="28"/>
      <point x="1001" y="73"/>
      <point x="1001" y="151" type="curve" smooth="yes"/>
      <point x="1001" y="230"/>
      <point x="968" y="275"/>
    </contour>
  </outline>
</glyph>
<glyph name="guilsinglleft" format="2">
  <advance width="373"/>
  <unicode hex="2039"/>
  <outline>
    <contour>
      <point x="145" y="254" type="curve"/>
      <point x="205" y="314"/>
      <point x="274" y="419"/>
      <point x="313" y="490" type="curve"/>
      <point x="289" y="508" type="line"/>
      <point x="203" y="419"/>
      <point x="115" y="339"/>
      <point x="0" y="264" type="curve"/>
      <point x="0" y="237" type="line"/>
      <point x="115" y="166"/>
      <point x="203" y="81"/>
      <point x="289" y="-8" type="curve"/>
      <point x="313" y="12" type="line"/>
      <point x="274" y="84"/>
      <point x="205" y="195"/>
    </contour>
  </outline>
</glyph>
<glyph name="zerosuperior" format="2">
  <advance width="374"/>
  <unicode hex="2070"/>
  <guideline x="187" y="320" angle="0"/>
  <outline>
    <contour>
      <point x="359" y="397"/>
      <point x="274" y="320"/>
      <point x="187" y="320" type="curve" smooth="yes"/>
      <point x="99" y="320"/>
      <point x="15" y="397"/>
      <point x="15" y="520" type="curve" smooth="yes"/>
      <point x="15" y="642"/>
      <point x="99" y="720"/>
      <point x="187" y="720" type="curve" smooth="yes"/>
      <point x="274" y="720"/>
      <point x="359" y="642"/>
      <point x="359" y="520" type="curve" smooth="yes"/>
    </contour>
    <contour>
      <point x="187" y="684" type="curve" smooth="yes"/>
      <point x="124" y="684"/>
      <point x="106" y="602"/>
      <point x="106" y="520" type="curve" smooth="yes"/>
      <point x="106" y="438"/>
      <point x="124" y="356"/>
      <point x="187" y="356" type="curve" smooth="yes"/>
      <point x="249" y="356"/>
      <point x="267" y="438"/>
      <point x="267" y="520" type="curve" smooth="yes"/>
      <point x="267" y="602"/>
      <point x="249" y="684"/>
    </contour>
  </outline>
</glyph>
<glyph name="foursuperior" format="2">
  <advance width="399"/>
  <unicode hex="2074"/>
  <outline>
    <contour>
      <point x="30" y="420" type="line"/>
      <point x="30" y="461" type="line"/>
      <point x="232" y="705" type="line"/>
      <point x="279" y="705" type="line"/>
      <point x="279" y="474" type="line"/>
      <point x="341" y="474" type="line"/>
      <point x="341" y="420" type="line"/>
      <point x="279" y="420" type="line"/>
      <point x="279" y="377" type="line" smooth="yes"/>
      <point x="279" y="351"/>
      <point x="296" y="350"/>
      <point x="337" y="349" type="curve"/>
      <point x="337" y="324" type="line"/>
      <point x="142" y="324" type="line"/>
      <point x="142" y="349" type="line"/>
      <point x="178" y="350"/>
      <point x="200" y="351"/>
      <point x="200" y="377" type="curve" smooth="yes"/>
      <point x="200" y="420" type="line"/>
    </contour>
    <contour>
      <point x="75" y="474" type="line"/>
      <point x="200" y="474" type="line"/>
      <point x="200" y="623" type="line"/>
    </contour>
  </outline>
</glyph>
<glyph name="euro" format="2">
  <advance width="760"/>
  <unicode hex="20AC"/>
  <outline>
    <contour>
      <point x="475" y="428" type="line"/>
      <point x="31" y="427" type="line"/>
      <point x="31" y="368" type="line"/>
      <point x="466" y="368" type="line"/>
    </contour>
    <contour>
      <point x="474" y="302" type="line"/>
      <point x="30" y="301" type="line"/>
      <point x="30" y="242" type="line"/>
      <point x="465" y="242" type="line"/>
    </contour>
    <contour>
      <point x="694" y="647" type="line"/>
      <point x="620" y="687"/>
      <point x="547" y="713"/>
      <point x="464" y="713" type="curve" smooth="yes"/>
      <point x="236" y="713"/>
      <point x="109" y="550"/>
      <point x="109" y="350" type="curve" smooth="yes"/>
      <point x="109" y="147"/>
      <point x="258" y="-12"/>
      <point x="439" y="-12" type="curve" smooth="yes"/>
      <point x="614" y="-12"/>
      <point x="693" y="129"/>
      <point x="720" y="250" type="curve"/>
      <point x="691" y="250" type="line"/>
      <point x="651" y="142"/>
      <point x="584" y="74"/>
      <point x="500" y="74" type="curve" smooth="yes"/>
      <point x="377" y="74"/>
      <point x="265" y="189"/>
      <point x="265" y="392" type="curve" smooth="yes"/>
      <point x="265" y="572"/>
      <point x="339" y="672"/>
      <point x="461" y="672" type="curve" smooth="yes"/>
      <point x="584" y="672"/>
      <point x="639" y="583"/>
      <point x="665" y="467" type="curve"/>
      <point x="692" y="467" type="line"/>
    </contour>
  </outline>
</glyph>
<glyph name="trademark" format="2">
  <advance width="955"/>
  <unicode hex="2122"/>
  <outline>
    <contour>
      <point x="30" y="555" type="line"/>
      <point x="54" y="555" type="line"/>
      <point x="76" y="659"/>
      <point x="82" y="676"/>
      <point x="134" y="676" type="curve" smooth="yes"/>
      <point x="172" y="676" type="line"/>
      <point x="172" y="375" type="line" smooth="yes"/>
      <point x="172" y="343"/>
      <point x="147" y="349"/>
      <point x="106" y="347" type="curve"/>
      <point x="106" y="323" type="line"/>
      <point x="315" y="323" type="line"/>
      <point x="315" y="347" type="line"/>
      <point x="273" y="349"/>
      <point x="248" y="343"/>
      <point x="248" y="375" type="curve" smooth="yes"/>
      <point x="248" y="676" type="line"/>
      <point x="276" y="676" type="line" smooth="yes"/>
      <point x="338" y="676"/>
      <point x="348" y="659"/>
      <point x="367" y="555" type="curve"/>
      <point x="392" y="555" type="line"/>
      <point x="374" y="705" type="line"/>
      <point x="47" y="705" type="line"/>
    </contour>
    <contour>
      <point x="416" y="681" type="line"/>
      <point x="445" y="679"/>
      <point x="471" y="688"/>
      <point x="471" y="656" type="curve" smooth="yes"/>
      <point x="471" y="375" type="line" smooth="yes"/>
      <point x="471" y="346"/>
      <point x="445" y="349"/>
      <point x="416" y="347" type="curve"/>
      <point x="416" y="323" type="line"/>
      <point x="564" y="323" type="line"/>
      <point x="564" y="347" type="line"/>
      <point x="534" y="349"/>
      <point x="510" y="346"/>
      <point x="510" y="375" type="curve" smooth="yes"/>
      <point x="510" y="628" type="line"/>
      <point x="508" y="653" type="line"/>
      <point x="658" y="321" type="line"/>
      <point x="677" y="321" type="line"/>
      <point x="799" y="653" type="line"/>
      <point x="797" y="628" type="line"/>
      <point x="797" y="375" type="line" smooth="yes"/>
      <point x="797" y="346"/>
      <point x="772" y="349"/>
      <point x="742" y="347" type="curve"/>
      <point x="742" y="323" type="line"/>
      <point x="925" y="323" type="line"/>
      <point x="925" y="347" type="line"/>
      <point x="896" y="349"/>
      <point x="871" y="346"/>
      <point x="871" y="375" type="curve" smooth="yes"/>
      <point x="871" y="656" type="line" smooth="yes"/>
      <point x="871" y="688"/>
      <point x="896" y="679"/>
      <point x="925" y="681" type="curve"/>
      <point x="925" y="705" type="line"/>
      <point x="780" y="705" type="line"/>
      <point x="683" y="448" type="line"/>
      <point x="569" y="705" type="line"/>
      <point x="416" y="705" type="line"/>
    </contour>
  </outline>
</glyph>
